<svg width="2300" height="1332" viewBox="0 0 2300 1332" fill="none" xmlns="http://www.w3.org/2000/svg">
<g clip-path="url(#clip0_361_3078)">
<path opacity="0.3" d="M1768.89 376.299C1804.57 55.3311 1489.5 -56.1781 1266.14 26.0028C1040.97 108.851 988.771 -28.4848 672.145 10.7545C351.545 50.4857 514.319 547.53 514.319 547.53C514.319 547.53 565.331 979.741 625.768 1178.97C685.877 1377.11 1261.25 1305.42 1401.22 1299.51C1540.38 1293.63 1661.3 1304.98 1782.38 1087.42C1903.24 870.248 1733.33 696.203 1768.89 376.299Z" fill="url(#paint0_linear_361_3078)"/>
<mask id="mask0_361_3078" style="mask-type:luminance" maskUnits="userSpaceOnUse" x="1130" y="428" width="503" height="708">
<path d="M1154.59 1102.72L1275.71 1135.82C1275.71 1135.82 1315.5 1079.92 1297.8 1027.96C1261.69 921.944 1357.07 897.72 1395.49 881.598C1453.45 857.285 1493.91 810.585 1430.11 768C1366.32 725.415 1466.59 635.909 1565.84 610.132C1662.97 584.908 1674.17 397.7 1458.94 432.994C1330.41 454.071 1315.2 580.082 1292.39 641.89C1269.57 703.698 1173.98 683.198 1185.07 769.351C1194.54 842.941 1233.67 905.41 1181.34 939.92C1129.01 974.429 1110.96 1024.23 1154.59 1102.72Z" fill="white"/>
</mask>
<g mask="url(#mask0_361_3078)">
<path d="M1154.59 1102.72L1275.71 1135.82C1275.71 1135.82 1315.5 1079.92 1297.8 1027.96C1261.69 921.944 1357.07 897.72 1395.49 881.598C1453.45 857.285 1487.68 814.761 1438.83 767.754C1383.56 714.567 1466.59 635.909 1565.84 610.131C1662.97 584.907 1674.17 397.7 1458.94 432.993C1330.41 454.07 1315.2 580.081 1292.39 641.889C1269.57 703.697 1173.98 683.198 1185.07 769.351C1194.54 842.94 1233.67 905.409 1181.34 939.919C1129.01 974.429 1110.96 1024.23 1154.59 1102.72Z" fill="url(#paint1_linear_361_3078)"/>
</g>
<mask id="mask1_361_3078" style="mask-type:luminance" maskUnits="userSpaceOnUse" x="1130" y="428" width="503" height="708">
<path d="M1154.59 1102.72L1275.71 1135.82C1275.71 1135.82 1315.5 1079.92 1297.8 1027.96C1261.69 921.944 1357.07 897.72 1395.49 881.598C1453.45 857.285 1493.91 810.585 1430.11 768C1366.32 725.415 1466.59 635.909 1565.84 610.132C1662.97 584.908 1674.17 397.7 1458.94 432.994C1330.41 454.071 1315.2 580.082 1292.39 641.89C1269.57 703.698 1173.98 683.198 1185.07 769.351C1194.54 842.941 1233.67 905.41 1181.34 939.92C1129.01 974.429 1110.96 1024.23 1154.59 1102.72Z" fill="white"/>
</mask>
<g mask="url(#mask1_361_3078)">
<g opacity="0.9">
<path d="M1203.94 1128.29L1206.58 1128.51C1206.72 1126.88 1221.36 963.152 1284.8 805.219C1343.25 659.721 1456.29 489.509 1662.92 504.885L1663.11 502.241C1571.13 495.396 1489.74 524.12 1421.18 587.614C1366.41 638.335 1319.69 711.232 1282.32 804.281C1218.74 962.577 1204.08 1126.65 1203.94 1128.29Z" fill="#BEB8F2"/>
<path d="M1393.68 615.384L1396.3 615.761C1408.87 528.435 1473.83 417.266 1474.49 416.153L1472.2 414.808C1471.55 415.926 1406.32 527.546 1393.68 615.384Z" fill="#BEB8F2"/>
<path d="M1440.52 574.33C1541.25 544.229 1614.64 591.942 1615.36 592.428L1616.83 590.222C1616.09 589.728 1541.72 541.32 1439.76 571.79L1440.52 574.33Z" fill="#BEB8F2"/>
<path d="M1248.95 910.73C1310.49 797.991 1482.53 813.241 1484.2 813.529L1484.82 810.955C1483.21 810.517 1308.71 795.719 1246.62 909.46L1248.95 910.73Z" fill="#BEB8F2"/>
<path d="M1262.12 859.431L1264.77 859.594C1269.83 777.789 1200.42 701.579 1199.72 700.818L1197.77 702.616C1198.46 703.369 1267.11 778.768 1262.12 859.431Z" fill="#BEB8F2"/>
<path d="M1209.45 1102.8C1225.97 1056.88 1303.11 1038.04 1303.89 1037.86L1303.28 1035.28C1300.05 1036.05 1223.96 1054.63 1206.96 1101.9L1209.45 1102.8Z" fill="#BEB8F2"/>
<path d="M1212.4 1063.98L1215.04 1064.24C1218.8 1025.84 1174.52 969.822 1159.97 951.413C1157.91 948.812 1156.14 946.566 1155.9 946.104L1153.52 947.281C1153.85 947.938 1155.03 949.434 1157.89 953.057C1172.27 971.259 1216.06 1026.65 1212.4 1063.98Z" fill="#BEB8F2"/>
</g>
</g>
<path d="M1280.19 632.345C1299.71 652.986 1295.69 680.241 1289.7 699.509C1287.08 700.262 1285.76 701.364 1283.29 702.707C1261 714.82 1248.9 715.238 1225.04 723.708C1219.91 725.531 1203.21 726.298 1196.36 726.173L1183.6 725.737C1183.6 725.737 1144.84 673.085 1172.19 647.854C1199.54 622.624 1169.06 567.947 1156.49 536.991C1148.77 517.982 1151.32 506.815 1149.61 499.375C1131.44 420.615 1101.37 404.533 1111.2 375.293C1122.04 343.014 1161.79 353.374 1175.45 318.883C1190.87 279.937 1150.53 240.579 1173.36 206.983C1177.27 201.223 1181.45 195.411 1189.27 190.394C1208.56 178.011 1229.33 185.279 1239.29 163.491C1259.33 119.696 1305.63 93.0006 1346.8 120.722C1387.43 148.081 1373.6 229.14 1302.09 311.248C1257.89 375.438 1261.4 389.954 1276.84 423.369C1287.65 446.773 1332.48 503.067 1304.59 538.403C1276.7 573.74 1257.87 608.748 1280.19 632.345Z" fill="url(#paint2_linear_361_3078)"/>
<mask id="mask2_361_3078" style="mask-type:luminance" maskUnits="userSpaceOnUse" x="1149" y="109" width="221" height="619">
<path d="M1280.26 723.545L1186.22 727.312C1186.22 727.312 1144.84 673.085 1172.19 647.854C1199.54 622.624 1169.06 567.947 1156.49 536.991C1122.37 453 1225.53 432.536 1191.05 321.218C1181.87 291.61 1153.66 238.148 1173.36 206.983C1195.8 171.476 1226.48 191.511 1239.29 163.491C1259.33 119.696 1305.63 93.0006 1346.8 120.722C1387.43 148.081 1373.6 229.14 1302.09 311.248C1257.89 375.439 1261.4 389.954 1276.84 423.369C1287.66 446.773 1332.48 503.068 1304.59 538.404C1276.7 573.74 1257.87 608.749 1280.19 632.345C1314.14 668.248 1280.26 723.545 1280.26 723.545Z" fill="white"/>
</mask>
<g mask="url(#mask2_361_3078)">
<g opacity="0.5">
<path d="M1238.01 721.05L1236.17 721.345C1234.45 711.188 1232.85 700.924 1231.41 690.836C1220.8 616.146 1218.09 543.131 1223.39 473.815C1227.87 415.082 1238.15 358.178 1253.92 304.684C1266.61 261.664 1282.91 220.606 1302.37 182.65C1316.05 155.967 1331.14 131.082 1347.21 108.685C1350.02 104.782 1353.11 100.932 1356.11 97.2085C1360.1 92.2479 1364.23 87.1182 1367.68 81.8223L1369.28 82.7016C1365.77 88.0705 1361.62 93.235 1357.6 98.2295C1354.62 101.935 1351.54 105.765 1348.76 109.629C1332.74 131.956 1317.69 156.766 1304.05 183.374C1284.64 221.235 1268.38 262.196 1255.72 305.117C1239.98 358.5 1229.73 415.291 1225.25 473.911C1219.96 543.109 1222.66 616.009 1233.26 690.583C1234.69 700.657 1236.29 710.907 1238.01 721.05Z" fill="#FCFDFE"/>
<path d="M1239.42 370.884L1237.58 370.637C1250.27 297.149 1184.63 186.394 1183.96 185.285L1185.6 184.426C1186.26 185.542 1252.21 296.807 1239.42 370.884Z" fill="#FCFDFE"/>
<path d="M1223.31 579.061L1221.44 579.015C1223.78 528.229 1306.21 466.388 1307.04 465.769L1308.19 467.112C1307.37 467.726 1225.61 529.069 1223.31 579.061Z" fill="#FCFDFE"/>
<path d="M1224.66 607.945L1222.82 608.204C1218 575.417 1192.5 533.366 1151.02 489.799C1148.94 487.609 1148.94 487.609 1148.89 487.284L1150.73 487.004L1149.81 487.144L1150.61 486.696C1150.73 486.857 1151.52 487.684 1152.43 488.642C1194.15 532.458 1219.8 574.826 1224.66 607.945Z" fill="#FCFDFE"/>
<path d="M1235.15 702.47L1233.31 702.23C1239.4 666.056 1289.99 638.247 1290.5 637.971L1291.42 639.46C1290.92 639.733 1241.1 667.125 1235.15 702.47Z" fill="#FCFDFE"/>
<path d="M1235.34 721.941C1220.04 696.356 1196.25 674.125 1162.61 653.979L1163.64 652.521C1197.54 672.822 1221.53 695.25 1236.98 721.084L1235.34 721.941Z" fill="#FCFDFE"/>
<path d="M1292.98 205.896L1291.16 205.554C1300.67 165.024 1300.56 120.55 1300.52 105.935C1300.51 102.397 1300.51 101.152 1300.59 100.717L1302.43 100.989C1302.37 101.321 1302.38 103.344 1302.38 105.904C1302.42 120.565 1302.53 165.181 1292.98 205.896Z" fill="#FCFDFE"/>
<path d="M1267.06 269.827L1265.43 269C1285.98 234.937 1366.59 213.207 1370.01 212.298L1370.49 213.961C1369.66 214.182 1287.22 236.4 1267.06 269.827Z" fill="#FCFDFE"/>
</g>
</g>
<path d="M1280.21 904.474C1273.76 904.42 1277.37 870.729 1253.91 830.923C1248.05 820.978 1219.84 764.52 1172.55 768.422C1163.37 769.179 1154.19 769.936 1145.01 770.693C1134.71 751.088 1128.64 730.703 1155.45 719.555C1197.08 702.243 1188.61 630.343 1173.39 606.351C1154.55 576.656 1112.18 506.662 1176.09 478.942C1229.3 455.865 1268.64 451.235 1263.59 383.471C1258.54 315.707 1291.91 269.119 1357.13 265.484C1425.76 261.66 1470.25 169.565 1529.81 191.579C1633.6 229.941 1565.23 388.659 1452.74 445.581C1340.25 502.504 1413.37 534.685 1423.87 589.389C1424.55 594.522 1425.22 602.533 1424.21 612.139C1418.01 671.275 1359.06 688.314 1321.64 740.562C1270.6 811.818 1291.08 904.564 1280.21 904.474Z" fill="url(#paint3_linear_361_3078)"/>
<mask id="mask3_361_3078" style="mask-type:luminance" maskUnits="userSpaceOnUse" x="1138" y="188" width="444" height="599">
<path d="M1300.68 769.838L1152.2 786.25C1141.09 767.374 1125.51 732.008 1155.45 719.555C1197.08 702.242 1188.61 630.343 1173.39 606.351C1154.55 576.656 1112.18 506.662 1176.09 478.942C1229.3 455.865 1268.64 451.234 1263.59 383.47C1258.54 315.706 1291.91 269.118 1357.13 265.484C1425.76 261.659 1470.25 169.563 1529.81 191.579C1633.6 229.94 1565.23 388.658 1452.74 445.581C1340.25 502.503 1413.37 534.684 1423.87 589.388C1438.19 664.071 1328.32 660.724 1303.78 693.625C1284.54 719.419 1292.92 750.887 1300.68 769.838Z" fill="white"/>
</mask>
<g mask="url(#mask3_361_3078)">
<g opacity="0.5">
<path d="M1228.03 755.528L1224.8 755.292C1243.2 532.496 1376.1 319.218 1571.65 198.687L1573.42 201.246C1378.7 321.269 1246.36 533.658 1228.03 755.528Z" fill="#FCFDFE"/>
<path d="M1249.09 634.87L1245.88 635.24C1234.64 548.059 1146.78 489.179 1145.9 488.594L1147.75 486.089C1148.65 486.68 1237.68 546.315 1249.09 634.87Z" fill="#FCFDFE"/>
<path d="M1232.6 714.63L1229.59 713.514C1264.04 630.623 1432.82 600.083 1434.52 599.785L1435.11 602.79C1433.43 603.085 1266.4 633.315 1232.6 714.63Z" fill="#FCFDFE"/>
<path d="M1338.96 432.916L1335.85 432.048C1357.14 364.33 1299.88 270.454 1299.3 269.513L1302.1 267.973C1302.69 268.924 1360.64 363.947 1338.96 432.916Z" fill="#FCFDFE"/>
<path d="M1428.34 318.768L1426.32 316.375C1493.07 266.263 1607.77 276.553 1608.93 276.665L1608.6 279.707C1607.46 279.596 1494.05 269.435 1428.34 318.768Z" fill="#FCFDFE"/>
</g>
</g>
<path d="M1190.64 1223.82C1187.42 1223.95 1184.34 1224.02 1181.39 1224.02C1064.6 1224.02 770.077 1246.6 683.081 993.717C603.145 761.468 901.189 405.351 950.306 348.855C954.669 343.828 957.068 341.179 957.068 341.179C957.068 341.179 944.092 331.629 1206.79 321.508C1508.49 552.889 1556.17 736.064 1556.17 736.064C1652.15 1111.37 1315.79 1218.68 1190.64 1223.82Z" fill="url(#paint4_linear_361_3078)"/>
<path opacity="0.3" d="M1190.64 1223.82C1187.42 1223.96 1184.34 1224.02 1181.39 1224.02C1064.6 1224.02 770.077 1246.6 683.081 993.718C603.145 761.469 901.189 405.351 950.306 348.855C962.826 346.913 974.888 347.507 986.356 351.07C990.742 352.441 374.756 1140.64 1190.64 1223.82Z" fill="url(#paint5_linear_361_3078)"/>
<path d="M907.119 142.75C907.119 142.75 956.112 59.4308 1025.28 90.1277C1094.45 120.824 1150.17 143.847 1186.67 121.921C1223.18 99.9945 1242.27 82.6192 1252.42 130.774C1262.56 178.929 1124.23 297.33 1124.23 297.33C1124.23 297.33 912.882 297.329 907.119 142.75Z" fill="url(#paint6_linear_361_3078)"/>
<path opacity="0.2" d="M907.119 179.303C907.119 179.303 956.112 95.9836 1025.28 126.68C1094.45 157.377 1150.17 180.399 1186.67 158.473C1223.18 136.547 1242.27 119.172 1252.42 167.327C1262.56 215.482 1124.23 333.883 1124.23 333.883C1124.23 333.883 912.882 333.882 907.119 179.303Z" fill="url(#paint7_linear_361_3078)"/>
<path d="M1262.81 260.967C1243.21 290.096 1220.34 315.066 1200.21 325.347C1174.97 338.232 1130.01 346.045 1085.23 349.312C1040.43 352.556 995.791 351.253 971.301 345.908L971.256 345.885C965.178 344.56 960.358 342.983 957.069 341.179C957.069 341.179 877.909 215.482 876.767 156.838C876.379 138.217 883.872 126.361 904.226 127.412C988.778 131.775 990.697 178.929 1048.34 165.769C1105.98 152.611 1148.24 64.9065 1186.67 121.929C1225.09 178.929 1266.4 97.8037 1300.99 124.122C1323.31 141.097 1298.5 207.921 1262.81 260.967Z" fill="url(#paint8_linear_361_3078)"/>
<path d="M952.429 333.627C952.429 333.627 1108.03 378.226 1209.77 319.517C1218.54 330.588 1223.09 334.15 1223.09 334.15C1223.09 334.15 1148.34 402.403 946.157 353.669C946.157 353.669 951.073 339.218 952.429 333.627Z" fill="url(#paint9_linear_361_3078)"/>
<path opacity="0.2" d="M1262.81 260.967C1243.21 290.095 1220.34 315.066 1200.21 325.346C1174.97 338.232 1130.01 346.044 1085.23 349.312L971.301 345.907L971.256 345.885C965.179 344.56 960.358 342.982 957.069 341.179C957.069 341.179 877.909 215.482 876.767 156.837C877.726 155.809 908.843 122.934 946.148 193.413C984.072 264.988 997.779 327.38 1042.69 297.338C1087.63 267.273 1156.92 149.252 1169.12 204.835C1181.3 260.419 1136.36 313.901 1169.12 305.059C1194.66 298.16 1243.87 260.008 1262.81 260.967Z" fill="url(#paint10_linear_361_3078)"/>
<g opacity="0.9">
<path d="M1153.03 529.858C1162.62 529.516 1170.67 536.126 1171.03 544.629L1172.26 573.739C1191.48 573.298 1210.74 573.9 1230.05 575.537C1244.28 576.742 1258.42 578.514 1272.49 580.849C1280.91 582.247 1286.94 588.966 1286.49 596.721L1284.32 633.894C1283.75 643.796 1273.15 650.905 1262.7 648.128C1253.33 645.642 1243.75 643.705 1233.96 642.318C1216.86 639.898 1198.89 639.167 1180.03 640.137L1175.1 640.391L1178.71 725.411C1229.72 731.487 1267.47 743.618 1292.38 761.811C1317.19 779.936 1330.42 804.916 1332.15 836.92C1334.04 871.712 1322.38 901.527 1296.98 926.431C1271.29 951.616 1234.18 969.028 1185.32 978.56L1186.77 1012.97C1187.16 1022.14 1179.42 1030.45 1169.47 1031.51L1169.15 1031.55C1159.16 1032.62 1150.75 1026 1150.39 1016.78L1149.05 982.767L1141.04 983.566C1117.87 985.88 1095.58 986.866 1074.21 986.513C1058.36 986.251 1042.84 985.217 1027.66 983.405C1018.47 982.309 1011.98 975.362 1012.58 966.85L1016.13 916.002C1016.9 905.064 1028.79 897.151 1040.35 899.634C1053.8 902.526 1067.39 904.652 1081.11 906.015C1102.47 908.137 1124.02 908.418 1145.75 906.873L1142.23 809.468C1092.72 805.109 1055.29 793.883 1030.35 775.783C1005.32 757.615 992.313 731.966 991.398 699.015C990.457 665.094 1002.9 637.412 1028.51 616.003C1053.86 594.817 1090.25 581.434 1137.4 575.751L1136.21 545.943C1135.87 537.398 1143.41 530.2 1153.03 529.858ZM1140.1 643.864C1125.18 646.685 1113.63 651.769 1105.49 659.123C1097.32 666.503 1093.42 675.551 1093.81 686.262C1094.17 696.426 1098.38 704.438 1106.43 710.281C1114.46 716.117 1126.74 720.028 1143.2 722.015L1140.1 643.864ZM1178.32 812.465L1182.08 901.612C1198.6 899.376 1211.09 894.087 1219.58 885.762C1228.05 877.467 1231.97 866.866 1231.37 853.955C1230.83 842.206 1226.32 833.023 1217.84 826.383C1209.34 819.736 1196.19 815.097 1178.32 812.465Z" fill="url(#paint11_linear_361_3078)"/>
</g>
<path d="M867.829 293.287C867.829 381.886 798.55 451.582 710.004 448.863C617.854 446.033 540.353 366.448 540.353 271.21C540.353 175.972 617.854 106.837 710.004 116.432C798.55 125.652 867.829 204.689 867.829 293.287Z" fill="url(#paint12_linear_361_3078)"/>
<path d="M891.756 285.648C891.756 374.246 822.477 443.942 733.931 441.223C641.781 438.393 564.28 358.808 564.28 263.57C564.28 168.333 641.781 99.1975 733.931 108.793C822.477 118.012 891.756 197.049 891.756 285.648Z" fill="url(#paint13_linear_361_3078)"/>
<path d="M884.806 285.179C884.806 369.876 818.519 436.39 733.931 433.651C646.06 430.806 572.284 354.854 572.284 264.11C572.284 173.366 646.06 107.362 733.931 116.365C818.519 125.031 884.806 200.483 884.806 285.179Z" fill="url(#paint14_linear_361_3078)"/>
<path d="M879.828 284.843C879.828 366.746 815.687 430.988 733.931 428.243C649.113 425.395 577.985 352.039 577.985 264.494C577.985 176.95 649.113 113.184 733.931 121.773C815.687 130.051 879.828 202.941 879.828 284.843Z" fill="url(#paint15_linear_361_3078)"/>
<path d="M733.094 149.636C737.445 150.05 740.966 153.966 740.966 158.384V173.464C749.665 174.435 758.377 175.948 767.101 177.998C773.534 179.509 779.923 181.309 786.269 183.396C790.071 184.646 792.663 188.485 792.275 192.445L790.423 211.354C789.931 216.371 784.972 219.317 780.303 217.235C776.123 215.371 771.837 213.774 767.444 212.445C759.779 210.126 751.696 208.614 743.19 207.913L740.966 207.73V250.916C763.661 257.265 780.329 265.807 791.1 276.552C801.82 287.244 807.16 300.571 807.16 316.569C807.16 333.869 801.255 347.723 789.399 358.171C777.48 368.674 760.768 374.582 739.157 375.861V392.505C739.157 396.925 735.633 400.368 731.279 400.195L731.139 400.189C726.776 400.015 723.233 396.279 723.233 391.844V375.425L719.726 375.267C709.595 374.81 699.891 373.776 690.619 372.164C683.753 370.969 677.048 369.428 670.505 367.538C666.548 366.395 663.832 362.625 664.195 358.576L666.374 334.269C666.845 329.014 672.124 325.956 677.12 327.927C682.945 330.225 688.842 332.16 694.81 333.734C704.112 336.187 713.54 337.76 723.093 338.459L723.233 290.42C701.448 285.03 685.138 277.045 674.422 266.47C663.657 255.845 658.255 242.246 658.255 225.714C658.255 208.604 664.112 195.397 675.783 186.128C687.394 176.906 703.9 172.318 725.195 172.329V156.913C725.194 152.479 728.735 149.221 733.094 149.636ZM725.194 207.283C718.462 207.773 713.211 209.622 709.454 212.833C705.69 216.049 703.806 220.371 703.806 225.796C703.806 230.935 705.549 235.231 709.031 238.679C712.507 242.122 717.9 244.871 725.194 246.926V207.283ZM739.157 294.271V338.324C746.476 338.338 752.088 336.591 756.006 333.086C759.918 329.588 761.871 324.647 761.871 318.257C761.871 312.432 760.056 307.6 756.421 303.758C752.78 299.91 747.031 296.748 739.157 294.271Z" fill="url(#paint16_linear_361_3078)"/>
<path opacity="0.3" d="M707.529 304.9C712.458 256.215 757.202 235.605 751.363 190.822C747.764 163.22 726.844 139.959 703.507 121.797C632.721 129.22 577.984 187.833 577.984 264.494C577.984 352.039 649.112 425.395 733.931 428.243C742.166 428.519 750.209 428.092 758.03 427.066C724.345 393.547 703.294 346.727 707.529 304.9Z" fill="url(#paint17_linear_361_3078)"/>
<path d="M823.082 1296.78C819.311 1304.47 820.37 1307.78 821.308 1309.23C824.06 1313.5 830.684 1309.47 847.977 1311.52C850.005 1311.76 853.876 1312.28 858.706 1311.14C862.844 1310.17 867.723 1307.97 867.515 1306.86C867.438 1306.46 866.704 1306.29 866.424 1306.23C861.625 1305.21 831.584 1295.99 831.584 1295.99L823.082 1296.78Z" fill="url(#paint18_linear_361_3078)"/>
<path d="M820.776 1279.88L823.458 1297.07C823.458 1297.07 830.842 1302.29 832.782 1295.95C834.179 1291.39 834.139 1279.11 834.139 1279.11L820.776 1279.88Z" fill="url(#paint19_linear_361_3078)"/>
<path d="M907.966 1288.39L900.717 1308.18L890.182 1306.51L892.625 1288.18L907.966 1288.39Z" fill="url(#paint20_linear_361_3078)"/>
<path d="M897.436 1319.09C892.337 1313.04 887.784 1313.58 886.866 1309.43C886.144 1306.16 888.145 1302.15 891.163 1300.63C895.406 1298.49 900.544 1301.83 901.705 1302.58C909.592 1307.71 907.444 1315.73 914.88 1319.21C916.377 1319.91 918.749 1320.65 921.249 1322.99C922.31 1323.99 924.939 1326.45 924.323 1328.15C923.611 1330.11 918.923 1330.04 914.465 1329.98C909.116 1329.9 906.442 1329.86 903.87 1328.26C900.304 1326.03 901.372 1323.76 897.436 1319.09Z" fill="url(#paint21_linear_361_3078)"/>
<path d="M764.409 868.68C766.358 908.666 772.083 942.8 778.596 970.626C785.602 1000.56 789.419 1005.68 791.849 1026.43C797.136 1071.58 782.692 1078.37 781.112 1129.57C779.366 1186.11 795.345 1230.67 801.616 1247.67C807.098 1262.52 812.759 1274.49 817.002 1282.8C822.277 1287.21 830.156 1285.3 838.467 1283.43C840.444 1232.14 843.243 1183.85 845.22 1132.56C853.484 1055.29 861.747 978.027 870.011 900.758C834.809 890.065 799.61 879.374 764.409 868.68Z" fill="url(#paint22_linear_361_3078)"/>
<path opacity="0.3" d="M838.466 1283.43C840.443 1232.14 843.242 1183.85 845.219 1132.56C853.483 1055.29 861.747 978.026 870.011 900.757C834.81 890.064 799.61 879.373 764.409 868.679C764.538 871.327 764.727 873.879 764.887 876.477C814.843 918.014 825.164 951.547 825.179 974.569C825.197 1002.49 810.231 1016.65 814.081 1057.06C816.834 1085.95 825.641 1090.86 826.198 1116.97C826.914 1150.59 812.889 1169.8 806.278 1189.38C799.889 1208.31 798.041 1234.95 811.975 1272.5C813.781 1276.37 815.485 1279.83 817.002 1282.8C822.276 1287.2 830.156 1285.3 838.466 1283.43Z" fill="url(#paint23_linear_361_3078)"/>
<path d="M827.123 905.891C853.755 948.733 868.76 982.581 876.962 1003.51C881.965 1016.27 886.536 1029.58 887.911 1047.13C889.595 1068.64 885.693 1086.42 882.226 1097.83C877.133 1112.46 872.613 1129.49 869.96 1148.68C861.357 1210.91 876.994 1262.49 888.996 1292.09C895.258 1294.26 901.52 1296.43 907.782 1298.59C921.007 1258.93 937.045 1202.72 947.943 1133.59C953.896 1095.83 958.428 1066.22 957.673 1028.76C956.877 989.234 949.916 926.845 915.978 852.852C886.36 870.532 856.742 888.212 827.123 905.891Z" fill="url(#paint24_linear_361_3078)"/>
<path d="M834.144 563.495C873.796 569.433 904.024 575.85 917.897 596.253C932.549 617.803 910.352 634.738 905.248 682.82C897.435 756.432 940.231 782.951 929.672 857.129C926.115 882.123 918.059 901.568 912.475 913.138C899.932 923.825 879.946 938.469 852.624 948.69C812.866 963.562 792.93 955.84 739.099 960.076C651.049 967.004 638.399 992.855 598.233 977.987C557.639 962.959 527.584 920.647 535.727 902.115C540.605 891.018 556.881 897.533 579.723 883.547C609.162 865.521 603.646 841.899 627.397 821.024C661.512 791.04 695.567 819.85 724.737 793.789C754.243 767.424 756.49 704.803 742.915 667.844C734.047 643.704 733.325 617.26 726.597 592.44C726.037 590.377 725.561 587.079 726.769 583.302C731.389 568.854 757.573 565.539 777.37 563.218C807.562 559.678 830.884 563.006 834.144 563.495Z" fill="url(#paint25_linear_361_3078)"/>
<path opacity="0.3" d="M602.261 950.048C614.292 941.653 607.187 918.737 625.002 906.108C641.536 894.388 654.941 908.965 679.506 900.854C711.013 890.45 708.7 859.952 738.884 849.554C760.59 842.077 767.482 855.886 799.02 855.813C830.503 855.741 871.48 841.868 896.889 807.947C907.685 793.533 913.563 778.278 916.639 764.225C925.638 791.229 935.339 817.315 929.672 857.129C926.115 882.122 918.059 901.568 912.475 913.138C899.933 923.825 879.946 938.469 852.625 948.688C812.866 963.561 792.931 955.839 739.099 960.075C651.05 967.004 638.399 992.855 598.233 977.987C572.29 968.383 550.708 947.645 540.594 929.083C575.98 953.679 593.53 956.141 602.261 950.048Z" fill="url(#paint26_linear_361_3078)"/>
<path d="M855.497 494.634C855.497 494.634 866.822 514.838 867.817 529.164C868.811 543.489 852.605 542.794 852.605 542.794L853.406 551.828C854.091 559.539 859.247 566.126 866.568 568.642L873.009 570.854C873.009 570.854 831.518 580.672 808.411 565.079L814.957 564.296C824.225 563.189 831.428 555.701 832.176 546.397L832.489 542.516C832.489 542.516 824.3 497.97 855.497 494.634Z" fill="url(#paint27_linear_361_3078)"/>
<path d="M921.778 721.169L973.322 606.129C973.958 604.709 975.448 603.871 976.992 604.066L1067.12 615.43C1069.53 615.733 1070.92 618.314 1069.85 620.492L1009.08 744.796C1008.35 746.293 1006.67 747.076 1005.06 746.676L924.813 726.832L921.778 721.169Z" fill="url(#paint28_linear_361_3078)"/>
<path d="M935.96 707.241L977.695 614.094C978.211 612.944 979.417 612.265 980.667 612.423L1053.64 621.624C1055.59 621.869 1056.72 623.959 1055.86 625.724L1006.65 726.37C1006.06 727.583 1004.7 728.216 1003.39 727.892L938.418 711.826L935.96 707.241Z" fill="url(#paint29_linear_361_3078)"/>
<path d="M992.826 613.531L996.133 606.064C996.593 605.026 997.674 604.409 998.801 604.542L1036.3 608.953C1038.05 609.158 1039.08 610.998 1038.36 612.594L1034.66 620.723C1034.19 621.764 1033.09 622.371 1031.96 622.217L994.842 617.143C993.135 616.91 992.129 615.106 992.826 613.531Z" fill="url(#paint30_linear_361_3078)"/>
<path d="M1043.98 638.717C1043.92 638.716 1043.86 638.709 1043.81 638.702L977.706 630.222C976.888 630.117 976.309 629.368 976.413 628.552C976.522 627.731 977.296 627.165 978.085 627.263L1044.18 635.744C1045 635.848 1045.58 636.597 1045.48 637.413C1045.38 638.176 1044.72 638.727 1043.98 638.717Z" fill="#F4F7FA"/>
<path d="M1040.59 645.391C1040.52 645.39 1040.46 645.384 1040.4 645.377L974.632 636.253C973.814 636.143 973.245 635.387 973.357 634.567C973.468 633.752 974.214 633.184 975.041 633.295L1040.81 642.419C1041.63 642.53 1042.2 643.284 1042.08 644.105C1041.98 644.856 1041.33 645.401 1040.59 645.391Z" fill="#F4F7FA"/>
<path d="M1007.49 655.884C1007.42 655.883 1007.34 655.876 1007.27 655.864L971.405 649.89C970.589 649.755 970.04 648.984 970.177 648.17C970.31 647.36 971.094 646.805 971.894 646.944L1007.76 652.919C1008.57 653.053 1009.12 653.825 1008.98 654.64C1008.86 655.373 1008.22 655.895 1007.49 655.884Z" fill="#F4F7FA"/>
<path d="M1023.96 714.374C1023.96 714.374 1038.64 704.385 1040.36 697.343C1042.07 690.301 1041.64 677.051 1041.64 677.051L1033.08 695.717C1033.08 695.717 1028.94 694.531 1027.16 688.38C1025.38 682.228 1022.36 687.863 1023.58 692.51C1024.8 697.157 1023.96 714.374 1023.96 714.374Z" fill="url(#paint31_linear_361_3078)"/>
<path d="M910.871 589.309C918.629 594.035 930.325 602.33 940.664 615.713C970.077 653.789 958.61 694.354 982.942 708.701C989.9 712.805 1002.11 716.136 1024.16 708.337L1032.62 712.833C1032.62 712.833 1042.94 765.341 979.18 767.304C915.42 769.27 883.651 690.003 883.651 690.003L910.871 589.309Z" fill="url(#paint32_linear_361_3078)"/>
<path d="M849.42 515.096C847.262 514.965 845.424 512.27 843.966 513.113C842.436 513.996 842.693 517.976 844.099 520.744C845.252 523.011 847.079 524.268 848.094 524.851C846.48 527.188 844.437 530.813 843.656 535.516C841.926 545.918 847.612 554.132 850.006 558.959C860.801 580.718 845.486 615.813 828.235 633.739C814.216 648.311 807.409 642.719 799.107 654.553C782.946 677.585 806.457 702.017 798.503 732.721C786.408 779.409 713.425 794.787 710.399 795.386C709.206 795.624 708.406 795.773 707.164 795.998C674.404 801.925 624.75 810.909 589.084 784.681C562.398 765.058 549.605 730.182 550.929 699.194C551.277 691.043 553.081 660.09 577.717 634.331C581.628 630.243 604.785 606.087 636.756 605.115C653.689 604.6 657.233 610.494 670.107 606.527C687.731 601.094 698.308 584.738 704.871 574.592C716.94 555.928 711.791 552.109 720.564 542.869C737.755 524.766 758.669 538.244 777.101 522.197C795.27 506.38 783.661 485.701 801.232 471.971C819.359 457.811 854.7 461.861 862.564 478.092C869.323 492.04 856.037 515.5 849.42 515.096Z" fill="url(#paint33_linear_361_3078)"/>
<path d="M1378.46 391.93L1382.21 379.533C1382.21 379.533 1379.9 353.875 1391.73 359.065C1403.55 364.254 1407.87 376.074 1398.93 381.263C1390 386.452 1387.4 396.543 1387.4 396.543L1378.46 391.93Z" fill="url(#paint34_linear_361_3078)"/>
<path d="M1712.73 397.521L1706.35 385.073C1706.35 385.073 1703.85 357.364 1692.29 365.161C1680.73 372.958 1678.42 386.352 1688.92 390.14C1699.42 393.928 1704.12 404.148 1704.12 404.148L1712.73 397.521Z" fill="url(#paint35_linear_361_3078)"/>
<path d="M1519.41 1247.78C1519.41 1247.78 1522.69 1261.06 1522.79 1265.87C1522.9 1270.68 1469.96 1277.39 1469.13 1273.84C1468.31 1270.3 1477.17 1263.85 1483.57 1261.31C1489.97 1258.77 1508.73 1251.86 1508.73 1251.86L1519.41 1247.78Z" fill="url(#paint36_linear_361_3078)"/>
<path d="M1505.44 1235.4L1508.47 1252C1508.47 1252 1514.97 1255.58 1520.16 1252L1521.42 1233.57L1505.44 1235.4Z" fill="url(#paint37_linear_361_3078)"/>
<path d="M1615.96 1262C1615.96 1262 1619.24 1275.27 1619.34 1280.08C1619.45 1284.9 1566.51 1291.6 1565.68 1288.06C1564.86 1284.51 1573.72 1278.06 1580.12 1275.52C1586.52 1272.98 1605.28 1266.07 1605.28 1266.07L1615.96 1262Z" fill="url(#paint38_linear_361_3078)"/>
<path d="M1601.99 1249.62L1605.02 1266.21C1605.02 1266.21 1611.52 1269.79 1616.71 1266.21L1617.97 1247.78L1601.99 1249.62Z" fill="url(#paint39_linear_361_3078)"/>
<path d="M1480.08 797.889C1474.94 810.833 1469.79 823.777 1464.65 836.721C1465.41 908.178 1469.14 985.644 1477.34 1068.15C1483.44 1129.54 1491.39 1187.52 1500.49 1241.81C1508.79 1240.76 1517.09 1239.71 1525.38 1238.66C1535.51 1213.8 1546.82 1176.45 1544.55 1131.65C1542.18 1084.92 1527.55 1079.86 1524.87 1035.15C1521.39 977.201 1544.42 959.821 1551.77 889.192C1554.58 862.182 1555.12 827.153 1547.79 785.296C1525.22 789.492 1502.65 793.693 1480.08 797.889Z" fill="url(#paint40_linear_361_3078)"/>
<path opacity="0.3" d="M1547.79 785.295C1535.6 787.562 1523.41 789.829 1511.22 792.098C1492.18 832.371 1489.22 872.939 1494.52 890.353C1502.02 914.992 1517.2 921.861 1518.41 947.104C1519.62 972.081 1505.46 979.718 1498.5 1009.83C1493.69 1030.68 1496.88 1049.23 1503.48 1085.5C1516.77 1158.54 1536.35 1179.63 1523.39 1204.97C1519.71 1212.17 1512.74 1220.95 1498.3 1228.38C1499.03 1232.87 1499.75 1237.37 1500.49 1241.81C1508.79 1240.76 1517.09 1239.71 1525.38 1238.66C1535.51 1213.79 1546.82 1176.45 1544.55 1131.65C1542.18 1084.92 1527.55 1079.86 1524.87 1035.15C1521.39 977.2 1544.42 959.821 1551.77 889.192C1554.58 862.182 1555.12 827.153 1547.79 785.295Z" fill="url(#paint41_linear_361_3078)"/>
<path d="M1514.92 817.659C1531.49 879.604 1547.06 946.074 1560.73 1016.8C1577.23 1102.19 1588.86 1183.01 1596.91 1258.26C1606.07 1257.79 1615.23 1257.31 1624.4 1256.84C1654.7 1182.7 1653.03 1134.22 1645.32 1103.18C1642.35 1091.22 1635.01 1067.89 1630.92 1032.48C1628.07 1007.79 1628.14 988.821 1628.3 966.013C1628.65 916.007 1633.03 904.745 1630.74 866.7C1628.59 830.994 1627.29 812.945 1616.27 803.231C1587.24 777.642 1520.02 814.779 1514.92 817.659Z" fill="url(#paint42_linear_361_3078)"/>
<path d="M1393.65 391.258C1386.9 390.805 1380.15 390.352 1373.4 389.899C1363.16 403.917 1343.79 434.699 1343.24 475.822C1342.26 548.317 1397.99 635.604 1458.9 645.05C1489.06 649.727 1532.7 622.454 1538.21 603.54C1539.75 598.29 1550.5 581.202 1538.8 566.001C1507.59 525.436 1458.43 533.641 1431.62 511.848C1412.32 496.164 1391.73 464.207 1393.65 391.258Z" fill="url(#paint43_linear_361_3078)"/>
<path d="M1660.03 624.841V624.859C1650.14 650.614 1620.38 667.566 1619.05 714.615C1618.25 742.205 1626.9 783.84 1632.52 810.859C1637.94 836.788 1640.72 843.309 1636.19 851.664C1625.28 871.782 1586.68 869.377 1509.51 864.602C1479.24 862.717 1466.09 860.347 1458.69 850.038C1453.57 842.911 1453.7 835.492 1455.09 826.184C1456.4 817.432 1458.79 807.002 1458.93 793.579C1459.27 762.149 1446.84 757.912 1430.8 707.161C1420.15 673.395 1409.9 640.998 1415.87 601.628C1418.73 582.756 1423.57 550.739 1448.36 533.493C1461.14 524.585 1479.53 523.893 1515.77 522.889C1560.58 521.661 1582.98 521.039 1600.33 528.46C1602.86 529.549 1655.77 553.022 1662.85 597.632C1664.54 608.27 1661.68 616.954 1660.03 624.841Z" fill="url(#paint44_linear_361_3078)"/>
<path d="M1712.81 390.678C1707.01 395.684 1701.22 400.689 1695.42 405.695C1701.93 427.714 1706.68 457.953 1692.08 482.928C1671.85 517.553 1555.3 523.341 1517.95 556.832C1499.5 573.374 1554.4 592.12 1545.67 645.548C1652.21 652.907 1737.86 590.883 1751.62 515.942C1762.97 454.164 1722.09 401.98 1712.81 390.678Z" fill="url(#paint45_linear_361_3078)"/>
<path d="M1514.49 477.701C1514.49 477.701 1516.57 494.271 1522.73 506.312C1528.3 517.194 1553.41 522.303 1558.58 524.417C1563.76 526.531 1550.05 535.021 1535.81 537.614C1521.58 540.208 1480.33 540.233 1472.5 535.384C1464.68 530.535 1478.04 529.876 1487.98 525.294C1497.92 520.712 1502.24 500.202 1499.7 491.253C1497.17 482.303 1514.49 477.701 1514.49 477.701Z" fill="url(#paint46_linear_361_3078)"/>
<path d="M1486.79 476.834C1482.58 471.819 1481.85 462.713 1486.07 456.707C1489.71 451.539 1495.81 450.505 1499.46 449.885C1510.04 448.089 1523.7 451.818 1528.9 461.367C1531.98 467.026 1526.63 479.409 1525.81 481.628C1524.87 484.136 1522.99 485.08 1521.31 487.029C1518.98 489.732 1515.33 494.027 1509.39 501.201C1508.79 499.209 1507.92 496.751 1506.59 494.106C1506.08 493.088 1504.03 489.115 1501.08 485.887C1495.17 479.416 1490.78 481.586 1486.79 476.834Z" fill="url(#paint47_linear_361_3078)"/>
<path d="M1518.08 494.971C1518.08 494.971 1511.7 506.824 1497.71 506.659C1485.2 506.511 1481.88 478.632 1489.53 472.272C1492.08 470.149 1497.37 469.043 1501.76 470.026C1504.35 470.607 1505.28 471.623 1509.53 472.489C1513.46 473.288 1514.53 472.801 1515.76 473.722C1517.28 474.876 1518.52 477.837 1516.51 486.146C1518.76 483.61 1521.57 482.533 1523.64 483.38C1523.98 483.516 1524.86 484.053 1525.39 484.91C1527.31 488.013 1524.6 492.249 1518.08 494.971Z" fill="url(#paint48_linear_361_3078)"/>
<path d="M1516.23 472.018C1515.65 472.499 1517.61 474.645 1517.92 477.815C1518.51 483.967 1512.66 491.702 1506.33 492.669C1502.59 493.239 1501.43 491.026 1495.17 490.699C1491.3 490.497 1488.12 491.158 1486.12 491.707C1484.52 498.574 1486.72 505.219 1491.41 508.107C1496.46 511.216 1502.57 508.842 1505.12 507.849C1506.83 507.185 1512.3 505.069 1514.94 499.804C1517.69 494.317 1514.55 491.266 1517.84 487.479C1519.49 485.57 1521.76 484.66 1523.82 481.024C1524.38 480.036 1524.74 479.169 1524.96 478.588C1521.56 475.348 1517.07 471.322 1516.23 472.018Z" fill="url(#paint49_linear_361_3078)"/>
<path d="M1490.78 493.973C1490.78 493.973 1493.55 495.237 1498.19 494.727C1498.42 494.702 1498.67 494.755 1498.71 494.871C1498.84 495.307 1495.96 497.447 1493.16 496.82C1491.18 496.374 1489.56 494.605 1489.8 494.12C1489.9 493.916 1490.34 493.919 1490.78 493.973Z" fill="url(#paint50_linear_361_3078)"/>
<path opacity="0.3" d="M1619.05 714.616C1618.25 742.206 1626.9 783.841 1632.52 810.859C1637.94 836.789 1640.72 843.31 1636.19 851.664C1625.28 871.782 1586.68 869.377 1509.51 864.603C1479.24 862.718 1466.09 860.348 1458.69 850.038C1453.57 842.912 1453.7 835.492 1455.09 826.185C1458.79 834.731 1466.36 844.192 1481.24 839.072C1506.32 830.423 1516.27 805.342 1546.11 818.315C1575.94 831.288 1594.54 830.423 1594.97 812.261C1595.4 794.099 1580.04 775.365 1601.39 751.149C1622.72 726.932 1575.99 625.378 1660.03 624.842V624.859C1650.14 650.615 1620.38 667.567 1619.05 714.616Z" fill="url(#paint51_linear_361_3078)"/>
<path d="M1619.37 145.077L1397.16 133.11C1378.86 132.125 1363.94 145.599 1363.94 163.21V284.968C1363.94 302.58 1378.86 317.224 1397.16 317.675L1469.81 319.465L1503.71 359.528C1505.76 361.944 1509.33 362.337 1511.85 360.423L1544.46 321.304L1619.37 323.15C1636.31 323.567 1649.98 310.27 1649.98 293.452V177.178C1649.98 160.36 1636.31 145.99 1619.37 145.077Z" fill="url(#paint52_linear_361_3078)"/>
<path d="M1623.79 141.539L1401.59 129.572C1383.28 128.587 1368.37 142.06 1368.37 159.672V281.43C1368.37 299.041 1383.28 313.686 1401.59 314.137L1474.23 315.927L1507.31 355.012C1509.66 357.793 1513.94 357.825 1516.33 355.08L1548.88 317.766L1623.79 319.611C1640.74 320.029 1654.4 306.732 1654.4 289.913V173.64C1654.4 156.821 1640.74 142.452 1623.79 141.539Z" fill="url(#paint53_linear_361_3078)"/>
<path d="M1587.73 213.929C1586.51 190.884 1570.84 171.522 1551.34 169.071C1535.83 167.121 1522.03 175.89 1514.68 190.077C1507.31 175.192 1493.38 165.044 1477.58 165.475C1457.48 166.023 1441.15 184.274 1439.86 207.759C1439.01 223.278 1444.64 237.541 1453.89 247.157L1510.63 293.372C1513.08 295.368 1516.28 295.458 1518.72 293.602L1574.3 251.435C1583.17 242.668 1588.54 229.147 1587.73 213.929Z" fill="white"/>
</g>
<defs>
<linearGradient id="paint0_linear_361_3078" x1="2002.43" y1="1705.63" x2="839.143" y2="213.906" gradientUnits="userSpaceOnUse">
<stop stop-color="#B37CFF"/>
<stop offset="1" stop-color="#F895E7"/>
</linearGradient>
<linearGradient id="paint1_linear_361_3078" x1="1561.65" y1="456.372" x2="1133.18" y2="1075.75" gradientUnits="userSpaceOnUse">
<stop offset="0.0036" stop-color="#E38DDD"/>
<stop offset="1" stop-color="#9571F6"/>
</linearGradient>
<linearGradient id="paint2_linear_361_3078" x1="1265.56" y1="97.369" x2="1160.84" y2="830.219" gradientUnits="userSpaceOnUse">
<stop offset="0.0036" stop-color="#E38DDD"/>
<stop offset="1" stop-color="#9571F6"/>
</linearGradient>
<linearGradient id="paint3_linear_361_3078" x1="1365.94" y1="395.24" x2="1081.78" y2="1016.12" gradientUnits="userSpaceOnUse">
<stop stop-color="#FCB148"/>
<stop offset="0.0521" stop-color="#FDBA46"/>
<stop offset="0.1424" stop-color="#FFC244"/>
<stop offset="0.3183" stop-color="#FFC444"/>
<stop offset="0.4849" stop-color="#FDB946"/>
<stop offset="0.7754" stop-color="#F99C4D"/>
<stop offset="0.8658" stop-color="#F8924F"/>
<stop offset="1" stop-color="#F8924F"/>
</linearGradient>
<linearGradient id="paint4_linear_361_3078" x1="669.541" y1="773.025" x2="1573.16" y2="773.025" gradientUnits="userSpaceOnUse">
<stop offset="0.0036" stop-color="#6165D7"/>
<stop offset="1" stop-color="#AA80F9"/>
</linearGradient>
<linearGradient id="paint5_linear_361_3078" x1="669.541" y1="786.153" x2="1190.64" y2="786.153" gradientUnits="userSpaceOnUse">
<stop offset="0.0036" stop-color="#6165D7"/>
<stop offset="1" stop-color="#AA80F9"/>
</linearGradient>
<linearGradient id="paint6_linear_361_3078" x1="1083.46" y1="129.398" x2="985.789" y2="486.122" gradientUnits="userSpaceOnUse">
<stop offset="0.0036" stop-color="#6165D7"/>
<stop offset="1" stop-color="#AA80F9"/>
</linearGradient>
<linearGradient id="paint7_linear_361_3078" x1="1083.46" y1="165.951" x2="985.789" y2="522.675" gradientUnits="userSpaceOnUse">
<stop offset="0.0036" stop-color="#6165D7"/>
<stop offset="1" stop-color="#AA80F9"/>
</linearGradient>
<linearGradient id="paint8_linear_361_3078" x1="876.752" y1="226.961" x2="1309.48" y2="226.961" gradientUnits="userSpaceOnUse">
<stop offset="0.0036" stop-color="#6165D7"/>
<stop offset="1" stop-color="#AA80F9"/>
</linearGradient>
<linearGradient id="paint9_linear_361_3078" x1="946.158" y1="345.365" x2="1223.09" y2="345.365" gradientUnits="userSpaceOnUse">
<stop stop-color="#444B8C"/>
<stop offset="0.9964" stop-color="#26264F"/>
</linearGradient>
<linearGradient id="paint10_linear_361_3078" x1="876.766" y1="248.802" x2="1262.81" y2="248.802" gradientUnits="userSpaceOnUse">
<stop offset="0.0036" stop-color="#6165D7"/>
<stop offset="1" stop-color="#AA80F9"/>
</linearGradient>
<linearGradient id="paint11_linear_361_3078" x1="1084.52" y1="538.347" x2="1222.21" y2="1054.38" gradientUnits="userSpaceOnUse">
<stop offset="0.0036" stop-color="#EBEFF2"/>
<stop offset="1" stop-color="white"/>
</linearGradient>
<linearGradient id="paint12_linear_361_3078" x1="647.969" y1="300.217" x2="456.988" y2="361.509" gradientUnits="userSpaceOnUse">
<stop stop-color="#FCB148"/>
<stop offset="0.0521" stop-color="#FDBA46"/>
<stop offset="0.1424" stop-color="#FFC244"/>
<stop offset="0.3183" stop-color="#FFC444"/>
<stop offset="0.4849" stop-color="#FDB946"/>
<stop offset="0.7754" stop-color="#F99C4D"/>
<stop offset="0.8658" stop-color="#F8924F"/>
<stop offset="1" stop-color="#F8924F"/>
</linearGradient>
<linearGradient id="paint13_linear_361_3078" x1="802.462" y1="110.115" x2="631.965" y2="486.261" gradientUnits="userSpaceOnUse">
<stop stop-color="#FFDB44"/>
<stop offset="1" stop-color="#FEEF06"/>
</linearGradient>
<linearGradient id="paint14_linear_361_3078" x1="771.099" y1="507.284" x2="738.201" y2="327.566" gradientUnits="userSpaceOnUse">
<stop stop-color="#FCB148"/>
<stop offset="0.0521" stop-color="#FDBA46"/>
<stop offset="0.1424" stop-color="#FFC244"/>
<stop offset="0.3183" stop-color="#FFC444"/>
<stop offset="0.4849" stop-color="#FDB946"/>
<stop offset="0.7754" stop-color="#F99C4D"/>
<stop offset="0.8658" stop-color="#F8924F"/>
<stop offset="1" stop-color="#F8924F"/>
</linearGradient>
<linearGradient id="paint15_linear_361_3078" x1="701.35" y1="216.39" x2="836.925" y2="504.19" gradientUnits="userSpaceOnUse">
<stop stop-color="#FCB148"/>
<stop offset="0.0521" stop-color="#FDBA46"/>
<stop offset="0.1424" stop-color="#FFC244"/>
<stop offset="0.3183" stop-color="#FFC444"/>
<stop offset="0.4849" stop-color="#FDB946"/>
<stop offset="0.7754" stop-color="#F99C4D"/>
<stop offset="0.8658" stop-color="#F8924F"/>
<stop offset="1" stop-color="#F8924F"/>
</linearGradient>
<linearGradient id="paint16_linear_361_3078" x1="695.948" y1="154.459" x2="764.12" y2="409.955" gradientUnits="userSpaceOnUse">
<stop stop-color="#FFDB44"/>
<stop offset="1" stop-color="#FEEF06"/>
</linearGradient>
<linearGradient id="paint17_linear_361_3078" x1="661.464" y1="235.015" x2="796.766" y2="522.235" gradientUnits="userSpaceOnUse">
<stop stop-color="#FCB148"/>
<stop offset="0.0521" stop-color="#FDBA46"/>
<stop offset="0.1424" stop-color="#FFC244"/>
<stop offset="0.3183" stop-color="#FFC444"/>
<stop offset="0.4849" stop-color="#FDB946"/>
<stop offset="0.7754" stop-color="#F99C4D"/>
<stop offset="0.8658" stop-color="#F8924F"/>
<stop offset="1" stop-color="#F8924F"/>
</linearGradient>
<linearGradient id="paint18_linear_361_3078" x1="858.165" y1="1356.14" x2="823.007" y2="1234.18" gradientUnits="userSpaceOnUse">
<stop stop-color="#444B8C"/>
<stop offset="0.9964" stop-color="#26264F"/>
</linearGradient>
<linearGradient id="paint19_linear_361_3078" x1="826.738" y1="1332.05" x2="829.431" y2="1136.93" gradientUnits="userSpaceOnUse">
<stop stop-color="#FFC444"/>
<stop offset="0.9964" stop-color="#F36F56"/>
</linearGradient>
<linearGradient id="paint20_linear_361_3078" x1="898.583" y1="1333.05" x2="901.276" y2="1137.92" gradientUnits="userSpaceOnUse">
<stop stop-color="#FFC444"/>
<stop offset="0.9964" stop-color="#F36F56"/>
</linearGradient>
<linearGradient id="paint21_linear_361_3078" x1="912.048" y1="1340.61" x2="876.889" y2="1218.65" gradientUnits="userSpaceOnUse">
<stop stop-color="#444B8C"/>
<stop offset="0.9964" stop-color="#26264F"/>
</linearGradient>
<linearGradient id="paint22_linear_361_3078" x1="815.691" y1="910.781" x2="792.206" y2="1313.73" gradientUnits="userSpaceOnUse">
<stop stop-color="#311944"/>
<stop offset="1" stop-color="#893976"/>
</linearGradient>
<linearGradient id="paint23_linear_361_3078" x1="815.691" y1="910.78" x2="792.206" y2="1313.72" gradientUnits="userSpaceOnUse">
<stop stop-color="#311944"/>
<stop offset="1" stop-color="#893976"/>
</linearGradient>
<linearGradient id="paint24_linear_361_3078" x1="1086.49" y1="1086.08" x2="758.177" y2="1066.61" gradientUnits="userSpaceOnUse">
<stop stop-color="#311944"/>
<stop offset="1" stop-color="#893976"/>
</linearGradient>
<linearGradient id="paint25_linear_361_3078" x1="599.076" y1="1165.44" x2="838.9" y2="670.886" gradientUnits="userSpaceOnUse">
<stop stop-color="#FF9085"/>
<stop offset="1" stop-color="#FB6FBB"/>
</linearGradient>
<linearGradient id="paint26_linear_361_3078" x1="956.771" y1="612.677" x2="707.838" y2="946.158" gradientUnits="userSpaceOnUse">
<stop stop-color="#FF9085"/>
<stop offset="1" stop-color="#FB6FBB"/>
</linearGradient>
<linearGradient id="paint27_linear_361_3078" x1="864.705" y1="523.23" x2="821.743" y2="590.63" gradientUnits="userSpaceOnUse">
<stop stop-color="#FFC444"/>
<stop offset="0.9964" stop-color="#F36F56"/>
</linearGradient>
<linearGradient id="paint28_linear_361_3078" x1="1019.76" y1="630.644" x2="933.165" y2="766.498" gradientUnits="userSpaceOnUse">
<stop stop-color="#444B8C"/>
<stop offset="0.9964" stop-color="#26264F"/>
</linearGradient>
<linearGradient id="paint29_linear_361_3078" x1="1011.4" y1="634.125" x2="938.222" y2="771.522" gradientUnits="userSpaceOnUse">
<stop stop-color="#FFC444"/>
<stop offset="0.9964" stop-color="#F36F56"/>
</linearGradient>
<linearGradient id="paint30_linear_361_3078" x1="1011.23" y1="621.735" x2="1031.97" y2="580.202" gradientUnits="userSpaceOnUse">
<stop stop-color="#AA80F9"/>
<stop offset="0.9964" stop-color="#6165D7"/>
</linearGradient>
<linearGradient id="paint31_linear_361_3078" x1="1036.93" y1="685.044" x2="1016.16" y2="717.642" gradientUnits="userSpaceOnUse">
<stop stop-color="#FFC444"/>
<stop offset="0.9964" stop-color="#F36F56"/>
</linearGradient>
<linearGradient id="paint32_linear_361_3078" x1="702.952" y1="1215.82" x2="942.781" y2="721.265" gradientUnits="userSpaceOnUse">
<stop stop-color="#FF9085"/>
<stop offset="1" stop-color="#FB6FBB"/>
</linearGradient>
<linearGradient id="paint33_linear_361_3078" x1="627.384" y1="804.75" x2="802.288" y2="444.073" gradientUnits="userSpaceOnUse">
<stop stop-color="#444B8C"/>
<stop offset="0.9964" stop-color="#26264F"/>
</linearGradient>
<linearGradient id="paint34_linear_361_3078" x1="1378.46" y1="377.457" x2="1403.7" y2="377.457" gradientUnits="userSpaceOnUse">
<stop stop-color="#FFC444"/>
<stop offset="0.9964" stop-color="#F36F56"/>
</linearGradient>
<linearGradient id="paint35_linear_361_3078" x1="1709.93" y1="382.143" x2="1683.12" y2="387.016" gradientUnits="userSpaceOnUse">
<stop stop-color="#FFC444"/>
<stop offset="0.9964" stop-color="#F36F56"/>
</linearGradient>
<linearGradient id="paint36_linear_361_3078" x1="1451.72" y1="1107.25" x2="1520.41" y2="1355.16" gradientUnits="userSpaceOnUse">
<stop stop-color="#311944"/>
<stop offset="1" stop-color="#893976"/>
</linearGradient>
<linearGradient id="paint37_linear_361_3078" x1="1512.86" y1="1282.52" x2="1513.85" y2="1198.89" gradientUnits="userSpaceOnUse">
<stop stop-color="#FFC444"/>
<stop offset="0.9964" stop-color="#F36F56"/>
</linearGradient>
<linearGradient id="paint38_linear_361_3078" x1="1537.72" y1="1083.41" x2="1606.42" y2="1331.32" gradientUnits="userSpaceOnUse">
<stop stop-color="#311944"/>
<stop offset="1" stop-color="#893976"/>
</linearGradient>
<linearGradient id="paint39_linear_361_3078" x1="1609.56" y1="1283.67" x2="1610.56" y2="1200.04" gradientUnits="userSpaceOnUse">
<stop stop-color="#FFC444"/>
<stop offset="0.9964" stop-color="#F36F56"/>
</linearGradient>
<linearGradient id="paint40_linear_361_3078" x1="1464.65" y1="1013.55" x2="1553.69" y2="1013.55" gradientUnits="userSpaceOnUse">
<stop stop-color="#444B8C"/>
<stop offset="0.9964" stop-color="#26264F"/>
</linearGradient>
<linearGradient id="paint41_linear_361_3078" x1="1464.65" y1="1013.55" x2="1553.69" y2="1013.55" gradientUnits="userSpaceOnUse">
<stop stop-color="#444B8C"/>
<stop offset="0.9964" stop-color="#26264F"/>
</linearGradient>
<linearGradient id="paint42_linear_361_3078" x1="1514.92" y1="1026.27" x2="1650.09" y2="1026.27" gradientUnits="userSpaceOnUse">
<stop stop-color="#444B8C"/>
<stop offset="0.9964" stop-color="#26264F"/>
</linearGradient>
<linearGradient id="paint43_linear_361_3078" x1="1676.23" y1="741.864" x2="1241.03" y2="367.808" gradientUnits="userSpaceOnUse">
<stop stop-color="#FFC444"/>
<stop offset="0.9964" stop-color="#F36F56"/>
</linearGradient>
<linearGradient id="paint44_linear_361_3078" x1="1528.29" y1="1114.27" x2="1542.13" y2="451.776" gradientUnits="userSpaceOnUse">
<stop stop-color="#FFC444"/>
<stop offset="0.9964" stop-color="#F36F56"/>
</linearGradient>
<linearGradient id="paint45_linear_361_3078" x1="1694.71" y1="1119.91" x2="1627.15" y2="460.728" gradientUnits="userSpaceOnUse">
<stop stop-color="#FFC444"/>
<stop offset="0.9964" stop-color="#F36F56"/>
</linearGradient>
<linearGradient id="paint46_linear_361_3078" x1="1493.42" y1="560.103" x2="1541.9" y2="488.777" gradientUnits="userSpaceOnUse">
<stop stop-color="#FFC444"/>
<stop offset="0.9964" stop-color="#F36F56"/>
</linearGradient>
<linearGradient id="paint47_linear_361_3078" x1="1536.22" y1="532.47" x2="1500.73" y2="453.948" gradientUnits="userSpaceOnUse">
<stop stop-color="#311944"/>
<stop offset="1" stop-color="#6B3976"/>
</linearGradient>
<linearGradient id="paint48_linear_361_3078" x1="1505.72" y1="476.062" x2="1505.79" y2="593.036" gradientUnits="userSpaceOnUse">
<stop stop-color="#FFC444"/>
<stop offset="0.9964" stop-color="#F36F56"/>
</linearGradient>
<linearGradient id="paint49_linear_361_3078" x1="1526.78" y1="536.781" x2="1491.25" y2="458.177" gradientUnits="userSpaceOnUse">
<stop stop-color="#311944"/>
<stop offset="1" stop-color="#6B3976"/>
</linearGradient>
<linearGradient id="paint50_linear_361_3078" x1="1493.5" y1="490.007" x2="1495.87" y2="504.559" gradientUnits="userSpaceOnUse">
<stop stop-color="#FFC444"/>
<stop offset="1" stop-color="#F36F56"/>
</linearGradient>
<linearGradient id="paint51_linear_361_3078" x1="1454.27" y1="746.377" x2="1660.03" y2="746.377" gradientUnits="userSpaceOnUse">
<stop stop-color="#FFC444"/>
<stop offset="0.9964" stop-color="#F36F56"/>
</linearGradient>
<linearGradient id="paint52_linear_361_3078" x1="1432.69" y1="111.644" x2="1551.41" y2="302.514" gradientUnits="userSpaceOnUse">
<stop stop-color="#311944"/>
<stop offset="1" stop-color="#893976"/>
</linearGradient>
<linearGradient id="paint53_linear_361_3078" x1="1437.11" y1="108.106" x2="1555.83" y2="298.975" gradientUnits="userSpaceOnUse">
<stop stop-color="#FF9085"/>
<stop offset="1" stop-color="#FB6FBB"/>
</linearGradient>
<clipPath id="clip0_361_3078">
<rect width="2300" height="1332" fill="white"/>
</clipPath>
</defs>
</svg>
