<svg width="20" height="20" viewBox="0 0 20 20" fill="none" xmlns="http://www.w3.org/2000/svg">
<path d="M10 2C5.58172 2 2 5.58172 2 10C2 14.4183 5.58172 18 10 18C14.4183 18 18 14.4183 18 10C18 5.58172 14.4183 2 10 2ZM0 10C0 4.47715 4.47715 0 10 0C15.5228 0 20 4.47715 20 10C20 15.5228 15.5228 20 10 20C4.47715 20 0 15.5228 0 10Z" fill="#7011F5"/>
<path d="M14.6644 6.7526C15.0772 7.11952 15.1143 7.75159 14.7474 8.16437L9.41409 14.1644C9.22432 14.3779 8.95232 14.5 8.66668 14.5C8.38104 14.5 8.10904 14.3779 7.91927 14.1644L5.2526 11.1644C4.88568 10.7516 4.92286 10.1195 5.33565 9.7526C5.74843 9.38568 6.3805 9.42286 6.74742 9.83565L8.66668 11.9948L13.2526 6.83565C13.6195 6.42286 14.2516 6.38568 14.6644 6.7526Z" fill="#7011F5"/>
</svg>
