<svg width="2300" height="1332" viewBox="0 0 2300 1332" fill="none" xmlns="http://www.w3.org/2000/svg">
<g clip-path="url(#clip0_360_947)">
<path opacity="0.4" d="M580.701 19.5183C547.998 29.385 499.091 74.2356 456.204 145.772C403.451 233.766 372.106 241.475 297.475 198.122C222.845 154.768 135.174 183.894 71.7236 299.33C8.27285 414.766 119.424 504.513 222.445 645.145C325.465 785.775 119.773 749.4 53.1399 913.653C-13.4941 1077.91 80.4814 1262.17 389.683 1259.98C699.308 1257.78 1167.36 1261.99 1167.36 1261.99C1167.36 1261.99 1601.42 1300.82 1759.49 1200.49C1917.55 1100.16 1723.13 1051.37 1870.14 987.224C2017.15 923.077 2170.6 918.745 2106.31 752.934C2042.03 587.124 1951.06 621.462 1892.35 577.127C1833.63 532.791 1798.32 484.664 1882.27 405.759C1966.21 326.854 2030.48 273.69 1988.04 169.148C1927.15 19.1624 1779.39 -0.189287 1617.06 63.3835C1454.73 126.955 1427.17 208.36 1159.25 161.233C1009.82 134.948 859.196 -64.4988 580.701 19.5183Z" fill="url(#paint0_linear_360_947)"/>
<path opacity="0.3" d="M1529.24 135.936C1570.04 152.35 1606.23 179.913 1640.18 220.841C1668.64 255.149 1692.45 307.293 1747.31 309.885C1802.42 312.489 1844.27 266.867 1900.63 271.69C1962.52 276.986 2009.95 330.311 2037.85 374.87C2100.94 475.619 1990.43 553.947 1888 676.685C1785.57 799.423 1990.08 767.675 2056.33 911.031C2122.58 1054.39 2029.15 1215.21 1721.72 1213.29C1413.88 1211.37 948.519 1215.05 948.519 1215.05C948.519 1215.05 516.954 1248.94 359.798 1161.37C202.644 1073.81 395.946 1031.23 249.781 975.241C103.617 919.256 -48.9482 915.475 14.967 770.761C78.8823 626.048 169.33 656.016 227.703 617.322C286.076 578.627 321.189 536.623 237.724 467.758C154.266 398.898 90.3767 352.501 132.552 261.269C227.635 55.6032 471.691 176.185 635.84 229.599C898.952 315.215 1093.53 160.951 1344.45 123.113C1417 112.171 1476.92 114.889 1529.24 135.936Z" fill="url(#paint1_linear_360_947)"/>
<path d="M785.888 178.116C824.089 178.116 855.057 145.926 855.057 106.219C855.057 66.5112 824.089 34.3218 785.888 34.3218C747.687 34.3218 716.719 66.5112 716.719 106.219C716.719 145.926 747.687 178.116 785.888 178.116Z" fill="url(#paint2_linear_360_947)"/>
<path d="M768.693 82.4368C768.693 80.5838 767.248 79.0815 765.465 79.0815H754.164C752.381 79.0815 750.936 80.5838 750.936 82.4368V136.018C750.936 137.871 752.381 139.373 754.164 139.373H765.465C767.248 139.373 768.693 137.871 768.693 136.018V82.4368Z" fill="white"/>
<path d="M808.769 79.0813H797.102V64.6573C797.102 60.0041 794.74 56.9336 790.263 56.9336H789.977C785.5 56.9336 781.871 60.3549 781.871 65.0081L778.008 79.3681C776.225 79.3681 773.428 80.695 773.428 82.548V137.586C773.428 139.439 777.578 141.834 779.361 141.834H781.872H808.77C815.467 141.834 820.778 135.298 820.778 128.337V91.7957C820.778 84.8344 815.466 79.0813 808.769 79.0813Z" fill="white"/>
<path d="M395.641 310.355C420.199 310.355 440.108 289.662 440.108 264.135C440.108 238.608 420.199 217.914 395.641 217.914C371.082 217.914 351.174 238.608 351.174 264.135C351.174 289.662 371.082 310.355 395.641 310.355Z" fill="url(#paint3_linear_360_947)"/>
<path d="M384.587 248.846C384.587 247.655 383.658 246.689 382.511 246.689H375.246C374.1 246.689 373.171 247.655 373.171 248.846V283.292C373.171 284.483 374.1 285.449 375.246 285.449H382.511C383.658 285.449 384.587 284.483 384.587 283.292V248.846Z" fill="white"/>
<path d="M410.35 246.69H402.85V237.416C402.85 234.425 401.331 232.452 398.454 232.452H398.269C395.391 232.452 393.058 234.651 393.058 237.642L390.574 246.874C389.428 246.874 387.63 247.727 387.63 248.917V284.3C387.63 285.491 390.298 287.031 391.444 287.031H393.058H410.35C414.655 287.031 418.071 282.829 418.071 278.355V254.863C418.071 250.389 414.655 246.69 410.35 246.69Z" fill="white"/>
<path d="M1656.96 164.532C1681.51 164.532 1701.42 143.838 1701.42 118.311C1701.42 92.784 1681.51 72.0903 1656.96 72.0903C1632.4 72.0903 1612.49 92.784 1612.49 118.311C1612.49 143.838 1632.4 164.532 1656.96 164.532Z" fill="url(#paint4_linear_360_947)"/>
<path d="M1645.9 103.022C1645.9 101.83 1644.97 100.864 1643.83 100.864H1636.56C1635.41 100.864 1634.48 101.83 1634.48 103.022V137.467C1634.48 138.659 1635.41 139.624 1636.56 139.624H1643.83C1644.97 139.624 1645.9 138.659 1645.9 137.467V103.022Z" fill="white"/>
<path d="M1671.67 100.865H1664.16V91.5918C1664.16 88.6007 1662.65 86.627 1659.77 86.627H1659.58C1656.71 86.627 1654.37 88.8267 1654.37 91.8177L1651.89 101.05C1650.74 101.05 1648.95 101.903 1648.95 103.094V138.476C1648.95 139.668 1651.61 141.207 1652.76 141.207H1654.37H1671.67C1675.97 141.207 1679.39 137.006 1679.39 132.531V109.039C1679.39 104.564 1675.97 100.865 1671.67 100.865Z" fill="white"/>
<path d="M1658.42 476.641C1682.98 476.641 1702.88 455.947 1702.88 430.42C1702.88 404.893 1682.98 384.199 1658.42 384.199C1633.86 384.199 1613.95 404.893 1613.95 430.42C1613.95 455.947 1633.86 476.641 1658.42 476.641Z" fill="url(#paint5_linear_360_947)"/>
<path d="M1647.36 415.131C1647.36 413.939 1646.43 412.973 1645.29 412.973H1638.02C1636.88 412.973 1635.95 413.939 1635.95 415.131V449.576C1635.95 450.767 1636.88 451.733 1638.02 451.733H1645.29C1646.43 451.733 1647.36 450.767 1647.36 449.576V415.131Z" fill="white"/>
<path d="M1673.13 412.974H1665.62V403.701C1665.62 400.71 1664.11 398.736 1661.23 398.736H1661.04C1658.17 398.736 1655.83 400.936 1655.83 403.927L1653.35 413.159C1652.2 413.159 1650.41 414.012 1650.41 415.203V450.585C1650.41 451.776 1653.07 453.316 1654.22 453.316H1655.83H1673.12C1677.43 453.316 1680.84 449.115 1680.84 444.64V421.148C1680.85 416.673 1677.43 412.974 1673.13 412.974Z" fill="white"/>
<path d="M1232.13 231.163C1256.69 231.163 1276.6 210.469 1276.6 184.942C1276.6 159.415 1256.69 138.721 1232.13 138.721C1207.58 138.721 1187.67 159.415 1187.67 184.942C1187.67 210.469 1207.58 231.163 1232.13 231.163Z" fill="url(#paint6_linear_360_947)"/>
<path d="M1221.08 169.654C1221.08 168.462 1220.15 167.496 1219 167.496H1211.74C1210.59 167.496 1209.66 168.462 1209.66 169.654V204.099C1209.66 205.29 1210.59 206.256 1211.74 206.256H1219C1220.15 206.256 1221.08 205.29 1221.08 204.099V169.654Z" fill="white"/>
<path d="M1246.84 167.497H1239.34V158.224C1239.34 155.233 1237.82 153.259 1234.95 153.259H1234.76C1231.88 153.259 1229.55 155.459 1229.55 158.45L1227.07 167.681C1225.92 167.681 1224.12 168.534 1224.12 169.725V205.107C1224.12 206.298 1226.79 207.838 1227.94 207.838H1229.55H1246.84C1251.15 207.838 1254.56 203.636 1254.56 199.162V175.671C1254.56 171.196 1251.15 167.497 1246.84 167.497Z" fill="white"/>
<path d="M587.374 337.127C618.365 337.127 643.489 311.012 643.489 278.798C643.489 246.584 618.365 220.47 587.374 220.47C556.382 220.47 531.258 246.584 531.258 278.798C531.258 311.012 556.382 337.127 587.374 337.127Z" fill="url(#paint7_linear_360_947)"/>
<path d="M611.436 262.556C605.348 256.336 595.851 258.207 589.314 263.912C588.377 264.73 587.019 264.739 586.068 263.939C579.444 258.354 569.957 256.654 563.974 262.981C557.477 269.852 557.568 280.896 564.178 287.649L586.295 310.245C587.299 311.272 588.915 311.257 589.903 310.212L611.642 287.224C618.139 280.353 618.047 269.309 611.436 262.556Z" fill="white"/>
<path d="M1903 175.428C1933.99 175.428 1959.12 149.314 1959.12 117.1C1959.12 84.886 1933.99 58.7715 1903 58.7715C1872.01 58.7715 1846.89 84.886 1846.89 117.1C1846.89 149.314 1872.01 175.428 1903 175.428Z" fill="url(#paint8_linear_360_947)"/>
<path d="M1927.07 100.858C1920.98 94.6376 1911.48 96.5092 1904.94 102.214C1904.01 103.032 1902.65 103.041 1901.7 102.24C1895.07 96.6546 1885.59 94.9543 1879.6 101.282C1873.11 108.153 1873.2 119.197 1879.81 125.949L1901.92 148.546C1902.93 149.573 1904.54 149.557 1905.53 148.514L1927.27 125.525C1933.77 118.656 1933.68 107.612 1927.07 100.858Z" fill="white"/>
<path d="M238.118 229.637C261.866 229.637 281.117 209.626 281.117 184.942C281.117 160.258 261.866 140.247 238.118 140.247C214.37 140.247 195.119 160.258 195.119 184.942C195.119 209.626 214.37 229.637 238.118 229.637Z" fill="url(#paint9_linear_360_947)"/>
<path d="M256.557 172.496C251.892 167.73 244.615 169.164 239.605 173.535C238.887 174.162 237.846 174.169 237.118 173.556C232.042 169.276 224.773 167.974 220.189 172.823C215.211 178.088 215.28 186.55 220.345 191.724L237.292 209.039C238.062 209.825 239.3 209.814 240.057 209.015L256.714 191.399C261.692 186.133 261.622 177.671 256.557 172.496Z" fill="white"/>
<path d="M1581.89 308.829C1605.64 308.829 1624.89 288.819 1624.89 264.135C1624.89 239.45 1605.64 219.44 1581.89 219.44C1558.14 219.44 1538.89 239.45 1538.89 264.135C1538.89 288.819 1558.14 308.829 1581.89 308.829Z" fill="url(#paint10_linear_360_947)"/>
<path d="M1600.33 251.69C1595.66 246.923 1588.39 248.357 1583.38 252.729C1582.66 253.355 1581.62 253.362 1580.89 252.749C1575.82 248.47 1568.55 247.168 1563.96 252.016C1558.98 257.281 1559.05 265.743 1564.12 270.918L1581.07 288.233C1581.84 289.019 1583.07 289.008 1583.83 288.208L1600.49 270.593C1605.46 265.327 1605.4 256.864 1600.33 251.69Z" fill="white"/>
<path d="M1413.98 184.125C1452.18 184.125 1483.15 151.935 1483.15 112.228C1483.15 72.52 1452.18 40.3306 1413.98 40.3306C1375.78 40.3306 1344.81 72.52 1344.81 112.228C1344.81 151.935 1375.78 184.125 1413.98 184.125Z" fill="url(#paint11_linear_360_947)"/>
<path d="M1433.46 88.7522C1433.46 99.8767 1424.78 111.887 1414.08 111.887C1403.38 111.887 1394.7 99.8777 1394.7 88.7522C1394.7 77.6278 1403.38 69.7349 1414.08 69.7349C1424.78 69.7359 1433.46 77.6278 1433.46 88.7522Z" fill="white"/>
<path d="M1390.03 154.719H1437.34C1442.32 154.719 1446.73 151.374 1448.25 146.443L1450.79 138.172C1452.66 132.117 1449.62 125.561 1443.88 123.378C1424.63 116.061 1404.72 117 1384.33 124.054C1378.61 126.03 1375.44 132.381 1377.02 138.422L1378.98 145.933C1380.33 151.119 1384.86 154.719 1390.03 154.719Z" fill="white"/>
<path d="M1798.04 347.525C1829.26 347.525 1854.57 321.22 1854.57 288.771C1854.57 256.322 1829.26 230.018 1798.04 230.018C1766.83 230.018 1741.52 256.322 1741.52 288.771C1741.52 321.22 1766.83 347.525 1798.04 347.525Z" fill="url(#paint12_linear_360_947)"/>
<path d="M1813.96 269.588C1813.96 278.679 1806.87 288.494 1798.13 288.494C1789.38 288.494 1782.29 278.68 1782.29 269.588C1782.29 260.497 1789.38 254.047 1798.13 254.047C1806.87 254.047 1813.96 260.497 1813.96 269.588Z" fill="white"/>
<path d="M1778.47 323.495H1817.13C1821.2 323.495 1824.8 320.761 1826.04 316.732L1828.13 309.974C1829.65 305.026 1827.17 299.668 1822.48 297.884C1806.74 291.905 1790.48 292.671 1773.81 298.436C1769.14 300.051 1766.55 305.241 1767.84 310.177L1769.44 316.315C1770.55 320.553 1774.25 323.495 1778.47 323.495Z" fill="white"/>
<path d="M538.348 143.192C570.832 143.192 597.167 115.819 597.167 82.053C597.167 48.2869 570.832 20.9141 538.348 20.9141C505.863 20.9141 479.528 48.2869 479.528 82.053C479.528 115.819 505.863 143.192 538.348 143.192Z" fill="url(#paint13_linear_360_947)"/>
<path d="M554.914 62.0907C554.914 71.5509 547.536 81.7643 538.435 81.7643C529.334 81.7643 521.956 71.5509 521.956 62.0907C521.956 52.6305 529.334 45.9189 538.435 45.9189C547.536 45.9189 554.914 52.6305 554.914 62.0907Z" fill="white"/>
<path d="M517.984 118.187H558.213C562.447 118.187 566.196 115.342 567.487 111.149L569.652 104.116C571.237 98.967 568.66 93.3924 563.774 91.5352C547.403 85.3137 530.474 86.1113 513.132 92.1099C508.274 93.7906 505.578 99.1909 506.918 104.328L508.585 110.715C509.738 115.124 513.588 118.187 517.984 118.187Z" fill="white"/>
<path d="M505.918 463.998C527.035 463.998 544.153 446.205 544.153 424.255C544.153 402.305 527.035 384.512 505.918 384.512C484.801 384.512 467.682 402.305 467.682 424.255C467.682 446.205 484.801 463.998 505.918 463.998Z" fill="url(#paint14_linear_360_947)"/>
<path d="M516.688 411.279C516.688 417.428 511.891 424.067 505.975 424.067C500.059 424.067 495.263 417.428 495.263 411.279C495.263 405.129 500.059 400.766 505.975 400.766C511.891 400.766 516.688 405.129 516.688 411.279Z" fill="white"/>
<path d="M492.68 447.744H518.831C521.583 447.744 524.021 445.895 524.86 443.169L526.267 438.597C527.298 435.25 525.622 431.626 522.447 430.419C511.804 426.374 500.8 426.893 489.527 430.792C486.368 431.885 484.616 435.396 485.488 438.735L486.572 442.886C487.32 445.754 489.824 447.744 492.68 447.744Z" fill="white"/>
<path d="M965.036 223.949C985.987 223.949 1002.97 206.294 1002.97 184.516C1002.97 162.738 985.987 145.083 965.036 145.083C944.084 145.083 927.099 162.738 927.099 184.516C927.099 206.294 944.084 223.949 965.036 223.949Z" fill="url(#paint15_linear_360_947)"/>
<path d="M975.72 171.641C975.72 177.742 970.961 184.329 965.091 184.329C959.221 184.329 954.462 177.742 954.462 171.641C954.462 165.539 959.221 161.21 965.091 161.21C970.961 161.21 975.72 165.539 975.72 171.641Z" fill="white"/>
<path d="M951.901 207.821H977.847C980.579 207.821 982.997 205.987 983.829 203.283L985.225 198.747C986.248 195.426 984.585 191.83 981.435 190.632C970.875 186.62 959.956 187.134 948.772 191.003C945.638 192.086 943.9 195.57 944.764 198.883L945.839 203.002C946.582 205.847 949.066 207.821 951.901 207.821Z" fill="white"/>
<path d="M1802.73 876.584C1795.34 860.576 1790.05 843.818 1788.82 825.571C1785.71 779.597 1811.42 737.259 1830.31 697.676C1847.67 661.295 1860.57 607.085 1801.99 611.91C1755.32 615.753 1700.46 664.096 1694.2 714.506C1686.79 774.168 1714.73 849.404 1681.61 903.6C1635.26 979.417 1601.83 962.042 1601.83 1089.98C1601.83 1144.65 1630.96 1174.81 1664.33 1191.42C1716.99 1217.63 1779.79 1207.04 1821.76 1164.83C1858.83 1127.54 1880.87 1073.93 1873.41 1020.11C1865.89 965.75 1824.87 924.527 1802.73 876.584Z" fill="url(#paint16_linear_360_947)"/>
<path d="M1763.57 1288.94C1762.41 1288.94 1761.35 1288.12 1761.05 1286.89C1732 1166.36 1716.19 1057.09 1714.05 962.123C1712.34 886.033 1719.35 818.873 1734.9 762.507C1748.77 712.208 1767.02 679.958 1779.89 661.761C1793.95 641.878 1804.65 634.046 1805.1 633.722C1806.28 632.874 1807.9 633.175 1808.72 634.402C1809.53 635.626 1809.24 637.308 1808.07 638.16C1807.96 638.236 1797.4 646.009 1783.77 665.399C1771.17 683.314 1753.29 715.088 1739.7 764.713C1724.39 820.564 1717.52 887.154 1719.26 962.633C1721.45 1057.05 1737.2 1165.71 1766.09 1285.58C1766.44 1287.02 1765.6 1288.49 1764.2 1288.85C1763.99 1288.91 1763.78 1288.94 1763.57 1288.94Z" fill="url(#paint17_linear_360_947)"/>
<path d="M1849.23 741.709C1846.97 741.073 1844.5 740.875 1841.86 741.19C1827.26 742.935 1821.26 758.939 1816.97 771.451C1813.3 782.165 1808.97 795.171 1811.14 806.78C1813.49 819.33 1826.31 829.568 1835.61 816.825C1846.19 802.342 1862.06 780.103 1862.15 760.909C1862.2 751.366 1857.05 743.912 1849.23 741.709Z" fill="url(#paint18_linear_360_947)"/>
<path d="M1968.22 1090.78C1974.2 1049.89 1959.9 1002.95 1952.76 959.703C1948.99 936.84 1947.24 914.151 1950.78 891.117C1954.29 868.216 1964.64 843.446 1955.1 820.63C1935.86 774.663 1890.14 795.582 1863.95 830.187C1833.56 870.344 1825.25 935.963 1813.71 986.493C1806.75 1016.95 1796.26 1048.2 1792.59 1079.24C1786.51 1130.66 1797.7 1166.36 1821.36 1190.47C1844.06 1213.59 1878.63 1218.39 1906.4 1202.32C1931.48 1187.8 1958.59 1156.75 1968.22 1090.78Z" fill="url(#paint19_linear_360_947)"/>
<path d="M1863.62 1281.64C1862.38 1281.64 1861.28 1280.7 1861.06 1279.38C1860.96 1278.76 1851.01 1216.32 1850.75 1130.17C1850.51 1050.63 1858.71 933.972 1899.18 829.962C1899.72 828.578 1901.24 827.915 1902.57 828.471C1903.9 829.03 1904.54 830.604 1904 831.989C1881.84 888.948 1855.51 986.914 1855.95 1130.16C1856.2 1215.86 1866.09 1277.87 1866.19 1278.49C1866.43 1279.96 1865.47 1281.35 1864.06 1281.6C1863.91 1281.63 1863.77 1281.64 1863.62 1281.64Z" fill="url(#paint20_linear_360_947)"/>
<path d="M251.982 517.382C240.173 523.317 228.79 532.201 225.311 541.302C209.615 582.362 250.934 630.088 267.757 663.3C296.657 720.354 313.289 784.709 308.625 849.439C303.573 919.578 304.146 987.823 322.235 1056.32C331.554 1091.6 346.931 1128.23 373.39 1153.59C423.39 1201.49 526.28 1155.67 538.143 1091.77C547.605 1040.81 533.637 988.968 514.717 942.26C482.891 863.687 439.124 791.12 406.826 712.791C382.128 652.894 370.992 527.922 296.519 511.141C282.9 508.073 264.511 511.086 251.982 517.382Z" fill="url(#paint21_linear_360_947)"/>
<path d="M463.366 1269.5C463.337 1269.5 463.308 1269.5 463.279 1269.49C461.933 1269.39 460.926 1268.17 461.029 1266.77C468.096 1170.58 462.115 1072.62 443.252 975.599C428.16 897.97 404.834 820.768 373.922 746.135C321.3 619.089 264.22 542.655 263.648 541.898C262.816 540.794 263.003 539.198 264.066 538.333C265.128 537.466 266.665 537.662 267.496 538.766C268.07 539.529 325.54 616.483 378.409 744.128C409.454 819.082 432.882 896.621 448.041 974.592C466.993 1072.07 473.001 1170.5 465.9 1267.16C465.801 1268.52 464.675 1269.56 463.366 1269.5Z" fill="url(#paint22_linear_360_947)"/>
<path d="M386.75 1025.48C372.383 980.001 334.038 939.267 304.951 898.472C289.572 876.904 276.374 854.413 268.456 828.704C260.584 803.142 258.838 771.941 237.52 753.552C194.568 716.506 157.845 762.923 148.17 812.879C136.942 870.849 161.315 943.138 174.766 1001.6C182.875 1036.84 187.737 1074.8 199.534 1108.85C219.077 1165.27 248.559 1196.08 285.112 1208.14C320.171 1219.71 358.289 1205.91 378.898 1174.24C397.515 1145.63 409.927 1098.85 386.75 1025.48Z" fill="url(#paint23_linear_360_947)"/>
<path d="M373.199 1279.98C372.196 1279.98 371.208 1279.5 370.567 1278.6C370.151 1278.01 328.497 1218.89 284.957 1130.03C244.75 1047.97 194.631 922.988 184.197 793.553C184.046 791.685 185.381 790.044 187.176 789.888C188.982 789.704 190.551 791.119 190.702 792.985C210.507 1038.64 374.176 1272.25 375.826 1274.58C376.895 1276.08 376.585 1278.21 375.132 1279.32C374.549 1279.77 373.872 1279.98 373.199 1279.98Z" fill="url(#paint24_linear_360_947)"/>
<path d="M1422.26 954.779C1422.48 1064.47 1393.1 1149.6 1333.48 1209.93C1273.84 1270.25 1188.09 1300.62 1075.57 1300.88C965.629 1301.12 881.076 1272.09 821.945 1213.76C762.814 1155.42 733.095 1071.14 732.87 961.449L732.153 611.267H951.348L952.034 943.198C952.157 1002.45 962.795 1045.56 984.177 1072.26C1005.56 1098.98 1036.91 1112.35 1078.47 1112.25C1122.96 1112.16 1155.14 1098.84 1175.13 1072.22C1195.11 1045.63 1204.94 1001.87 1204.8 941.468L1204.13 611.267H1421.55L1422.26 954.779Z" fill="url(#paint25_linear_360_947)"/>
<path d="M1422.29 951.69C1422.51 1056.6 1393.11 1138.07 1333.48 1195.77C1273.85 1253.48 1188.09 1282.54 1075.57 1282.8C965.629 1283.04 881.086 1255.29 821.955 1199.5C762.834 1143.69 733.115 1063.05 732.9 958.136L732.184 612.299H951.388L952.063 940.662C952.175 997.329 962.815 1038.59 984.197 1064.12C1005.57 1089.67 1036.93 1102.47 1078.48 1102.37C1122.97 1102.28 1155.16 1089.53 1175.15 1064.08C1195.13 1038.64 1204.96 996.747 1204.84 938.984L1204.17 612.299H1421.59L1422.29 951.69Z" fill="url(#paint26_linear_360_947)"/>
<path d="M944.719 451.596L738.256 452.054C734.703 452.063 731.828 454.671 731.835 458.363L732.166 619.272L951.36 618.785L951.03 457.876C951.023 454.185 948.271 451.589 944.719 451.596Z" fill="white"/>
<path d="M1415.23 450.552L1210 451.008C1206.44 451.017 1203.8 453.625 1203.81 457.318L1204.14 618.226L1421.57 617.744L1421.24 456.835C1421.23 453.141 1418.79 450.544 1415.23 450.552Z" fill="white"/>
<path d="M762.951 975.707C761.258 975.711 759.412 974.289 759.409 972.531L758.747 650.305C758.743 648.546 760.584 647.116 762.276 647.112C763.968 647.108 765.815 648.53 765.817 650.288L766.48 972.515C766.483 974.274 764.642 975.704 762.951 975.707Z" fill="white"/>
<path d="M1279.88 1215.35C1278.68 1215.36 1277.54 1214.62 1277.05 1213.4C1276.39 1211.77 1277.13 1209.91 1278.69 1209.23C1348.9 1178.73 1377.8 1096.82 1389.69 1033.47C1402.64 964.41 1398.75 901.895 1398.71 901.272C1398.59 899.517 1399.87 897.998 1401.55 897.878C1403.25 897.762 1404.7 899.084 1404.82 900.838C1404.86 901.47 1408.81 964.819 1395.7 1034.69C1387.98 1075.83 1375.95 1111.2 1359.92 1139.81C1339.77 1175.79 1313.24 1201.13 1281.05 1215.11C1280.67 1215.27 1280.27 1215.35 1279.88 1215.35Z" fill="white"/>
<path d="M852.622 226.051L808.828 315.152H842.12L830.725 382.183L898.767 293.306L853.797 289.449L852.622 226.051Z" fill="white"/>
<path d="M975.105 278.798L915.705 331.653L940.75 342.349L912.203 389.223L989.799 344.274L957.125 326.898L975.105 278.798Z" fill="white"/>
<path d="M693.52 286.595L708.621 366.341L729.89 348.923L755.138 397.798L755.602 305.464L724.989 326.506L693.52 286.595Z" fill="white"/>
<path d="M1323.54 226.051L1279.75 315.152H1313.04L1301.64 382.183L1369.68 293.306L1324.72 289.449L1323.54 226.051Z" fill="white"/>
<path d="M1446.02 278.798L1386.62 331.653L1411.67 342.349L1383.12 389.223L1460.72 344.274L1428.04 326.898L1446.02 278.798Z" fill="white"/>
<path d="M1164.44 286.595L1179.54 366.341L1200.81 348.923L1226.06 397.798L1226.52 305.464L1195.91 326.506L1164.44 286.595Z" fill="white"/>
<path d="M650.06 537.791H506.776C493.888 537.791 483.441 548.65 483.441 562.047V600.263C483.441 613.659 493.888 624.519 506.776 624.519H551.028C552.136 624.519 553.14 625.193 553.596 626.244L571.932 668.553C572.328 669.466 573.187 670.066 574.15 670.1C575.113 670.134 576.01 669.597 576.466 668.714L598.451 626.063C598.942 625.113 599.895 624.519 600.933 624.519H650.06C662.948 624.519 673.395 613.658 673.395 600.263V562.047C673.395 548.651 662.947 537.791 650.06 537.791Z" fill="url(#paint27_linear_360_947)"/>
<path d="M564.135 564.958H563.996L555.714 569.299L554.253 562.572L565.249 556.929H572.416V603.947H564.135V564.958Z" fill="white"/>
<path d="M587.996 603.947V598.523L593.355 593.386C604.003 583.115 609.014 577.473 609.083 571.252C609.083 567.057 606.926 563.367 601.011 563.367C597.045 563.367 593.634 565.465 591.337 567.274L588.832 560.981C592.103 558.232 597.045 556.135 602.749 556.135C612.77 556.135 617.641 562.717 617.641 570.385C617.641 578.631 611.936 585.286 604.072 592.881L600.106 596.425V596.569H618.686V603.947H587.996Z" fill="white"/>
<path d="M654.029 564.307H636.632L635.311 573.711C636.355 573.566 637.257 573.494 638.58 573.494C642.547 573.494 646.513 574.434 649.576 576.532C652.985 578.775 655.491 582.753 655.491 588.467C655.491 597.436 648.324 604.742 637.189 604.742C631.971 604.742 627.586 603.368 625.22 601.993L626.96 595.266C628.908 596.351 632.804 597.726 636.911 597.726C641.922 597.726 646.723 594.76 646.723 589.118C646.723 583.766 642.895 580.221 633.849 580.221C631.343 580.221 629.464 580.366 627.654 580.654L630.646 556.929H654.028L654.029 564.307Z" fill="white"/>
<path d="M531.341 566.033C531.341 572.224 526.513 578.906 520.558 578.906C514.603 578.906 509.775 572.223 509.775 566.033C509.775 559.844 514.603 555.452 520.558 555.452C526.513 555.452 531.341 559.844 531.341 566.033Z" fill="white"/>
<path d="M507.176 602.738H533.498C536.269 602.738 538.722 600.877 539.566 598.133L540.983 593.532C542.02 590.162 540.334 586.515 537.138 585.299C526.425 581.228 515.349 581.75 504.001 585.675C500.822 586.775 499.058 590.308 499.935 593.669L501.026 597.848C501.78 600.734 504.3 602.738 507.176 602.738Z" fill="white"/>
<path d="M652.094 763.109C652.094 763.109 625.241 789.583 616.365 836.638C607.489 883.692 586.407 770.118 586.407 770.118H565.103C565.103 770.118 557.067 887.147 617.21 896.451C628.675 898.224 640.181 893.508 647.351 884.043C658.332 869.547 675.469 843.758 679.608 819.174C676.057 780.424 652.094 763.109 652.094 763.109Z" fill="url(#paint28_linear_360_947)"/>
<path d="M788.535 1305.01C788.54 1304.66 788.519 1304.31 788.433 1303.96C783.396 1283.19 762.796 1272.55 762.796 1272.55L752.888 1273.36C747.191 1291.66 743.517 1300.59 744.433 1305.59C744.458 1305.73 744.499 1305.86 744.535 1306C752.706 1306.76 769.53 1307.25 788.535 1305.01Z" fill="url(#paint29_linear_360_947)"/>
<path d="M744.533 1306C744.975 1307.67 746.16 1308.97 747.677 1309.3C759.305 1311.84 777.784 1309.79 785.544 1308.74C787.255 1308.51 788.507 1306.86 788.535 1305C769.53 1307.25 752.706 1306.76 744.533 1306Z" fill="url(#paint30_linear_360_947)"/>
<path d="M770.954 1256.52L766.615 1278.23C766.298 1279.82 765.122 1281.01 763.697 1281.15C761.954 1281.32 759.472 1281.42 756.976 1281.04C754.738 1280.7 753.179 1278.34 753.577 1275.8L756.592 1256.52H770.954Z" fill="url(#paint31_linear_360_947)"/>
<path d="M660.344 1305.82C670.926 1305.51 676.399 1304.22 679.229 1303.01C679.235 1304.11 679.23 1305.22 679.195 1306.37C679.158 1307.61 678.281 1308.59 677.201 1308.58L619.098 1308.19C617.243 1308.18 616.159 1305.94 616.962 1304.18C624.582 1304.83 643.984 1306.29 660.344 1305.82Z" fill="url(#paint32_linear_360_947)"/>
<path d="M616.963 1304.18C617.034 1304.02 617.093 1303.87 617.194 1303.72C622.324 1296.27 635.394 1281.43 661.22 1274.99L673.609 1274.58C673.609 1274.58 679.126 1284.55 679.23 1303.01C676.4 1304.21 670.927 1305.51 660.345 1305.82C643.984 1306.29 624.582 1304.83 616.963 1304.18Z" fill="url(#paint33_linear_360_947)"/>
<path d="M675.906 1255.07C675.768 1256.03 674.069 1270.62 673.412 1276.27C673.256 1277.62 672.319 1278.66 671.138 1278.8C669.029 1279.07 665.615 1279.3 662.628 1278.67C661.017 1278.32 659.851 1276.72 659.851 1274.85V1251.94L675.906 1255.07Z" fill="url(#paint34_linear_360_947)"/>
<path d="M762.675 971.466C762.675 971.466 782.5 1154.64 771.486 1269.12C771.486 1269.12 758.27 1269.12 751.662 1266.83C751.662 1266.83 731.061 1087.73 724.396 1036.49C724.145 1034.55 721.491 1034.47 721.126 1036.38C712.903 1079.49 680.608 1248.57 676.768 1264.54C676.768 1264.54 665.754 1269.12 656.943 1264.54C656.943 1264.54 674.565 1019.55 687.781 976.045L762.675 971.466Z" fill="url(#paint35_linear_360_947)"/>
<path d="M802.325 758.531C802.325 758.531 718.62 744.793 652.538 763.11L656.943 834.088C656.943 834.088 674.565 932.542 687.781 976.045C687.781 976.045 738.445 985.204 762.675 971.466C762.675 971.466 782.5 847.826 793.513 829.508C793.513 829.508 804.528 781.427 802.325 758.531Z" fill="url(#paint36_linear_360_947)"/>
<path d="M743.586 683.807L752.514 754.582C752.514 754.582 729.218 765.706 712.905 754.104L716.417 712.738L743.586 683.807Z" fill="url(#paint37_linear_360_947)"/>
<path d="M802.325 758.531C802.325 758.531 932.287 905.067 779.196 961.163V949.715C779.196 949.715 836.468 899.342 792.412 830.654C792.412 830.654 797.919 765.399 802.325 758.531Z" fill="url(#paint38_linear_360_947)"/>
<path d="M778.094 950.86C778.094 950.86 758.27 937.122 749.458 941.701C740.647 946.279 740.647 953.149 740.647 953.149C740.647 953.149 745.053 962.308 751.661 960.017C758.27 957.728 773.688 962.307 780.297 960.017C780.297 960.017 782.5 950.86 778.094 950.86Z" fill="url(#paint39_linear_360_947)"/>
<path d="M563.79 696.103L591.756 705.897C595.142 706.953 597.475 710.509 597.745 715.025L596.293 763.534C596.748 771.123 590.721 777.813 585.029 776.038L562.609 768.097C560.427 767.416 558.977 765.035 558.953 762.091L558.459 701.694C558.431 698.203 561.203 695.296 563.79 696.103Z" fill="url(#paint40_linear_360_947)"/>
<path d="M558.459 758.53C558.459 758.53 549.706 729.383 554.156 724.472C558.606 719.562 567.471 706.019 568.062 717.091C568.654 728.164 574.005 775.981 558.459 758.53Z" fill="url(#paint41_linear_360_947)"/>
<path d="M686.921 664.766C686.782 665.659 697.353 724.505 697.353 724.505L729.55 717.517L727.504 660.196C727.504 660.196 689.244 649.801 686.921 664.766Z" fill="url(#paint42_linear_360_947)"/>
<path d="M717.873 669.527C719.126 670.318 719.953 671.658 720.122 673.171L723.424 702.824C723.474 703.274 723.468 703.722 723.396 704.168C723 706.631 721.133 714.367 713.494 711.974C706.982 709.934 700.972 708.152 696.55 708.971C693.967 709.449 692.286 712.06 692.776 714.739C693.788 720.256 696.046 731.346 699.383 740.906C700.219 743.302 702.705 744.605 705.069 743.924C711.304 742.126 723.38 738.235 732.604 732.766C734.118 731.867 735.031 730.182 734.987 728.37C734.794 720.394 734.344 698.036 735.151 691.703C735.9 685.821 742.744 682.342 745.999 681.006C747.235 680.5 748.205 679.493 748.689 678.206C750.141 674.35 751.741 666.359 742.14 662.67C739.753 661.753 738.55 658.951 739.383 656.451C740.876 651.972 741.285 645.475 733.518 641.693C725.655 637.866 719.589 641.807 716.105 645.368C714.565 646.945 712.152 647.398 710.28 646.272C709.448 645.772 708.412 645.606 707.177 646.235C704.847 647.421 702.108 646.563 700.951 644.15C698.969 640.012 695.002 635.748 687.142 637.007C672.727 639.316 670.833 655.844 674.468 665.612C678.104 675.379 693.595 671.953 701.416 667.196C707.16 663.703 714.423 667.347 717.873 669.527Z" fill="url(#paint43_linear_360_947)"/>
<path d="M734.713 701.665C734.713 701.665 730.632 685.369 736.772 681.262C742.911 677.156 751.866 679.499 749.687 691.924C746.975 707.379 734.713 701.665 734.713 701.665Z" fill="url(#paint44_linear_360_947)"/>
<path d="M678.079 663.25C677.928 663.25 677.783 663.161 677.714 663.009C672.815 652.104 684.257 643.391 684.373 643.304C684.553 643.17 684.803 643.212 684.933 643.399C685.062 643.586 685.021 643.847 684.841 643.981C684.731 644.063 673.824 652.38 678.441 662.656C678.535 662.864 678.448 663.113 678.247 663.211C678.194 663.237 678.135 663.25 678.079 663.25Z" fill="white"/>
<path d="M1598.12 1081.69L1601.07 1077.68C1601.88 1076.58 1601.7 1074.98 1600.67 1074.11C1599.64 1073.24 1598.15 1073.43 1597.34 1074.53L1597.32 1074.55L1597.28 1074.6L1594.44 1078.54L1594.41 1078.59C1593.62 1079.69 1593.8 1081.27 1594.83 1082.12C1595.86 1082.97 1597.32 1082.77 1598.12 1081.69Z" fill="white"/>
<path d="M1607.58 1068.03L1610.21 1063.78C1610.96 1062.56 1610.65 1060.93 1609.51 1060.12C1608.38 1059.32 1606.85 1059.66 1606.1 1060.87L1606.09 1060.89L1606.05 1060.95L1603.54 1065.13L1603.5 1065.18C1602.77 1066.39 1603.1 1068 1604.23 1068.79C1605.35 1069.56 1606.84 1069.22 1607.58 1068.03Z" fill="white"/>
<path d="M1615.95 1053.58L1618.24 1049.1C1618.92 1047.79 1618.47 1046.13 1617.24 1045.41C1616 1044.68 1614.46 1045.16 1613.78 1046.48L1613.77 1046.51L1613.74 1046.56L1611.55 1050.95L1611.52 1051.01C1610.87 1052.32 1611.33 1053.96 1612.55 1054.66C1613.77 1055.36 1615.29 1054.87 1615.95 1053.58Z" fill="white"/>
<path d="M1623.2 1038.44L1625.15 1033.79C1625.74 1032.37 1625.15 1030.71 1623.83 1030.07C1622.51 1029.43 1620.95 1030.07 1620.36 1031.48L1620.34 1031.51L1620.32 1031.57L1618.46 1036.13L1618.44 1036.19C1617.86 1037.6 1618.47 1039.24 1619.78 1039.86C1621.09 1040.47 1622.61 1039.83 1623.2 1038.44Z" fill="white"/>
<path d="M1629.31 1022.75L1630.92 1017.94C1631.42 1016.44 1630.69 1014.77 1629.28 1014.23C1627.88 1013.69 1626.32 1014.47 1625.82 1015.98L1625.81 1016.01L1625.79 1016.07L1624.26 1020.77L1624.24 1020.83C1623.76 1022.33 1624.5 1023.97 1625.9 1024.49C1627.29 1025.01 1628.81 1024.23 1629.31 1022.75Z" fill="white"/>
<path d="M1634.28 1006.6L1635.56 1001.68C1635.97 1000.09 1635.1 998.439 1633.61 997.997C1632.13 997.556 1630.59 998.488 1630.17 1000.08L1630.17 1000.11L1630.15 1000.17L1628.96 1004.98L1628.94 1005.04C1628.55 1006.62 1629.43 1008.25 1630.9 1008.67C1632.37 1009.09 1633.88 1008.16 1634.28 1006.6Z" fill="white"/>
<path d="M1638.14 990.1L1639.08 985.098C1639.39 983.431 1638.39 981.806 1636.83 981.47C1635.27 981.135 1633.75 982.214 1633.44 983.882L1633.43 983.913L1633.42 983.977L1632.55 988.862L1632.54 988.926C1632.25 990.583 1633.26 992.181 1634.81 992.497C1636.35 992.809 1637.83 991.737 1638.14 990.1Z" fill="white"/>
<path d="M1640.89 973.351L1641.5 968.292C1641.72 966.556 1640.57 964.965 1638.95 964.74C1637.33 964.514 1635.84 965.739 1635.63 967.474L1635.63 967.508L1635.62 967.572L1635.07 972.51L1635.07 972.575C1634.88 974.298 1636.02 975.863 1637.63 976.068C1639.23 976.27 1640.68 975.056 1640.89 973.351Z" fill="white"/>
<path d="M1642.56 956.439L1642.86 951.346C1642.96 949.55 1641.69 948.003 1640.01 947.893C1638.33 947.781 1636.89 949.147 1636.78 950.943L1636.78 950.978L1636.78 951.043L1636.54 956.009L1636.54 956.074C1636.45 957.857 1637.73 959.376 1639.4 959.467C1641.05 959.558 1642.46 958.204 1642.56 956.439Z" fill="white"/>
<path d="M1643.18 939.446L1643.16 934.342C1643.15 932.494 1641.75 931.001 1640.02 931.008C1638.29 931.015 1636.9 932.519 1636.91 934.368V934.404L1636.91 934.469L1636.98 939.442L1636.98 939.507C1637 941.341 1638.41 942.806 1640.12 942.779C1641.82 942.752 1643.18 941.262 1643.18 939.446Z" fill="white"/>
<path d="M1642.76 922.443L1642.43 917.351C1642.31 915.457 1640.78 914.027 1639.01 914.156C1637.24 914.286 1635.91 915.925 1636.03 917.82L1636.03 917.856L1636.04 917.921L1636.4 922.877L1636.41 922.943C1636.55 924.82 1638.08 926.222 1639.83 926.074C1641.57 925.926 1642.88 924.304 1642.76 922.443Z" fill="white"/>
<path d="M1641.32 905.502L1640.7 900.442C1640.46 898.512 1638.8 897.154 1637 897.41C1635.2 897.666 1633.93 899.437 1634.17 901.368L1634.17 901.405L1634.18 901.471L1634.84 906.391L1634.85 906.457C1635.11 908.37 1636.76 909.699 1638.55 909.425C1640.32 909.152 1641.56 907.399 1641.32 905.502Z" fill="white"/>
<path d="M1638.89 888.682L1637.95 883.67C1637.59 881.72 1635.82 880.455 1634 880.844C1632.18 881.233 1631 883.129 1631.36 885.079L1631.36 885.099L1631.38 885.165L1632.31 890.039L1632.32 890.105C1632.7 892.044 1634.47 893.295 1636.28 892.897C1638.08 892.499 1639.25 890.614 1638.89 888.682Z" fill="white"/>
<path d="M1635.43 872.065L1634.21 867.13C1633.72 865.183 1631.86 864.025 1630.04 864.542C1628.22 865.06 1627.14 867.057 1627.63 869.003L1627.63 869.023L1627.65 869.089L1628.86 873.884L1628.88 873.95C1629.37 875.886 1631.24 877.028 1633.04 876.502C1634.85 875.979 1635.91 873.994 1635.43 872.065Z" fill="white"/>
<path d="M1631.01 855.715L1629.5 850.871C1628.89 848.937 1626.94 847.893 1625.13 848.541C1623.32 849.189 1622.35 851.282 1622.96 853.216L1622.96 853.235L1622.98 853.302L1624.48 858.004L1624.5 858.07C1625.11 859.993 1627.07 861.02 1628.86 860.364C1630.65 859.711 1631.61 857.632 1631.01 855.715Z" fill="white"/>
<path d="M1625.63 839.693L1623.83 834.961C1623.1 833.048 1621.06 832.13 1619.27 832.91C1617.49 833.689 1616.63 835.872 1617.36 837.785L1617.36 837.805L1617.39 837.871L1619.16 842.459L1619.19 842.526C1619.92 844.427 1621.96 845.331 1623.73 844.543C1625.5 843.757 1626.35 841.589 1625.63 839.693Z" fill="white"/>
<path d="M1619.29 824.068L1617.2 819.463C1616.35 817.582 1614.23 816.798 1612.48 817.711C1610.72 818.625 1609.99 820.891 1610.84 822.77L1610.85 822.789L1610.88 822.856L1612.93 827.314L1612.96 827.381C1613.82 829.25 1615.93 830.018 1617.68 829.098C1619.42 828.183 1620.13 825.934 1619.29 824.068Z" fill="white"/>
<path d="M1612 808.909L1609.63 804.463C1608.65 802.624 1606.47 801.985 1604.75 803.035C1603.03 804.084 1602.44 806.425 1603.42 808.264L1603.43 808.282L1603.46 808.349L1605.78 812.647L1605.82 812.714C1606.8 814.54 1608.99 815.163 1610.69 814.108C1612.39 813.055 1612.97 810.731 1612 808.909Z" fill="white"/>
<path d="M1603.78 794.299L1601.13 790.037C1600.02 788.253 1597.77 787.77 1596.1 788.956C1594.44 790.143 1593.99 792.551 1595.1 794.335L1595.11 794.352L1595.15 794.419L1597.74 798.532L1597.78 798.599C1598.89 800.37 1601.13 800.838 1602.79 799.645C1604.43 798.457 1604.87 796.067 1603.78 794.299Z" fill="white"/>
<path d="M1594.64 780.333L1591.74 776.279C1590.51 774.557 1588.21 774.23 1586.6 775.546C1584.99 776.864 1584.69 779.328 1585.92 781.05L1585.93 781.067L1585.97 781.124L1588.81 785.045L1588.85 785.103C1590.08 786.811 1592.38 787.124 1593.97 785.802C1595.56 784.485 1595.86 782.04 1594.64 780.333Z" fill="white"/>
<path d="M1584.71 767.037L1581.58 763.176C1580.24 761.518 1577.9 761.34 1576.35 762.776C1574.8 764.214 1574.63 766.723 1575.98 768.38L1575.99 768.396L1576.03 768.451L1579.09 772.184L1579.14 772.239C1580.48 773.882 1582.82 774.046 1584.35 772.605C1585.88 771.17 1586.04 768.681 1584.71 767.037Z" fill="white"/>
<path d="M1574.04 754.408L1570.7 750.756C1569.25 749.169 1566.88 749.14 1565.4 750.692C1563.91 752.243 1563.89 754.788 1565.34 756.376L1565.35 756.391L1565.4 756.442L1568.66 759.973L1568.71 760.024C1570.16 761.596 1572.52 761.611 1573.99 760.056C1575.46 758.506 1575.48 755.982 1574.04 754.408Z" fill="white"/>
<path d="M1562.69 742.482L1559.16 739.044C1557.61 737.534 1555.21 737.654 1553.8 739.315C1552.39 740.976 1552.5 743.548 1554.05 745.058L1554.07 745.074L1554.12 745.12L1557.57 748.442L1557.62 748.49C1559.17 749.986 1561.56 749.851 1562.96 748.188C1564.35 746.531 1564.23 743.981 1562.69 742.482Z" fill="white"/>
<path d="M1550.72 731.28L1547.02 728.063C1545.37 726.633 1542.96 726.902 1541.62 728.667C1540.28 730.43 1540.54 733.02 1542.18 734.451L1542.2 734.465L1542.25 734.507L1545.87 737.616L1545.92 737.659C1547.57 739.075 1549.97 738.792 1551.3 737.027C1552.62 735.267 1552.36 732.699 1550.72 731.28Z" fill="white"/>
<path d="M1538.19 720.817L1534.33 717.825C1532.59 716.479 1530.16 716.895 1528.9 718.756C1527.65 720.616 1528.04 723.216 1529.77 724.562L1529.79 724.576L1529.84 724.615L1533.62 727.506L1533.67 727.546C1535.41 728.877 1537.82 728.448 1539.07 726.586C1540.31 724.731 1539.91 722.153 1538.19 720.817Z" fill="white"/>
<path d="M1525.14 711.105L1521.14 708.338C1519.32 707.079 1516.89 707.64 1515.71 709.592C1514.54 711.544 1515.06 714.147 1516.88 715.405L1516.9 715.419L1516.95 715.454L1520.87 718.126L1520.92 718.161C1522.74 719.406 1525.16 718.831 1526.32 716.879C1527.48 714.933 1526.95 712.353 1525.14 711.105Z" fill="white"/>
<path d="M1511.64 702.146L1507.51 699.607C1505.61 698.438 1503.18 699.142 1502.09 701.178C1501 703.214 1501.65 705.813 1503.56 706.981L1503.57 706.992L1503.63 707.024L1507.67 709.475L1507.72 709.507C1509.62 710.66 1512.04 709.944 1513.11 707.908C1514.19 705.881 1513.53 703.306 1511.64 702.146Z" fill="white"/>
<path d="M1497.72 693.96L1493.47 691.657C1491.5 690.592 1489.1 691.435 1488.11 693.54C1487.12 695.644 1487.9 698.213 1489.87 699.279L1489.87 699.281L1489.93 699.31L1494.07 701.55L1494.13 701.579C1496.09 702.641 1498.49 701.795 1499.48 699.69C1500.47 697.585 1499.69 695.021 1497.72 693.96Z" fill="white"/>
<path d="M1483.43 686.55L1479.08 684.475C1477.06 683.514 1474.7 684.485 1473.8 686.644C1472.9 688.803 1473.81 691.334 1475.83 692.296L1475.83 692.298L1475.88 692.323L1480.13 694.342L1480.18 694.367C1482.2 695.325 1484.56 694.352 1485.46 692.193C1486.35 690.034 1485.45 687.509 1483.43 686.55Z" fill="white"/>
<path d="M1468.82 679.897L1464.38 678.05C1462.32 677.191 1460 678.285 1459.2 680.494C1458.4 682.703 1459.42 685.189 1461.48 686.048L1461.48 686.049L1461.54 686.071L1465.87 687.87L1465.92 687.893C1467.99 688.748 1470.31 687.652 1471.1 685.444C1471.9 683.235 1470.88 680.754 1468.82 679.897Z" fill="white"/>
<path d="M1453.94 674.001L1449.43 672.38C1447.33 671.625 1445.05 672.837 1444.34 675.089C1443.64 677.34 1444.77 679.778 1446.87 680.534L1446.88 680.536L1446.93 680.556L1451.34 682.133L1451.39 682.152C1453.49 682.905 1455.77 681.69 1456.47 679.439C1457.17 677.187 1456.04 674.753 1453.94 674.001Z" fill="white"/>
<path d="M1438.82 668.859L1434.24 667.462C1432.1 666.81 1429.87 668.138 1429.26 670.427C1428.66 672.717 1429.89 675.102 1432.03 675.753L1432.04 675.754L1432.09 675.771L1436.57 677.129L1436.62 677.146C1438.76 677.795 1440.98 676.465 1441.59 674.177C1442.19 671.888 1440.96 669.508 1438.82 668.859Z" fill="white"/>
<path d="M1423.49 664.468L1418.85 663.297C1416.68 662.749 1414.51 664.187 1414 666.509C1413.49 668.832 1414.83 671.159 1417 671.706L1417 671.708L1417.06 671.721L1421.59 672.86L1421.64 672.873C1423.81 673.418 1425.98 671.978 1426.49 669.656C1427 667.335 1425.66 665.012 1423.49 664.468Z" fill="white"/>
<path d="M1407.99 660.829L1403.31 659.885C1401.11 659.442 1399 660.989 1398.59 663.338C1398.17 665.688 1399.62 667.952 1401.81 668.395L1401.82 668.396L1401.87 668.406L1406.44 669.322L1406.49 669.334C1408.69 669.773 1410.8 668.225 1411.21 665.877C1411.62 663.529 1410.18 661.269 1407.99 660.829Z" fill="white"/>
<path d="M1392.35 657.947L1387.64 657.23C1385.43 656.892 1383.37 658.543 1383.06 660.916C1382.74 663.289 1384.29 665.487 1386.5 665.823L1386.51 665.824L1386.56 665.833L1391.16 666.527L1391.22 666.535C1393.43 666.87 1395.48 665.218 1395.79 662.847C1396.11 660.475 1394.57 658.281 1392.35 657.947Z" fill="white"/>
<path d="M1376.61 655.822L1371.88 655.333C1369.64 655.103 1367.66 656.855 1367.44 659.247C1367.23 661.638 1368.86 663.763 1371.1 663.994H1371.1L1371.16 663.999L1375.79 664.47L1375.84 664.476C1378.07 664.704 1380.05 662.95 1380.27 660.56C1380.48 658.172 1378.85 656.05 1376.61 655.822Z" fill="white"/>
<path d="M1360.8 654.462L1356.04 654.203C1353.8 654.082 1351.88 655.932 1351.77 658.337C1351.65 660.742 1353.38 662.79 1355.63 662.911H1355.63L1355.69 662.915L1360.34 663.161L1360.39 663.164C1362.64 663.284 1364.55 661.432 1364.66 659.029C1364.77 656.626 1363.05 654.581 1360.8 654.462Z" fill="white"/>
<path d="M1344.93 653.872L1340.17 653.848C1337.92 653.836 1336.08 655.782 1336.07 658.196C1336.06 660.609 1337.88 662.574 1340.13 662.587H1340.14H1340.19L1344.84 662.605H1344.9C1347.15 662.615 1348.98 660.667 1348.99 658.255C1349 655.844 1347.19 653.882 1344.93 653.872Z" fill="white"/>
<path d="M1329.08 654.046L1324.33 654.236C1322.07 654.326 1320.31 656.359 1320.39 658.776C1320.48 661.193 1322.37 663.079 1324.63 662.989H1324.64L1324.69 662.987L1329.34 662.795L1329.39 662.793C1331.64 662.7 1333.4 660.667 1333.31 658.251C1333.23 655.835 1331.33 653.953 1329.08 654.046Z" fill="white"/>
<path d="M1313.25 654.922L1308.51 655.319C1306.26 655.508 1304.57 657.62 1304.75 660.037C1304.92 662.453 1306.9 664.26 1309.15 664.071H1309.16L1309.2 664.067L1313.85 663.673L1313.89 663.669C1316.15 663.477 1317.83 661.364 1317.65 658.95C1317.48 656.533 1315.51 654.731 1313.25 654.922Z" fill="white"/>
<path d="M1297.48 656.48L1292.76 657.076C1290.5 657.362 1288.89 659.548 1289.16 661.961C1289.42 664.375 1291.47 666.099 1293.72 665.814H1293.72L1293.77 665.808L1298.4 665.217L1298.44 665.21C1300.69 664.923 1302.3 662.735 1302.03 660.325C1301.76 657.914 1299.73 656.192 1297.48 656.48Z" fill="white"/>
<path d="M1281.77 658.698L1277.08 659.488C1274.83 659.867 1273.3 662.123 1273.65 664.529C1274.01 666.934 1276.11 668.578 1278.36 668.199L1278.37 668.198L1278.41 668.19L1283.01 667.409L1283.06 667.401C1285.3 667.02 1286.83 664.763 1286.48 662.359C1286.12 659.958 1284.02 658.317 1281.77 658.698Z" fill="white"/>
<path d="M1266.16 661.555L1261.5 662.533C1259.27 663.002 1257.81 665.324 1258.25 667.719C1258.69 670.113 1260.85 671.674 1263.09 671.206L1263.1 671.205L1263.14 671.196L1267.71 670.231L1267.76 670.222C1269.99 669.75 1271.44 667.428 1271 665.035C1270.56 662.641 1268.4 661.083 1266.16 661.555Z" fill="white"/>
<path d="M1250.67 665.026L1246.05 666.183C1243.82 666.74 1242.44 669.122 1242.96 671.504C1243.48 673.885 1245.71 675.365 1247.93 674.809L1247.93 674.808L1247.98 674.796L1252.51 673.655L1252.56 673.644C1254.78 673.085 1256.16 670.702 1255.63 668.323C1255.11 665.943 1252.89 664.466 1250.67 665.026Z" fill="white"/>
<path d="M1235.31 669.087L1230.72 670.417C1228.51 671.058 1227.21 673.495 1227.81 675.861C1228.41 678.227 1230.68 679.625 1232.89 678.984L1232.9 678.982L1232.94 678.971L1237.44 677.66L1237.48 677.647C1239.68 677.003 1240.99 674.565 1240.39 672.203C1239.78 669.839 1237.51 668.444 1235.31 669.087Z" fill="white"/>
<path d="M1220.08 673.713L1215.55 675.208C1213.36 675.93 1212.12 678.42 1212.8 680.768C1213.47 683.117 1215.8 684.434 1217.99 683.712L1218 683.71L1218.04 683.696L1222.49 682.222L1222.53 682.209C1224.72 681.483 1225.95 678.995 1225.27 676.65C1224.59 674.304 1222.28 672.989 1220.08 673.713Z" fill="white"/>
<path d="M1205.02 678.881L1200.53 680.534C1198.36 681.335 1197.2 683.872 1197.95 686.2C1198.7 688.528 1201.07 689.766 1203.24 688.966L1203.25 688.964L1203.29 688.949L1207.69 687.319L1207.73 687.305C1209.91 686.502 1211.06 683.965 1210.31 681.64C1209.56 679.316 1207.19 678.079 1205.02 678.881Z" fill="white"/>
<path d="M1190.13 684.578L1185.7 686.389C1183.56 687.265 1182.48 689.835 1183.3 692.129C1184.12 694.424 1186.52 695.573 1188.66 694.697L1188.69 694.687L1193.05 692.916L1193.09 692.902C1195.23 692.031 1196.32 689.46 1195.5 687.16C1194.69 684.86 1192.29 683.702 1190.14 684.572L1190.13 684.578Z" fill="white"/>
<path d="M1175.42 690.788L1171.05 692.741C1168.95 693.682 1167.95 696.272 1168.83 698.527C1169.71 700.781 1172.13 701.846 1174.23 700.905L1174.26 700.895L1178.57 698.985L1178.6 698.969C1180.71 698.033 1181.71 695.441 1180.84 693.18C1179.96 690.92 1177.54 689.846 1175.43 690.782L1175.42 690.788Z" fill="white"/>
<path d="M1160.92 697.462L1156.6 699.555C1154.53 700.557 1153.61 703.164 1154.55 705.378C1155.48 707.592 1157.92 708.575 1159.99 707.573L1160.01 707.562L1164.27 705.514L1164.3 705.499C1166.37 704.501 1167.3 701.893 1166.37 699.671C1165.44 697.451 1163 696.459 1160.93 697.457L1160.92 697.462Z" fill="white"/>
<path d="M1146.59 704.594L1142.33 706.818C1140.3 707.878 1139.45 710.499 1140.44 712.672C1141.43 714.844 1143.88 715.747 1145.91 714.689L1145.93 714.677L1150.14 712.497L1150.17 712.481C1152.2 711.425 1153.05 708.803 1152.07 706.623C1151.08 704.444 1148.63 703.532 1146.6 704.588L1146.59 704.594Z" fill="white"/>
<path d="M1132.46 712.155L1128.25 714.507C1126.26 715.62 1125.49 718.251 1126.53 720.384C1127.57 722.515 1130.03 723.341 1132.02 722.226L1132.04 722.215L1136.19 719.909L1136.22 719.893C1138.22 718.783 1138.99 716.15 1137.96 714.013C1136.92 711.874 1134.46 711.04 1132.47 712.15L1132.46 712.155Z" fill="white"/>
<path d="M1118.53 720.13L1114.38 722.603C1112.43 723.767 1111.73 726.406 1112.82 728.496C1113.9 730.585 1116.37 731.335 1118.32 730.171L1118.34 730.16L1122.43 727.733L1122.46 727.717C1124.42 726.556 1125.13 723.916 1124.04 721.819C1122.96 719.722 1120.49 718.964 1118.54 720.125L1118.53 720.13Z" fill="white"/>
<path d="M1104.8 728.5L1100.72 731.088C1098.81 732.301 1098.17 734.943 1099.31 736.991C1100.44 739.038 1102.91 739.715 1104.82 738.503L1104.84 738.491L1108.87 735.949L1108.9 735.933C1110.81 734.723 1111.45 732.079 1110.33 730.024C1109.2 727.969 1106.73 727.284 1104.81 728.493L1104.8 728.5Z" fill="white"/>
<path d="M1091.28 737.246L1087.27 739.944C1085.39 741.201 1084.83 743.847 1086 745.852C1087.18 747.856 1089.65 748.463 1091.52 747.205L1091.54 747.194L1095.51 744.542L1095.53 744.525C1097.41 743.27 1097.99 740.624 1096.81 738.611C1095.64 736.599 1093.17 735.985 1091.29 737.238L1091.28 737.246Z" fill="white"/>
<path d="M1077.98 746.354L1074.03 749.156C1072.2 750.456 1071.7 753.102 1072.91 755.064C1074.13 757.027 1076.6 757.563 1078.43 756.263L1078.45 756.252L1082.35 753.496L1082.38 753.478C1084.22 752.182 1084.73 749.534 1083.52 747.564C1082.3 745.595 1079.83 745.05 1077.99 746.347L1077.98 746.354Z" fill="white"/>
<path d="M1064.9 755.809L1061.02 758.708C1059.23 760.048 1058.79 762.691 1060.04 764.611C1061.29 766.531 1063.76 767.001 1065.55 765.661L1065.57 765.652L1069.41 762.796L1069.43 762.78C1071.23 761.442 1071.68 758.797 1070.43 756.87C1069.18 754.942 1066.71 754.465 1064.91 755.802L1064.9 755.809Z" fill="white"/>
<path d="M1052.04 765.573L1048.23 768.555C1046.47 769.927 1046.09 772.564 1047.37 774.446C1048.65 776.328 1051.11 776.741 1052.87 775.368L1052.88 775.361L1056.67 772.42L1056.69 772.405C1058.45 771.036 1058.84 768.395 1057.56 766.507C1056.28 764.618 1053.82 764.198 1052.05 765.567L1052.04 765.573Z" fill="white"/>
<path d="M1039.39 775.594L1035.62 778.644C1033.9 780.042 1033.56 782.672 1034.86 784.518C1036.17 786.365 1038.62 786.729 1040.35 785.331L1040.36 785.326L1044.1 782.311L1044.11 782.298C1045.84 780.904 1046.19 778.27 1044.89 776.416C1043.59 774.562 1041.13 774.191 1039.4 775.586L1039.39 775.594Z" fill="white"/>
<path d="M1026.89 785.833L1023.17 788.939C1021.47 790.355 1021.17 792.976 1022.49 794.792C1023.81 796.609 1026.26 796.933 1027.96 795.516L1027.96 795.514L1031.66 792.438L1031.68 792.428C1033.38 791.015 1033.69 788.39 1032.37 786.567C1031.05 784.744 1028.6 784.411 1026.9 785.825L1026.89 785.833Z" fill="white"/>
<path d="M1014.53 796.239L1010.85 799.388C1009.18 800.816 1008.9 803.427 1010.24 805.217C1011.57 807.007 1014.01 807.301 1015.68 805.872L1019.36 802.75L1019.36 802.742C1021.04 801.316 1021.32 798.702 1019.99 796.905C1018.66 795.108 1016.22 794.806 1014.54 796.233L1014.53 796.239Z" fill="white"/>
<path d="M1002.28 806.772L998.626 809.95C996.974 811.386 996.721 813.983 998.061 815.752C999.401 817.521 1001.82 817.794 1003.48 816.36L1007.13 813.202C1008.79 811.773 1009.06 809.171 1007.72 807.394C1006.39 805.615 1003.96 805.331 1002.3 806.76L1002.28 806.772Z" fill="white"/>
<path d="M990.111 817.391L986.469 820.587C984.833 822.022 984.593 824.607 985.934 826.359C987.274 828.111 989.682 828.372 991.318 826.937L994.963 823.757C996.607 822.326 996.856 819.738 995.52 817.977C994.183 816.217 991.767 815.949 990.123 817.38L990.111 817.391Z" fill="white"/>
<path d="M977.981 828.05L974.346 831.25C972.721 832.68 972.487 835.25 973.822 836.991C975.157 838.73 977.549 838.989 979.174 837.558L982.817 834.369C984.448 832.941 984.69 830.368 983.356 828.62C982.023 826.873 979.62 826.614 977.988 828.042L977.981 828.05Z" fill="white"/>
<path d="M965.864 838.711L962.228 841.903C960.609 843.321 960.369 845.876 961.693 847.61C963.018 849.343 965.398 849.604 967.017 848.187L970.668 845C972.292 843.583 972.536 841.024 971.212 839.286C969.889 837.546 967.498 837.285 965.874 838.703L965.864 838.711Z" fill="white"/>
<path d="M953.731 849.328L950.083 852.498C948.466 853.898 948.215 856.438 949.522 858.169C950.829 859.901 953.198 860.173 954.816 858.772L958.483 855.603C960.104 854.202 960.358 851.658 959.05 849.922C957.742 848.187 955.368 847.914 953.746 849.315L953.731 849.328Z" fill="white"/>
<path d="M941.549 859.861L937.881 862.997L937.872 863.004C936.256 864.386 935.992 866.909 937.282 868.64C938.573 870.37 940.92 870.66 942.536 869.278L946.23 866.138C947.852 864.758 948.122 862.232 946.834 860.495C945.546 858.758 943.187 858.468 941.564 859.847L941.556 859.853L941.549 859.861Z" fill="white"/>
<path d="M929.29 870.266L925.592 873.356L925.581 873.366C923.96 874.72 923.672 877.225 924.937 878.961C926.202 880.696 928.533 881.012 930.154 879.657L933.882 876.559C935.509 875.207 935.805 872.698 934.543 870.956C933.28 869.214 930.937 868.898 929.311 870.25L929.303 870.257L929.29 870.266Z" fill="white"/>
<path d="M916.922 880.501L913.185 883.532L913.17 883.545C911.541 884.866 911.22 887.352 912.454 889.097C913.688 890.841 916.002 891.191 917.63 889.869L921.405 886.826C923.041 885.506 923.369 883.016 922.136 881.266C920.904 879.514 918.58 879.164 916.945 880.482L916.937 880.489L916.922 880.501Z" fill="white"/>
<path d="M904.415 890.518L900.631 893.473L900.613 893.486C898.971 894.769 898.611 897.233 899.808 898.992C901.005 900.75 903.299 901.143 904.941 899.86L908.766 896.89C910.415 895.609 910.781 893.142 909.587 891.377C908.392 889.612 906.087 889.219 904.44 890.499L904.432 890.505L904.415 890.518Z" fill="white"/>
<path d="M891.74 900.269L887.902 903.136L887.882 903.151C886.225 904.389 885.819 906.832 886.975 908.605C888.131 910.38 890.402 910.82 892.059 909.582L895.945 906.697C897.608 905.462 898.021 903.016 896.867 901.235C895.714 899.455 893.431 899.013 891.768 900.248L891.76 900.254L891.74 900.269Z" fill="white"/>
<path d="M878.878 909.714L874.98 912.481L874.957 912.497C873.284 913.686 872.826 916.102 873.936 917.895C875.046 919.689 877.294 920.184 878.967 918.996L882.919 916.207C884.599 915.022 885.063 912.603 883.956 910.803C882.849 909.004 880.59 908.506 878.91 909.692L878.902 909.698L878.878 909.714Z" fill="white"/>
<path d="M865.82 918.825L861.862 921.485L861.836 921.502C860.157 922.63 859.651 925.001 860.703 926.797C861.751 928.587 863.953 929.132 865.63 928.023L869.656 925.355C871.347 924.233 871.87 921.856 870.824 920.045C869.778 918.234 867.557 917.674 865.866 918.795L865.846 918.808L865.82 918.825Z" fill="white"/>
<path d="M852.542 927.546L848.513 930.076L848.484 930.095C846.799 931.154 846.234 933.474 847.223 935.28C848.207 937.078 850.362 937.684 852.045 936.643L856.146 934.103C857.844 933.052 858.426 930.724 857.443 928.905C856.462 927.086 854.288 926.464 852.59 927.516L852.57 927.528L852.542 927.546Z" fill="white"/>
<path d="M839.027 935.816L834.924 938.201L834.891 938.22C833.198 939.204 832.571 941.472 833.49 943.285C834.405 945.09 836.51 945.764 838.201 944.796L842.382 942.402C844.088 941.425 844.731 939.151 843.819 937.325C842.907 935.498 840.784 934.809 839.078 935.786L839.058 935.797L839.027 935.816Z" fill="white"/>
<path d="M825.264 943.58L821.086 945.802L821.05 945.821C819.349 946.725 818.655 948.936 819.5 950.757C820.341 952.57 822.393 953.315 824.09 952.427L828.352 950.196C830.066 949.3 830.776 947.085 829.938 945.249C829.1 943.414 827.033 942.653 825.319 943.551L825.299 943.561L825.264 943.58Z" fill="white"/>
<path d="M811.246 950.78L806.991 952.82L806.952 952.839C805.244 953.658 804.48 955.806 805.244 957.636C806.006 959.458 807.999 960.277 809.703 959.474L814.047 957.425C815.769 956.614 816.549 954.462 815.791 952.619C815.034 950.776 813.025 949.941 811.304 950.752L811.284 950.761L811.246 950.78Z" fill="white"/>
<path d="M796.98 957.351L792.654 959.189L792.611 959.207C790.897 959.935 790.058 962.015 790.739 963.851C791.417 965.68 793.347 966.577 795.056 965.865L799.477 964.02C801.203 963.3 802.058 961.217 801.385 959.368C800.712 957.519 798.767 956.604 797.041 957.324L797.021 957.332L796.98 957.351Z" fill="white"/>
<path d="M782.461 963.235L778.064 964.855L778.019 964.871C776.299 965.504 775.386 967.509 775.977 969.35C776.565 971.182 778.427 972.161 780.139 971.544L784.635 969.922C786.365 969.297 787.295 967.29 786.713 965.437C786.13 963.583 784.255 962.588 782.525 963.212L782.505 963.219L782.461 963.235Z" fill="white"/>
<path d="M767.708 968.366L763.242 969.749L763.193 969.764C761.474 970.296 760.482 972.221 760.979 974.062C761.475 975.897 763.26 976.956 764.974 976.439L769.545 975.057C771.276 974.534 772.282 972.608 771.794 970.753C771.306 968.9 769.506 967.821 767.775 968.344L767.755 968.351L767.708 968.366Z" fill="white"/>
<path d="M752.736 972.685L748.209 973.808L748.153 973.823C746.436 974.249 745.367 976.085 745.765 977.924C746.161 979.755 747.865 980.899 749.575 980.487L754.221 979.366C755.948 978.95 757.034 977.112 756.645 975.262C756.256 973.412 754.539 972.249 752.812 972.666L752.792 972.671L752.736 972.685Z" fill="white"/>
<path d="M737.578 976.09L732.995 976.921L732.939 976.931C731.228 977.242 730.075 978.978 730.365 980.811C730.654 982.636 732.265 983.867 733.968 983.571L738.667 982.752C740.389 982.451 741.557 980.714 741.276 978.87C740.996 977.027 739.373 975.777 737.652 976.076L737.632 976.079L737.578 976.09Z" fill="white"/>
<path d="M722.253 978.513L717.632 979.046L717.576 979.052C715.877 979.248 714.648 980.88 714.831 982.699C715.013 984.51 716.527 985.823 718.218 985.641L722.955 985.127C724.662 984.941 725.907 983.309 725.734 981.48C725.561 979.65 724.036 978.318 722.328 978.503L722.308 978.505L722.253 978.513Z" fill="white"/>
<path d="M706.819 979.933L702.177 980.158L702.119 980.162C700.44 980.243 699.141 981.768 699.217 983.566C699.294 985.357 700.707 986.745 702.378 986.675L707.135 986.475C708.824 986.404 710.138 984.881 710.071 983.073C710.005 981.266 708.583 979.857 706.895 979.928L706.876 979.929L706.819 979.933Z" fill="white"/>
<path d="M691.336 980.322L686.69 980.232L686.632 980.231C684.978 980.199 683.614 981.608 683.584 983.38C683.555 985.143 684.861 986.6 686.506 986.643L691.267 986.767C692.929 986.81 694.309 985.403 694.348 983.623C694.389 981.844 693.075 980.367 691.413 980.324H691.394L691.336 980.322Z" fill="white"/>
<path d="M675.865 979.643L671.236 979.225L671.177 979.22C669.556 979.073 668.132 980.362 667.995 982.097C667.859 983.826 669.053 985.347 670.663 985.503L675.407 985.964C677.035 986.122 678.475 984.838 678.622 983.094C678.77 981.35 677.57 979.809 675.941 979.651L675.923 979.65L675.865 979.643Z" fill="white"/>
<path d="M660.477 977.854L655.89 977.094L655.828 977.084C654.248 976.823 652.769 977.982 652.525 979.675C652.281 981.361 653.355 982.939 654.926 983.21L659.632 984.022C661.219 984.295 662.713 983.14 662.968 981.44C663.224 979.741 662.144 978.141 660.557 977.867L660.539 977.864L660.477 977.854Z" fill="white"/>
<path d="M645.254 974.909L640.732 973.793L640.67 973.778C639.138 973.4 637.61 974.423 637.257 976.064C636.906 977.697 637.853 979.327 639.375 979.713L644.015 980.891C645.553 981.281 647.094 980.263 647.458 978.616C647.823 976.97 646.872 975.318 645.334 974.928L645.316 974.924L645.254 974.909Z" fill="white"/>
<path d="M630.284 970.762L625.858 969.276L625.795 969.254C624.321 968.759 622.751 969.638 622.29 971.217C621.829 972.789 622.643 974.463 624.105 974.965L628.649 976.524C630.128 977.032 631.711 976.159 632.185 974.575C632.659 972.991 631.844 971.296 630.365 970.788L630.348 970.783L630.284 970.762Z" fill="white"/>
<path d="M615.675 965.369L611.379 963.506L611.314 963.478C609.909 962.868 608.309 963.594 607.739 965.099C607.172 966.597 607.842 968.303 609.235 968.92L613.646 970.873C615.055 971.497 616.671 970.779 617.254 969.27C617.838 967.76 617.167 966.03 615.757 965.406L615.738 965.397L615.675 965.369Z" fill="white"/>
<path d="M601.531 958.722L597.399 956.478L597.335 956.444C596.023 955.731 594.421 956.292 593.755 957.698C593.094 959.094 593.608 960.797 594.902 961.518L599.138 963.879C600.455 964.613 602.078 964.065 602.764 962.653C603.449 961.243 602.937 959.504 601.621 958.771L601.596 958.756L601.531 958.722Z" fill="white"/>
<path d="M587.985 950.786L584.058 948.153L583.998 948.112C582.79 947.302 581.197 947.695 580.439 948.988C579.688 950.274 580.045 951.966 581.234 952.783L585.255 955.543C586.467 956.375 588.079 955.997 588.857 954.699C589.633 953.401 589.28 951.675 588.068 950.843L588.046 950.827L587.985 950.786Z" fill="white"/>
<path d="M575.171 941.559L571.507 938.543L571.441 938.489C570.347 937.588 568.777 937.807 567.936 938.979C567.101 940.144 567.298 941.81 568.374 942.716L572.138 945.883C573.234 946.805 574.822 946.601 575.683 945.427C576.544 944.252 576.354 942.553 575.257 941.631L575.236 941.613L575.171 941.559Z" fill="white"/>
<path d="M563.319 931.015L559.972 927.593L559.917 927.537C558.951 926.55 557.421 926.587 556.498 927.622C555.582 928.649 555.612 930.274 556.559 931.264L559.981 934.838C560.947 935.847 562.494 935.825 563.436 934.791C564.378 933.757 564.358 932.1 563.392 931.092L563.374 931.073L563.319 931.015Z" fill="white"/>
<path d="M552.552 919.18L549.546 915.404L549.5 915.346C548.663 914.295 547.188 914.169 546.206 915.065C545.231 915.956 545.109 917.521 545.928 918.572L548.988 922.498C549.824 923.57 551.313 923.714 552.314 922.819C553.314 921.925 553.448 920.329 552.613 919.257L552.597 919.237L552.552 919.18Z" fill="white"/>
<path d="M542.949 906.224L540.307 902.143L540.269 902.085C539.559 900.989 538.155 900.716 537.133 901.477C536.116 902.231 535.859 903.722 536.551 904.816L539.229 909.045C539.936 910.16 541.353 910.452 542.394 909.696C543.437 908.939 543.709 907.421 543.002 906.306L542.989 906.285L542.949 906.224Z" fill="white"/>
<path d="M534.585 892.303L532.33 887.961L532.299 887.9C531.715 886.777 530.393 886.373 529.344 886.997C528.302 887.617 527.923 889.021 528.49 890.14L530.764 894.629C531.343 895.771 532.677 896.195 533.744 895.575C534.811 894.955 535.206 893.527 534.627 892.385L534.616 892.363L534.585 892.303Z" fill="white"/>
<path d="M527.543 877.561L525.702 872.998L525.677 872.936C525.218 871.801 523.988 871.278 522.928 871.769C521.875 872.256 521.388 873.562 521.83 874.691L523.677 879.399C524.129 880.553 525.369 881.096 526.446 880.611C527.523 880.127 528.03 878.798 527.578 877.644L527.569 877.622L527.543 877.561Z" fill="white"/>
<path d="M521.914 862.134L520.516 857.394L520.497 857.33C520.163 856.197 519.034 855.569 517.976 855.926C516.925 856.282 516.339 857.478 516.659 858.604L518.047 863.489C518.374 864.639 519.51 865.288 520.585 864.938C521.66 864.588 522.265 863.371 521.939 862.221L521.933 862.199L521.914 862.134Z" fill="white"/>
<path d="M517.804 846.166L516.886 841.295L516.873 841.228C516.663 840.11 515.646 839.388 514.603 839.613C513.567 839.837 512.894 840.914 513.091 842.023L513.987 847.038C514.189 848.172 515.212 848.916 516.271 848.7C517.33 848.483 518.024 847.388 517.821 846.254L517.817 846.233L517.804 846.166Z" fill="white"/>
<path d="M515.336 829.819L514.935 824.866L514.929 824.797C514.841 823.709 513.946 822.904 512.931 822.999C511.922 823.093 511.174 824.04 511.25 825.118L511.614 830.214C511.692 831.317 512.59 832.143 513.621 832.059C514.65 831.976 515.421 831.013 515.343 829.91L515.341 829.889L515.336 829.819Z" fill="white"/>
<path d="M514.637 813.277L514.792 808.312L514.794 808.241C514.827 807.199 514.063 806.326 513.09 806.291C512.124 806.256 511.313 807.064 511.27 808.096L511.062 813.2C511.018 814.256 511.783 815.151 512.77 815.196C513.757 815.243 514.591 814.423 514.635 813.367L514.636 813.347L514.637 813.277Z" fill="white"/>
<path d="M515.833 796.777L516.577 791.875L516.587 791.805C516.736 790.824 516.114 789.899 515.197 789.74C514.287 789.582 513.428 790.239 513.27 791.21L512.456 796.245C512.295 797.24 512.918 798.185 513.847 798.357C514.776 798.529 515.658 797.863 515.819 796.868L515.822 796.85L515.833 796.777Z" fill="white"/>
<path d="M519.016 780.589L520.365 775.836L520.385 775.769C520.642 774.865 520.166 773.907 519.32 773.632C518.48 773.358 517.593 773.862 517.329 774.755L515.894 779.627C515.624 780.543 516.098 781.52 516.954 781.81C517.809 782.099 518.722 781.591 518.993 780.674L518.997 780.657L519.016 780.589Z" fill="white"/>
<path d="M1512.51 717.358C1512.51 717.358 1526.09 682.774 1474.87 689.747C1423.65 696.72 1436.1 716.818 1432.05 732.525C1428 748.231 1406.51 766.03 1346.72 790.264C1286.92 814.497 1304.65 880.564 1331.51 902.493C1358.37 924.421 1373.02 909.847 1379.26 947.694C1385.51 985.541 1410.43 1016.28 1441.52 984.195C1472.61 952.112 1507.95 914.173 1498.07 864.426C1488.19 814.678 1499.38 824.089 1518.67 801.268C1537.96 778.445 1497.07 756.354 1512.51 717.358Z" fill="url(#paint45_linear_360_947)"/>
<path d="M1501.08 809.963C1509.21 801.389 1517.12 821.997 1519.23 827.16C1524.56 840.201 1530.11 851.905 1541.36 860.841C1548.32 866.369 1557.73 869.915 1566.54 867.258C1598.27 857.69 1598.42 831.2 1599.13 811.356C1598.39 805.728 1601.64 800.149 1605.58 798.41C1610.14 796.388 1611.89 791.475 1611.89 791.475C1611.89 791.475 1615 798.629 1611.18 801.982C1609.85 803.155 1609.46 804.54 1609.5 805.851C1609.94 805.773 1610.4 805.703 1610.88 805.639C1620.42 804.4 1610.85 818.59 1610.85 818.59C1610.85 818.59 1620.08 870.529 1577.79 891.172C1556.86 901.389 1540.8 898.968 1529.89 893.912C1524.38 891.912 1519.63 888.318 1515.56 883.736C1513.92 882.037 1513.09 880.889 1513.09 880.889L1513.08 880.725C1496.21 858.419 1493.28 818.185 1501.08 809.963Z" fill="url(#paint46_linear_360_947)"/>
<path d="M1337.88 760.744C1338.69 759.134 1340.98 759.387 1341.45 761.138C1343.18 767.622 1347.37 778.934 1356.18 782.951C1356.52 783.106 1356.91 783.07 1357.22 782.855C1357.53 782.639 1357.71 782.275 1357.7 781.888C1357.68 781.085 1357.44 780.234 1356.89 779.357C1355.74 777.523 1355.95 775.406 1356.58 773.571C1356.85 772.785 1357.55 772.247 1358.36 772.212C1359.16 772.177 1359.9 772.653 1360.24 773.414C1360.85 774.826 1361.8 776.348 1363.25 777.595C1366.54 780.43 1368.12 786.739 1365.87 791.915C1361.11 811.145 1353.97 836.578 1381.76 855.158C1409.54 873.739 1448.66 820.093 1448.66 820.093L1450.41 868.655C1450.41 868.655 1399.27 907.069 1364.41 874.741C1329.54 842.413 1352.65 795.371 1352.65 795.371C1352.65 795.371 1326.06 784.223 1337.88 760.744Z" fill="url(#paint47_linear_360_947)"/>
<path d="M1500.72 806.668C1492.41 804.078 1468.22 799.297 1445.2 821.374C1441.3 825.119 1439.7 830.809 1441.09 836.137C1447.28 859.793 1463.59 929.685 1449.29 959.925C1449.29 959.925 1474.49 988.803 1501.98 965.528C1501.98 965.528 1514.32 909.642 1530.48 885.108C1541.63 868.17 1512.69 821.503 1505.36 810.229C1504.26 808.522 1502.62 807.259 1500.72 806.668Z" fill="url(#paint48_linear_360_947)"/>
<path d="M1477.78 759.668C1477.78 759.668 1465.49 795.804 1464.56 811.745C1464.56 811.745 1478.15 818.166 1490.95 807.329C1490.95 807.329 1492.29 771.235 1494.23 764.772L1477.78 759.668Z" fill="url(#paint49_linear_360_947)"/>
<path d="M1504.21 723.385C1502.9 718.299 1499.08 714.316 1494.19 712.944C1487.64 711.107 1478.46 709.587 1472.62 713.105C1462.74 719.065 1462.74 745.807 1462.74 745.807C1462.74 745.807 1475.38 784.507 1497.56 777.297C1514.51 771.785 1508.15 738.681 1504.21 723.385Z" fill="url(#paint50_linear_360_947)"/>
<path d="M1454.95 709.942C1461.03 694.714 1479.97 699.224 1479.97 699.224C1479.97 699.224 1494.74 702.861 1496.81 709.806C1497.74 712.931 1493.59 715.954 1488.16 718.362C1476.07 723.726 1467.28 735.026 1464.79 748.446L1464.22 751.535C1464.22 751.535 1448.86 725.169 1454.95 709.942Z" fill="url(#paint51_linear_360_947)"/>
<path d="M1473.31 749.551C1473.31 749.551 1465.53 731.365 1458.03 739.264C1450.53 747.162 1464.01 759.111 1470.74 756.19L1473.31 749.551Z" fill="url(#paint52_linear_360_947)"/>
<path d="M1534.08 1082.87C1533.98 1085.4 1538.27 1105.53 1540.6 1116.26C1541.54 1120.58 1540.89 1125.1 1538.77 1128.94L1458 1270.24C1457.02 1271.95 1456.31 1273.81 1455.88 1275.74C1454.4 1282.37 1451.33 1298.62 1452.93 1313.41L1457.11 1322.43L1439.04 1318.16L1435.11 1267.72L1440.22 1264.48C1444.64 1261.68 1448.09 1257.49 1450.06 1252.51C1457.36 1234.07 1475.5 1187.13 1480.17 1164.26C1485.48 1138.26 1513.26 1117.14 1513.26 1117.14L1508.38 1105.15L1534.08 1082.87Z" fill="url(#paint53_linear_360_947)"/>
<path d="M1418.96 1300.81C1418.96 1300.81 1428.72 1284.73 1429.86 1278.47C1431.01 1272.21 1434.21 1261.15 1440.22 1264.48C1440.22 1264.48 1443.06 1294.89 1442.08 1306.77C1441.11 1318.65 1455.01 1318.27 1455.01 1318.27C1455.01 1318.27 1458.84 1318.83 1461.64 1321.74C1463.58 1323.76 1462.19 1327.25 1459.46 1327.43C1454.91 1327.74 1447.69 1327.82 1440.1 1326.29C1437.45 1325.76 1435.48 1323.42 1435.32 1320.61L1433.32 1285.62L1421.01 1301.77L1418.96 1300.81Z" fill="url(#paint54_linear_360_947)"/>
<path d="M1485.83 1105.37C1485.83 1105.37 1482.98 1231.77 1482.59 1249.72C1482.21 1267.67 1485.32 1307.45 1502.63 1319.34L1495.1 1325.14C1495.1 1325.14 1485.68 1316.82 1476.49 1300.82C1466.15 1282.83 1463.03 1279.55 1463.03 1279.55L1466.46 1272.25C1467.96 1269.05 1468.4 1265.44 1467.71 1261.96C1463.97 1243.13 1451.49 1180.53 1448.09 1167.05C1444.07 1151.13 1443.78 1129.88 1457.76 1112.09C1471.75 1094.3 1485.83 1105.37 1485.83 1105.37Z" fill="url(#paint55_linear_360_947)"/>
<path d="M1469.84 1330.84C1469.3 1330.84 1468.85 1330.44 1468.77 1329.89C1468.19 1325.68 1465.8 1308.78 1463.83 1304.41C1461.58 1299.4 1454.24 1278.31 1463.84 1276.52C1463.84 1276.52 1487.69 1312.75 1492.27 1317.64C1496.85 1322.52 1502.63 1319.34 1502.63 1319.34C1502.63 1319.34 1507.1 1320.71 1510.46 1325.18C1512.06 1327.31 1510.57 1330.43 1507.97 1330.46L1491.9 1330.62C1487.23 1330.67 1483.04 1327.72 1481.3 1323.22C1478.47 1315.87 1473.62 1305.1 1467.95 1300.32L1470.9 1329.61C1470.96 1330.26 1470.47 1330.83 1469.84 1330.84Z" fill="url(#paint56_linear_360_947)"/>
<path d="M1505.79 951.9C1505.79 951.9 1502.16 963.897 1507.73 983.657L1542.24 1108.92C1542.78 1110.89 1541.76 1112.95 1539.9 1113.64C1529.58 1117.49 1495.65 1128.37 1449.33 1125.05C1446.99 1124.89 1445.04 1123.17 1444.53 1120.8C1441.48 1106.52 1431.07 1057.79 1428.92 1047.78C1420.75 1009.64 1411.63 968.5 1451.76 943.626C1470.26 951.86 1487.51 956.713 1505.79 951.9Z" fill="url(#paint57_linear_360_947)"/>
<path d="M1585.74 831.733C1584.82 829.613 1585.05 826.835 1585.26 824.638C1585.74 819.547 1585.7 814.472 1585.78 809.357C1585.99 796.108 1585.87 782.824 1586.88 769.605C1587.1 766.752 1586.81 763.89 1587.02 761.05C1587.57 753.839 1591.63 751.711 1598.4 750.207C1604.13 748.935 1610.37 747.183 1616.28 748.489C1618.61 749.004 1620.86 750.328 1621.15 752.855C1622.32 763.06 1622.03 829.936 1610.18 831.776C1606.18 832.398 1602.21 833.125 1598.23 833.87C1595.4 834.399 1591.62 835.516 1588.77 834.52C1587.21 833.977 1586.28 832.967 1585.74 831.733Z" fill="url(#paint58_linear_360_947)"/>
<path d="M1590.44 831.733C1589.52 829.613 1589.75 826.835 1589.96 824.638C1590.44 819.547 1590.4 814.472 1590.48 809.357C1590.69 796.108 1590.57 782.824 1591.59 769.605C1591.8 766.752 1591.51 763.89 1591.72 761.05C1592.27 753.839 1596.34 751.711 1603.1 750.207C1608.83 748.935 1615.07 747.183 1620.99 748.489C1623.32 749.004 1625.56 750.328 1625.85 752.855C1627.02 763.06 1626.73 829.936 1614.88 831.776C1610.88 832.398 1606.91 833.125 1602.93 833.87C1600.1 834.399 1596.32 835.516 1593.47 834.52C1591.91 833.977 1590.98 832.967 1590.44 831.733Z" fill="url(#paint59_linear_360_947)"/>
<path d="M1622.94 817.13C1622.94 817.13 1625.53 815.299 1627.67 804.36C1629.8 793.421 1631.91 786.795 1627.67 781.72C1623.42 776.645 1616.84 776.424 1616.84 781.72C1616.84 787.016 1617.94 796.77 1617.18 804.36C1616.41 811.948 1618.22 829.9 1622.94 817.13Z" fill="url(#paint60_linear_360_947)"/>
<path opacity="0.8" d="M1459.75 706.242C1454.84 707.325 1450.11 709.743 1446.48 713.525C1444.7 715.451 1443.31 717.771 1442.41 720.286L1441.81 722.205L1441.46 724.189C1441.22 725.526 1441.1 726.76 1440.89 728.046C1439.1 738.18 1434.81 747.856 1428.45 755.748C1425.31 759.728 1421.65 763.269 1417.6 766.235C1413.57 769.248 1409.07 771.459 1404.54 773.713C1400.01 775.945 1395.41 778.032 1390.75 779.949C1386.1 781.907 1381.38 783.683 1376.54 785.089C1386.39 782.913 1395.85 779.101 1405.08 774.95C1409.69 772.896 1414.3 770.577 1418.49 767.551C1422.68 764.546 1426.49 760.943 1429.75 756.872C1436.19 748.659 1440.61 738.722 1442.17 728.26C1442.34 726.964 1442.44 725.591 1442.63 724.356L1442.9 722.475L1443.42 720.654C1444.2 718.258 1445.45 716.026 1447.08 714.112C1450.38 710.275 1454.95 707.702 1459.75 706.242Z" fill="white"/>
<path opacity="0.8" d="M1329.72 815.832C1325.63 822.077 1322.74 829.159 1320.88 836.505C1319.03 843.866 1318.5 851.613 1319.4 859.214C1320.47 866.787 1323.06 874.134 1327.06 880.534C1328.13 882.088 1329.11 883.695 1330.31 885.139C1330.89 885.872 1331.44 886.632 1332.05 887.341L1333.91 889.423C1335.13 890.839 1336.57 892.022 1337.88 893.326C1339.25 894.572 1340.71 895.705 1342.12 896.872C1336.73 891.844 1331.9 886.182 1328.17 879.816C1326.42 876.573 1324.73 873.288 1323.58 869.767C1322.4 866.266 1321.56 862.65 1321.08 858.978C1320.07 851.627 1320.6 844.102 1322.14 836.822C1322.9 833.174 1323.95 829.586 1325.22 826.08C1326.46 822.558 1327.96 819.132 1329.72 815.832Z" fill="white"/>
<path d="M1688.29 591.489H1539.38C1525.99 591.489 1515.13 602.775 1515.13 616.697V656.414C1515.13 670.335 1525.99 681.622 1539.38 681.622H1585.37C1586.52 681.622 1587.57 682.323 1588.04 683.414L1607.09 727.383C1607.51 728.331 1608.4 728.956 1609.4 728.991C1610.4 729.026 1611.33 728.468 1611.81 727.55L1634.65 683.225C1635.16 682.238 1636.16 681.621 1637.23 681.621H1688.29C1701.68 681.621 1712.54 670.334 1712.54 656.413V616.696C1712.54 602.776 1701.68 591.489 1688.29 591.489Z" fill="url(#paint61_linear_360_947)"/>
<path d="M1658.42 635.509C1658.42 651.221 1652.49 661.069 1641.28 661.069C1630.43 661.069 1624.64 650.846 1624.57 635.96C1624.57 620.775 1630.79 610.551 1641.78 610.551C1653.14 610.552 1658.42 621.076 1658.42 635.509ZM1633.54 635.96C1633.46 647.839 1636.65 654.003 1641.57 654.003C1646.77 654.003 1649.52 647.387 1649.52 635.66C1649.52 624.31 1646.92 617.619 1641.57 617.619C1636.79 617.619 1633.47 623.707 1633.54 635.96Z" fill="white"/>
<path d="M1697.17 635.509C1697.17 651.221 1691.24 661.069 1680.03 661.069C1669.18 661.069 1663.4 650.846 1663.33 635.96C1663.33 620.775 1669.55 610.551 1680.54 610.551C1691.89 610.552 1697.17 621.076 1697.17 635.509ZM1672.29 635.96C1672.22 647.839 1675.41 654.003 1680.32 654.003C1685.53 654.003 1688.28 647.387 1688.28 635.66C1688.28 624.31 1685.67 617.619 1680.32 617.619C1675.55 617.619 1672.22 623.707 1672.29 635.96Z" fill="white"/>
<path d="M1588.05 659.655V654.23L1593.41 649.093C1604.06 638.822 1609.07 633.18 1609.14 626.959C1609.14 622.764 1606.98 619.074 1601.07 619.074C1597.1 619.074 1593.69 621.172 1591.39 622.981L1588.89 616.688C1592.16 613.939 1597.1 611.841 1602.81 611.841C1612.83 611.841 1617.7 618.423 1617.7 626.091C1617.7 634.337 1611.99 640.992 1604.13 648.587L1600.16 652.132V652.276H1618.74V659.655H1588.05Z" fill="white"/>
<path d="M1566.14 624.605C1566.14 630.795 1561.31 637.477 1555.36 637.477C1549.41 637.477 1544.58 630.794 1544.58 624.605C1544.58 618.415 1549.41 614.023 1555.36 614.023C1561.31 614.023 1566.14 618.414 1566.14 624.605Z" fill="white"/>
<path d="M1541.98 661.309H1568.3C1571.07 661.309 1573.53 659.448 1574.37 656.705L1575.79 652.103C1576.82 648.733 1575.14 645.086 1571.94 643.87C1561.23 639.799 1550.15 640.321 1538.81 644.246C1535.63 645.346 1533.86 648.88 1534.74 652.241L1535.83 656.42C1536.58 659.306 1539.1 661.309 1541.98 661.309Z" fill="white"/>
<g opacity="0.5">
<path d="M431.864 551.058C431.864 558.098 426.373 563.806 419.599 563.806H79.8402C73.0666 563.806 67.5754 558.098 67.5754 551.058V549.729C67.5754 542.688 73.0666 536.98 79.8402 536.98H419.598C426.372 536.98 431.863 542.688 431.863 549.729L431.864 551.058Z" fill="white"/>
<path d="M386.204 657.571C386.204 663.908 381.262 669.045 375.165 669.045H152.068C145.971 669.045 141.029 663.908 141.029 657.571V656.788C141.029 650.451 145.971 645.314 152.068 645.314H375.166C381.263 645.314 386.205 650.451 386.205 656.788L386.204 657.571Z" fill="white"/>
<path d="M457.672 607.015C457.672 613.352 452.73 618.489 446.633 618.489H223.536C217.439 618.489 212.497 613.352 212.497 607.015V606.232C212.497 599.895 217.439 594.758 223.536 594.758H446.634C452.731 594.758 457.673 599.895 457.673 606.232L457.672 607.015Z" fill="white"/>
</g>
<g opacity="0.5">
<path d="M2084.56 889.114C2084.56 895.785 2079.36 901.191 2072.94 901.191H1751.75C1745.33 901.191 1740.13 895.783 1740.13 889.114V887.475C1740.13 880.804 1745.33 875.398 1751.75 875.398H2072.94C2079.36 875.398 2084.56 880.805 2084.56 887.475V889.114Z" fill="white"/>
<path d="M2008.13 966.671C2008.13 972.674 2003.45 977.541 1997.67 977.541H1786.32C1780.54 977.541 1775.86 972.674 1775.86 966.671V965.712C1775.86 959.709 1780.54 954.842 1786.32 954.842H1997.67C2003.45 954.842 2008.13 959.709 2008.13 965.712V966.671Z" fill="white"/>
<path d="M1944.6 929.528C1944.6 935.531 1939.92 940.398 1934.15 940.398H1722.79C1717.02 940.398 1712.33 935.531 1712.33 929.528V928.569C1712.33 922.566 1717.02 917.699 1722.79 917.699H1934.15C1939.92 917.699 1944.6 922.566 1944.6 928.569V929.528Z" fill="white"/>
</g>
</g>
<defs>
<linearGradient id="paint0_linear_360_947" x1="32.869" y1="634.191" x2="2121.37" y2="634.191" gradientUnits="userSpaceOnUse">
<stop stop-color="#B37CFF"/>
<stop offset="1" stop-color="#F895E7"/>
</linearGradient>
<linearGradient id="paint1_linear_360_947" x1="2076.49" y1="669.156" x2="0" y2="669.156" gradientUnits="userSpaceOnUse">
<stop stop-color="#B37CFF"/>
<stop offset="1" stop-color="#F895E7"/>
</linearGradient>
<linearGradient id="paint2_linear_360_947" x1="-905.243" y1="-1761.65" x2="2317.6" y2="1533.02" gradientUnits="userSpaceOnUse">
<stop stop-color="#53D8FF"/>
<stop offset="1" stop-color="#3840F7"/>
</linearGradient>
<linearGradient id="paint3_linear_360_947" x1="-691.535" y1="-936.663" x2="1380.33" y2="1181.38" gradientUnits="userSpaceOnUse">
<stop stop-color="#53D8FF"/>
<stop offset="1" stop-color="#3840F7"/>
</linearGradient>
<linearGradient id="paint4_linear_360_947" x1="569.779" y1="-1082.49" x2="2641.65" y2="1035.56" gradientUnits="userSpaceOnUse">
<stop stop-color="#53D8FF"/>
<stop offset="1" stop-color="#3840F7"/>
</linearGradient>
<linearGradient id="paint5_linear_360_947" x1="571.241" y1="-770.378" x2="2643.11" y2="1347.67" gradientUnits="userSpaceOnUse">
<stop stop-color="#53D8FF"/>
<stop offset="1" stop-color="#3840F7"/>
</linearGradient>
<linearGradient id="paint6_linear_360_947" x1="144.957" y1="-1015.85" x2="2216.83" y2="1102.19" gradientUnits="userSpaceOnUse">
<stop stop-color="#53D8FF"/>
<stop offset="1" stop-color="#3840F7"/>
</linearGradient>
<linearGradient id="paint7_linear_360_947" x1="-868.471" y1="-1329.2" x2="2354.38" y2="1965.48" gradientUnits="userSpaceOnUse">
<stop stop-color="#53D8FF"/>
<stop offset="1" stop-color="#3840F7"/>
</linearGradient>
<linearGradient id="paint8_linear_360_947" x1="447.157" y1="-1490.9" x2="3670.01" y2="1803.79" gradientUnits="userSpaceOnUse">
<stop stop-color="#53D8FF"/>
<stop offset="1" stop-color="#3840F7"/>
</linearGradient>
<linearGradient id="paint9_linear_360_947" x1="-877.432" y1="-1047.19" x2="1592.1" y2="1477.37" gradientUnits="userSpaceOnUse">
<stop stop-color="#53D8FF"/>
<stop offset="1" stop-color="#3840F7"/>
</linearGradient>
<linearGradient id="paint10_linear_360_947" x1="466.34" y1="-968.002" x2="2935.87" y2="1556.57" gradientUnits="userSpaceOnUse">
<stop stop-color="#53D8FF"/>
<stop offset="1" stop-color="#3840F7"/>
</linearGradient>
<linearGradient id="paint11_linear_360_947" x1="-277.155" y1="-1755.64" x2="2945.69" y2="1539.03" gradientUnits="userSpaceOnUse">
<stop stop-color="#53D8FF"/>
<stop offset="1" stop-color="#3840F7"/>
</linearGradient>
<linearGradient id="paint12_linear_360_947" x1="416.076" y1="-1237.62" x2="3049.74" y2="1454.73" gradientUnits="userSpaceOnUse">
<stop stop-color="#53D8FF"/>
<stop offset="1" stop-color="#3840F7"/>
</linearGradient>
<linearGradient id="paint13_linear_360_947" x1="-899.726" y1="-1506.31" x2="1840.86" y2="1295.35" gradientUnits="userSpaceOnUse">
<stop stop-color="#53D8FF"/>
<stop offset="1" stop-color="#3840F7"/>
</linearGradient>
<linearGradient id="paint14_linear_360_947" x1="-428.908" y1="-608.271" x2="1352.62" y2="1212.96" gradientUnits="userSpaceOnUse">
<stop stop-color="#53D8FF"/>
<stop offset="1" stop-color="#3840F7"/>
</linearGradient>
<linearGradient id="paint15_linear_360_947" x1="37.5173" y1="-839.938" x2="1805.12" y2="967.059" gradientUnits="userSpaceOnUse">
<stop stop-color="#53D8FF"/>
<stop offset="1" stop-color="#3840F7"/>
</linearGradient>
<linearGradient id="paint16_linear_360_947" x1="1672.53" y1="1331.98" x2="1865.61" y2="569.61" gradientUnits="userSpaceOnUse">
<stop stop-color="#ED539F"/>
<stop offset="1" stop-color="#A061C2"/>
</linearGradient>
<linearGradient id="paint17_linear_360_947" x1="1713.8" y1="961.089" x2="1809.18" y2="961.089" gradientUnits="userSpaceOnUse">
<stop stop-color="#2B3582"/>
<stop offset="1" stop-color="#150E42"/>
</linearGradient>
<linearGradient id="paint18_linear_360_947" x1="1828.47" y1="842.983" x2="1838.21" y2="771.157" gradientUnits="userSpaceOnUse">
<stop stop-color="#ED539F"/>
<stop offset="1" stop-color="#A061C2"/>
</linearGradient>
<linearGradient id="paint19_linear_360_947" x1="1795.22" y1="1291.7" x2="1926.2" y2="957.589" gradientUnits="userSpaceOnUse">
<stop stop-color="#CE1567"/>
<stop offset="1" stop-color="#7A1DBC"/>
</linearGradient>
<linearGradient id="paint20_linear_360_947" x1="1843.7" y1="1045.44" x2="1915.45" y2="1061.68" gradientUnits="userSpaceOnUse">
<stop stop-color="#2B3582"/>
<stop offset="1" stop-color="#150E42"/>
</linearGradient>
<linearGradient id="paint21_linear_360_947" x1="541.012" y1="1268.33" x2="219.01" y2="597.709" gradientUnits="userSpaceOnUse">
<stop stop-color="#ED539F"/>
<stop offset="1" stop-color="#A061C2"/>
</linearGradient>
<linearGradient id="paint22_linear_360_947" x1="338.979" y1="909.323" x2="430.799" y2="890.434" gradientUnits="userSpaceOnUse">
<stop stop-color="#2B3582"/>
<stop offset="1" stop-color="#150E42"/>
</linearGradient>
<linearGradient id="paint23_linear_360_947" x1="308.926" y1="1326.89" x2="262.546" y2="912.258" gradientUnits="userSpaceOnUse">
<stop stop-color="#CE1567"/>
<stop offset="1" stop-color="#7A1DBC"/>
</linearGradient>
<linearGradient id="paint24_linear_360_947" x1="235.093" y1="1046.28" x2="318.558" y2="1026.89" gradientUnits="userSpaceOnUse">
<stop stop-color="#2B3582"/>
<stop offset="1" stop-color="#150E42"/>
</linearGradient>
<linearGradient id="paint25_linear_360_947" x1="1045" y1="517.441" x2="1197.07" y2="1758.92" gradientUnits="userSpaceOnUse">
<stop stop-color="#E40045"/>
<stop offset="1" stop-color="#5C0E16"/>
</linearGradient>
<linearGradient id="paint26_linear_360_947" x1="1059.51" y1="642.723" x2="1207.66" y2="1852.23" gradientUnits="userSpaceOnUse">
<stop stop-color="#E40045"/>
<stop offset="1" stop-color="#5C0E16"/>
</linearGradient>
<linearGradient id="paint27_linear_360_947" x1="600.257" y1="468.732" x2="521.292" y2="844.963" gradientUnits="userSpaceOnUse">
<stop stop-color="#C32B78"/>
<stop offset="1" stop-color="#593092"/>
</linearGradient>
<linearGradient id="paint28_linear_360_947" x1="553.867" y1="517.519" x2="721.747" y2="1193.23" gradientUnits="userSpaceOnUse">
<stop stop-color="#53D8FF"/>
<stop offset="1" stop-color="#3840F7"/>
</linearGradient>
<linearGradient id="paint29_linear_360_947" x1="761.945" y1="1443.71" x2="764.789" y2="1361.62" gradientUnits="userSpaceOnUse">
<stop stop-color="#7C27DD"/>
<stop offset="1" stop-color="#2B41D9"/>
</linearGradient>
<linearGradient id="paint30_linear_360_947" x1="855.785" y1="1233.6" x2="688.3" y2="1360.12" gradientUnits="userSpaceOnUse">
<stop stop-color="#53D8FF"/>
<stop offset="1" stop-color="#3840F7"/>
</linearGradient>
<linearGradient id="paint31_linear_360_947" x1="758.81" y1="1235.63" x2="768.343" y2="1315.67" gradientUnits="userSpaceOnUse">
<stop stop-color="#F9B776"/>
<stop offset="1" stop-color="#F47960"/>
</linearGradient>
<linearGradient id="paint32_linear_360_947" x1="608.853" y1="1273.02" x2="770.817" y2="1395.36" gradientUnits="userSpaceOnUse">
<stop stop-color="#53D8FF"/>
<stop offset="1" stop-color="#3840F7"/>
</linearGradient>
<linearGradient id="paint33_linear_360_947" x1="654.234" y1="1494.48" x2="651.389" y2="1412.39" gradientUnits="userSpaceOnUse">
<stop stop-color="#7C27DD"/>
<stop offset="1" stop-color="#2B41D9"/>
</linearGradient>
<linearGradient id="paint34_linear_360_947" x1="665.762" y1="1245.88" x2="674.68" y2="1320.76" gradientUnits="userSpaceOnUse">
<stop stop-color="#F9B776"/>
<stop offset="1" stop-color="#F47960"/>
</linearGradient>
<linearGradient id="paint35_linear_360_947" x1="716.769" y1="1243.49" x2="706.061" y2="920.691" gradientUnits="userSpaceOnUse">
<stop stop-color="#2C759E"/>
<stop offset="1" stop-color="#051042"/>
</linearGradient>
<linearGradient id="paint36_linear_360_947" x1="658.142" y1="491.675" x2="826.001" y2="1167.3" gradientUnits="userSpaceOnUse">
<stop stop-color="#53D8FF"/>
<stop offset="1" stop-color="#3840F7"/>
</linearGradient>
<linearGradient id="paint37_linear_360_947" x1="752.515" y1="721.597" x2="712.905" y2="721.597" gradientUnits="userSpaceOnUse">
<stop stop-color="#F9B776"/>
<stop offset="1" stop-color="#F47960"/>
</linearGradient>
<linearGradient id="paint38_linear_360_947" x1="716.636" y1="477.142" x2="884.495" y2="1152.77" gradientUnits="userSpaceOnUse">
<stop stop-color="#53D8FF"/>
<stop offset="1" stop-color="#3840F7"/>
</linearGradient>
<linearGradient id="paint39_linear_360_947" x1="742.875" y1="937.771" x2="815.648" y2="997.573" gradientUnits="userSpaceOnUse">
<stop stop-color="#F9B776"/>
<stop offset="1" stop-color="#F47960"/>
</linearGradient>
<linearGradient id="paint40_linear_360_947" x1="598.254" y1="718.523" x2="558.936" y2="734.504" gradientUnits="userSpaceOnUse">
<stop stop-color="#2B3582"/>
<stop offset="1" stop-color="#150E42"/>
</linearGradient>
<linearGradient id="paint41_linear_360_947" x1="559.906" y1="713.233" x2="563.051" y2="762.4" gradientUnits="userSpaceOnUse">
<stop stop-color="#F9B776"/>
<stop offset="1" stop-color="#F47960"/>
</linearGradient>
<linearGradient id="paint42_linear_360_947" x1="699.66" y1="667.305" x2="754.128" y2="766.195" gradientUnits="userSpaceOnUse">
<stop stop-color="#F9B776"/>
<stop offset="1" stop-color="#F47960"/>
</linearGradient>
<linearGradient id="paint43_linear_360_947" x1="746.131" y1="697.2" x2="668.07" y2="685.082" gradientUnits="userSpaceOnUse">
<stop stop-color="#2B3582"/>
<stop offset="1" stop-color="#150E42"/>
</linearGradient>
<linearGradient id="paint44_linear_360_947" x1="782.855" y1="753.068" x2="737.868" y2="691.484" gradientUnits="userSpaceOnUse">
<stop stop-color="#F9B776"/>
<stop offset="1" stop-color="#F47960"/>
</linearGradient>
<linearGradient id="paint45_linear_360_947" x1="1677.78" y1="731.905" x2="1427.17" y2="841.948" gradientUnits="userSpaceOnUse">
<stop stop-color="#2B3582"/>
<stop offset="1" stop-color="#150E42"/>
</linearGradient>
<linearGradient id="paint46_linear_360_947" x1="1505.6" y1="763.495" x2="1602.4" y2="877.973" gradientUnits="userSpaceOnUse">
<stop stop-color="#F9B776"/>
<stop offset="1" stop-color="#F47960"/>
</linearGradient>
<linearGradient id="paint47_linear_360_947" x1="1310.54" y1="725.413" x2="1442.95" y2="882.017" gradientUnits="userSpaceOnUse">
<stop stop-color="#F9B776"/>
<stop offset="1" stop-color="#F47960"/>
</linearGradient>
<linearGradient id="paint48_linear_360_947" x1="1528.7" y1="1248.93" x2="1576.33" y2="1639.19" gradientUnits="userSpaceOnUse">
<stop stop-color="#53D8FF"/>
<stop offset="1" stop-color="#3840F7"/>
</linearGradient>
<linearGradient id="paint49_linear_360_947" x1="1497.33" y1="829.657" x2="1476.46" y2="785.058" gradientUnits="userSpaceOnUse">
<stop stop-color="#F9B776"/>
<stop offset="1" stop-color="#F47960"/>
</linearGradient>
<linearGradient id="paint50_linear_360_947" x1="1472.14" y1="723.93" x2="1546.32" y2="805.979" gradientUnits="userSpaceOnUse">
<stop stop-color="#F9B776"/>
<stop offset="1" stop-color="#F47960"/>
</linearGradient>
<linearGradient id="paint51_linear_360_947" x1="1628.82" y1="644.719" x2="1379.74" y2="758.464" gradientUnits="userSpaceOnUse">
<stop stop-color="#2B3582"/>
<stop offset="1" stop-color="#150E42"/>
</linearGradient>
<linearGradient id="paint52_linear_360_947" x1="1490.97" y1="716.634" x2="1425.27" y2="787.728" gradientUnits="userSpaceOnUse">
<stop stop-color="#F9B776"/>
<stop offset="1" stop-color="#F47960"/>
</linearGradient>
<linearGradient id="paint53_linear_360_947" x1="1387.45" y1="1392.59" x2="1542.15" y2="1123.94" gradientUnits="userSpaceOnUse">
<stop stop-color="#F9B776"/>
<stop offset="1" stop-color="#F47960"/>
</linearGradient>
<linearGradient id="paint54_linear_360_947" x1="1418.91" y1="1296.01" x2="1462.29" y2="1295.61" gradientUnits="userSpaceOnUse">
<stop stop-color="#CB236D"/>
<stop offset="1" stop-color="#4C246D"/>
</linearGradient>
<linearGradient id="paint55_linear_360_947" x1="1553.76" y1="1189.52" x2="1330.89" y2="1260.33" gradientUnits="userSpaceOnUse">
<stop stop-color="#F9B776"/>
<stop offset="1" stop-color="#F47960"/>
</linearGradient>
<linearGradient id="paint56_linear_360_947" x1="1459.2" y1="1303.76" x2="1510.9" y2="1303.28" gradientUnits="userSpaceOnUse">
<stop stop-color="#CB236D"/>
<stop offset="1" stop-color="#4C246D"/>
</linearGradient>
<linearGradient id="paint57_linear_360_947" x1="1479.94" y1="1061.24" x2="1405.29" y2="1404.78" gradientUnits="userSpaceOnUse">
<stop stop-color="#2B3582"/>
<stop offset="1" stop-color="#150E42"/>
</linearGradient>
<linearGradient id="paint58_linear_360_947" x1="1602.94" y1="801.709" x2="1599.83" y2="872.656" gradientUnits="userSpaceOnUse">
<stop stop-color="#2B3582"/>
<stop offset="1" stop-color="#150E42"/>
</linearGradient>
<linearGradient id="paint59_linear_360_947" x1="1571.93" y1="745.645" x2="1634.28" y2="819.389" gradientUnits="userSpaceOnUse">
<stop stop-color="#2B3582"/>
<stop offset="1" stop-color="#150E42"/>
</linearGradient>
<linearGradient id="paint60_linear_360_947" x1="1604.51" y1="777.278" x2="1633.71" y2="811.814" gradientUnits="userSpaceOnUse">
<stop stop-color="#F9B776"/>
<stop offset="1" stop-color="#F47960"/>
</linearGradient>
<linearGradient id="paint61_linear_360_947" x1="1636.53" y1="519.719" x2="1554.47" y2="910.719" gradientUnits="userSpaceOnUse">
<stop stop-color="#C32B78"/>
<stop offset="1" stop-color="#593092"/>
</linearGradient>
<clipPath id="clip0_360_947">
<rect width="2300" height="1332" fill="white"/>
</clipPath>
</defs>
</svg>
