<svg width="2300" height="1332" viewBox="0 0 2300 1332" fill="none" xmlns="http://www.w3.org/2000/svg">
<path opacity="0.3" d="M1626.23 1145.3C1600.61 1173.82 1576.37 1192.21 1557.21 1206.73C1332.07 1377.51 1065.67 1327.73 1009.05 1315.57C925.443 1297.62 763.831 1262.92 646.989 1117.66C470.217 897.9 497.743 551.668 634.86 323.116C659.94 281.31 792.424 49.2762 1061.7 12.0653C1224.66 -10.4545 1414.62 34.9653 1552.18 156.805C1840.94 412.556 1820.39 929.22 1626.23 1145.3Z" fill="url(#paint0_linear_360_1368)"/>
<path d="M580.095 1155.03C580.095 1166.69 589.129 1176.24 600.17 1176.24H1685.73C1696.78 1176.24 1705.81 1166.69 1705.81 1155.03L1714.84 495.529C1714.84 483.868 1701.85 461.103 1678.03 462.813L617.097 433.792C603.243 433.413 589.848 439.05 580.038 449.388C570.228 459.725 564.86 473.858 565.188 488.491L580.095 1155.03Z" fill="url(#paint1_linear_360_1368)"/>
<path d="M599.914 1134.69C599.914 1145.74 608.46 1154.77 618.906 1154.77H1659.56C1670 1154.77 1678.55 1145.74 1678.55 1134.69L1687.07 535.988C1686.07 499.96 1656.19 487.011 1638.08 487.775L621.268 458.937C611.536 458.661 602.125 462.625 595.232 469.893C588.339 477.162 584.547 487.11 584.792 497.399L599.914 1134.69Z" fill="url(#paint2_linear_360_1368)"/>
<path d="M1667.3 850.266C1667.29 850.266 1667.27 850.266 1667.26 850.266C1665.72 850.243 1664.5 848.907 1664.52 847.28L1665.19 798.726C1665.21 797.116 1666.46 795.827 1667.97 795.827C1667.99 795.827 1668 795.827 1668.01 795.827C1669.55 795.85 1670.78 797.186 1670.76 798.814L1670.08 847.367C1670.06 848.977 1668.82 850.266 1667.3 850.266Z" fill="white"/>
<path d="M1668.96 731.284C1668.94 731.284 1668.93 731.284 1668.91 731.284C1667.38 731.261 1666.15 729.921 1666.17 728.297L1668.75 542.334C1668.71 531.288 1665.53 522.469 1659.33 516.181C1647.74 504.444 1629.34 505.044 1628.57 505.082L1303.57 495.869C1302.04 495.828 1300.82 494.474 1300.87 492.849C1300.91 491.225 1302.09 489.842 1303.72 489.989L1628.52 499.202C1630.54 499.075 1650.13 498.717 1663.18 511.931C1670.52 519.364 1674.26 529.605 1674.32 542.363L1671.74 728.385C1671.71 729.995 1670.47 731.284 1668.96 731.284Z" fill="white"/>
<path d="M520.544 1224.94H1743.65C1745.05 1224.94 1746.19 1223.73 1746.19 1222.25V1175.73C1746.19 1174.25 1745.05 1173.04 1743.65 1173.04H520.544C519.145 1173.04 518 1174.25 518 1175.73V1222.25C518 1223.73 519.145 1224.94 520.544 1224.94Z" fill="url(#paint3_linear_360_1368)"/>
<path opacity="0.32" d="M629.942 1099.4C629.942 1109.25 637.939 1117.32 647.713 1117.32H1621.47C1631.24 1117.32 1639.24 1109.25 1639.24 1099.4L1647.21 565.146C1646.27 532.996 1618.32 521.441 1601.37 522.123L649.923 496.389C640.816 496.142 632.011 499.68 625.561 506.166C619.11 512.652 615.563 521.529 615.791 530.71L629.942 1099.4Z" fill="white"/>
<path d="M1379.5 224.028C1426 224.028 1463.69 184.179 1463.69 135.024C1463.69 85.8683 1426 46.02 1379.5 46.02C1333 46.02 1295.31 85.8683 1295.31 135.024C1295.31 184.179 1333 224.028 1379.5 224.028Z" fill="url(#paint4_linear_360_1368)"/>
<path d="M1358.57 105.583C1358.57 103.289 1356.81 101.43 1354.64 101.43H1340.88C1338.71 101.43 1336.96 103.289 1336.96 105.583V171.913C1336.96 174.207 1338.71 176.066 1340.88 176.066H1354.64C1356.81 176.066 1358.57 174.207 1358.57 171.913V105.583Z" fill="white"/>
<path d="M1407.35 101.43H1393.15V83.5731C1393.15 77.8132 1390.27 74.0117 1384.82 74.0117H1384.47C1379.03 74.0117 1374.61 78.247 1374.61 84.0074L1369.91 101.784C1367.74 101.784 1364.33 103.427 1364.33 105.721V173.855C1364.33 176.149 1369.38 179.114 1371.55 179.114H1374.61H1407.35C1415.5 179.114 1421.97 171.023 1421.97 162.406V117.17C1421.97 108.552 1415.5 101.43 1407.35 101.43Z" fill="white"/>
<path d="M1576.38 172.024C1621.31 172.024 1657.74 133.515 1657.74 86.012C1657.74 38.5089 1621.31 0 1576.38 0C1531.45 0 1495.02 38.5089 1495.02 86.012C1495.02 133.515 1531.45 172.024 1576.38 172.024Z" fill="url(#paint5_linear_360_1368)"/>
<path d="M1611.27 62.0612C1602.44 52.888 1588.67 55.6476 1579.19 64.0601C1577.84 65.2661 1575.87 65.2799 1574.49 64.0991C1564.88 55.8636 1551.13 53.3566 1542.45 62.6877C1533.03 72.8195 1533.17 89.1046 1542.75 99.0627L1574.82 132.384C1576.27 133.897 1578.62 133.875 1580.05 132.336L1611.57 98.4362C1620.99 88.3054 1620.85 72.0198 1611.27 62.0612Z" fill="white"/>
<path d="M1706.66 316.616C1747.82 316.616 1781.18 281.344 1781.18 237.835C1781.18 194.326 1747.82 159.055 1706.66 159.055C1665.5 159.055 1632.14 194.326 1632.14 237.835C1632.14 281.344 1665.5 316.616 1706.66 316.616Z" fill="url(#paint6_linear_360_1368)"/>
<path d="M1706.25 194.961L1694.94 216.953L1672.13 219.848C1668.84 220.266 1667.28 224.604 1669.49 227.204L1684.9 245.32L1679.64 270.254C1678.87 273.92 1682.24 276.956 1685.34 275.378L1706.81 264.49L1727.64 277.856C1730.73 279.84 1734.54 277.151 1734.07 273.31L1730.88 247.312L1748.92 229.935C1751.56 227.393 1750.29 222.777 1746.78 222.13L1723.09 217.762L1713.59 195.09C1712.23 191.83 1707.89 191.761 1706.25 194.961Z" fill="white"/>
<path d="M1041.05 44.3359C1041.05 27.5508 1028.82 13.8074 1013.32 13.6423L551.035 8.7044C533.763 8.5203 520.153 22.7965 520.153 40.5953V147.035C520.153 164.834 533.923 179.154 551.195 179.016L1013.45 175.321C1028.96 175.197 1041.05 161.498 1041.05 144.713L1041.05 44.3359Z" fill="url(#paint7_linear_360_1368)"/>
<path d="M708.06 73.4438L717.419 91.5537L738.18 94.2035C740.409 94.4879 741.298 97.1224 739.686 98.6637L724.699 112.995L728.248 132.853C728.631 134.996 726.286 136.693 724.277 135.724L705.581 126.706L686.697 136.617C684.646 137.694 682.246 136.09 682.638 133.903L686.267 113.675L670.848 99.6247C669.175 98.1 670.098 95.3908 672.409 95.0426L693.668 91.8382L703.098 73.479C704.114 71.5019 707.046 71.4824 708.06 73.4438Z" fill="url(#paint8_linear_360_1368)"/>
<path d="M786.084 72.8853L795.061 90.6233L814.976 93.224C817.115 93.5032 817.968 96.084 816.422 97.5934L802.043 111.625L805.447 131.077C805.815 133.176 803.566 134.837 801.638 133.887L783.705 125.046L765.597 134.743C763.63 135.797 761.328 134.225 761.705 132.084L765.184 112.278L750.4 98.5153C748.796 97.0221 749.681 94.37 751.897 94.0294L772.28 90.8968L781.324 72.9195C782.299 70.9829 785.111 70.9639 786.084 72.8853Z" fill="url(#paint9_linear_360_1368)"/>
<path d="M860.949 72.3486L869.567 89.7298L888.689 92.2829C890.742 92.5569 891.562 95.0863 890.076 96.5648L876.271 110.31L879.539 129.371C879.892 131.428 877.732 133.055 875.882 132.123L858.666 123.453L841.286 132.945C839.398 133.975 837.189 132.435 837.551 130.337L840.89 110.937L826.703 97.4497C825.163 95.9864 826.013 93.389 828.139 93.0555L847.7 89.9919L856.381 72.3814C857.316 70.4838 860.016 70.4657 860.949 72.3486Z" fill="url(#paint10_linear_360_1368)"/>
<path d="M932.843 71.8338L941.122 88.872L959.497 91.3794C961.47 91.6487 962.258 94.1286 960.83 95.5776L947.564 109.047L950.705 127.733C951.043 129.75 948.968 131.343 947.191 130.429L930.65 121.923L913.954 131.219C912.141 132.228 910.02 130.717 910.367 128.662L913.574 109.65L899.948 96.4277C898.47 94.9934 899.286 92.4479 901.327 92.122L920.116 89.1241L928.454 71.8656C929.353 70.0056 931.946 69.988 932.843 71.8338Z" fill="url(#paint11_linear_360_1368)"/>
<path d="M1001.94 71.3385L1009.9 88.047L1027.57 90.5103C1029.47 90.7748 1030.23 93.2071 1028.85 94.6276L1016.09 107.833L1019.11 126.158C1019.44 128.135 1017.44 129.697 1015.74 128.8L999.831 120.453L983.78 129.559C982.037 130.548 979.998 129.066 980.331 127.05L983.414 108.411L970.317 95.4444C968.896 94.0377 969.68 91.5426 971.643 91.2238L989.703 88.2892L997.719 71.3685C998.584 69.5455 1001.08 69.5289 1001.94 71.3385Z" fill="url(#paint12_linear_360_1368)"/>
<path d="M920.328 48.9258C920.328 52.7358 917.31 55.8108 913.646 55.7903L681.655 54.514C677.797 54.4926 673.852 51.312 673.852 47.3983V46.1295C673.852 42.2158 677.771 39.0581 681.629 39.0861L913.26 40.7511C916.925 40.7778 920.328 43.8813 920.328 47.6913V48.9258Z" fill="url(#paint13_linear_360_1368)"/>
<path d="M594.717 154.479C562.02 154.648 535.249 127.991 535.249 95.0547C535.249 62.1181 562.02 35.5228 594.717 35.7688C627.187 36.0128 653.437 62.6695 653.437 95.1922C653.437 127.715 627.187 154.311 594.717 154.479Z" fill="white"/>
<path d="M648.707 95.1872C648.707 125.138 624.612 149.53 594.717 149.67C564.63 149.81 540.096 125.361 540.096 95.0606C540.096 64.76 564.63 40.3682 594.717 40.5785C624.612 40.7878 648.707 65.2362 648.707 95.1872Z" fill="url(#paint14_linear_360_1368)"/>
<mask id="mask0_360_1368" style="mask-type:luminance" maskUnits="userSpaceOnUse" x="540" y="40" width="109" height="110">
<path d="M648.707 95.1872C648.707 125.138 624.612 149.53 594.717 149.67C564.63 149.81 540.096 125.361 540.096 95.0606C540.096 64.76 564.63 40.3682 594.717 40.5785C624.612 40.7878 648.707 65.2362 648.707 95.1872Z" fill="white"/>
</mask>
<g mask="url(#mask0_360_1368)">
<path d="M620.713 83.5253C620.713 97.8729 609.151 109.508 594.85 109.514C580.505 109.519 568.843 97.8277 568.843 83.3998C568.843 68.9718 580.504 57.3368 594.85 57.4115C609.151 57.4867 620.713 69.1778 620.713 83.5253Z" fill="white"/>
<path d="M632.175 151.179C630.441 131.793 614.37 116.87 594.717 116.893C574.98 116.916 558.718 131.992 556.956 151.544L632.175 151.179Z" fill="white"/>
</g>
<path d="M1460.65 1315.64C1466.39 1323.85 1478.19 1323.18 1483.18 1314.45C1510.74 1266.29 1577.02 1122.65 1514.97 939.717C1462.56 785.239 1448.03 696.211 1444.08 655.312C1443.25 646.663 1432.46 644.168 1428.27 651.65C1382.08 734.199 1252.62 1018.47 1460.65 1315.64Z" fill="url(#paint15_linear_360_1368)"/>
<path opacity="0.5" d="M1474.67 1311.96C1474.42 1311.98 1474.16 1311.98 1473.9 1311.96C1471.82 1311.73 1470.31 1309.76 1470.52 1307.55C1470.76 1305.09 1493.96 1058.59 1430.74 841.911C1430.12 839.795 1431.24 837.549 1433.25 836.897C1435.25 836.236 1437.37 837.43 1437.99 839.546C1501.68 1057.82 1478.31 1305.9 1478.07 1308.38C1477.88 1310.31 1476.43 1311.78 1474.67 1311.96Z" fill="white"/>
<path d="M1409.24 1282.64C1346.92 1251.7 1180.67 1134.51 1316.06 805.475C1319.91 796.133 1332.96 798.201 1333.99 808.331C1338.78 855.784 1348.86 937.938 1375.57 981.371C1458.31 1115.93 1448.47 1222.48 1438.11 1267.96C1435.05 1281.43 1421.1 1288.53 1409.24 1282.64Z" fill="url(#paint16_linear_360_1368)"/>
<path opacity="0.5" d="M1421.77 1280.18C1420.65 1280.2 1419.52 1279.67 1418.78 1278.66C1354.94 1191.51 1328.46 1097.98 1317.48 1034.87C1305.59 966.461 1308.84 917.881 1308.88 917.397C1309.03 915.232 1310.81 913.631 1312.87 913.77C1314.91 913.933 1316.45 915.82 1316.3 917.986C1316.27 918.46 1313.09 966.233 1324.85 1033.71C1335.69 1095.89 1361.81 1188.03 1424.66 1273.84C1425.92 1275.56 1425.62 1278.03 1424 1279.36C1423.34 1279.9 1422.55 1280.17 1421.77 1280.18Z" fill="white"/>
<path d="M1503.6 901.911C1501.55 901.911 1499.86 900.193 1499.8 898.018C1499.76 896.668 1498.94 864.564 1508.03 830.284C1520.29 784.065 1544.88 756.671 1579.15 751.065C1596.15 748.283 1611.28 752.539 1624.1 763.716C1665.12 799.451 1669.03 893.742 1669.18 897.738C1669.26 899.955 1667.62 901.822 1665.53 901.908C1663.4 901.965 1661.66 900.266 1661.58 898.05C1661.55 897.107 1657.65 803.349 1619.26 769.912C1608.18 760.259 1595.08 756.589 1580.31 759.006C1504.57 771.398 1507.36 896.507 1507.4 897.769C1507.46 899.987 1505.82 901.84 1503.72 901.909C1503.68 901.91 1503.64 901.911 1503.6 901.911Z" fill="url(#paint17_linear_360_1368)"/>
<path d="M1353.32 1307.58L1414.62 868.216L1644.92 864.192L1719.15 1332H1373.26C1360.95 1332 1351.52 1320.45 1353.32 1307.58Z" fill="url(#paint18_linear_360_1368)"/>
<path d="M1689.65 868.215L1644.92 864.191L1719.15 1332H1763.55C1772.55 1332 1779.28 1323.25 1777.44 1313.94L1689.65 868.215Z" fill="url(#paint19_linear_360_1368)"/>
<path d="M1615.89 900.905C1613.86 900.905 1612.18 899.208 1612.1 897.044C1612.06 896.101 1608.17 802.343 1569.78 768.906C1558.69 759.253 1545.59 755.583 1530.83 758C1455.15 770.381 1457.88 895.502 1457.91 896.764C1457.98 898.982 1456.33 900.835 1454.23 900.903C1452.17 900.98 1450.38 899.229 1450.31 897.012C1450.27 895.662 1449.45 863.557 1458.54 829.278C1470.8 783.059 1495.4 755.665 1529.66 750.059C1546.66 747.28 1561.79 751.534 1574.62 762.71C1615.63 798.445 1619.54 892.736 1619.69 896.732C1619.77 898.949 1618.14 900.816 1616.04 900.902C1615.99 900.904 1615.94 900.905 1615.89 900.905Z" fill="url(#paint20_linear_360_1368)"/>
<path d="M1539.6 998.115L1570.13 1062.19L1637.89 1071.63C1645.16 1072.65 1648.07 1081.97 1642.8 1087.42L1593.88 1138.06L1605.46 1208.33C1606.71 1215.91 1599.06 1221.9 1592.51 1218.46L1531.52 1186.45L1469.97 1221.37C1463.29 1225.16 1455.47 1219.48 1456.75 1211.75L1468.57 1140.28L1418.35 1090.55C1412.9 1085.16 1415.91 1075.59 1423.43 1074.37L1492.68 1063.12L1523.42 998.232C1526.74 991.24 1536.3 991.176 1539.6 998.115Z" fill="white"/>
<mask id="mask1_360_1368" style="mask-type:luminance" maskUnits="userSpaceOnUse" x="624" y="136" width="1145" height="983">
<path d="M640.48 1090.05C640.48 1105.63 649.352 1118.38 660.195 1118.38H1740.43C1751.27 1118.38 1760.14 1105.63 1760.14 1090.05L1768.99 245.377C1767.95 194.547 1736.93 176.278 1718.13 177.357L662.646 136.67C652.543 136.281 642.775 141.874 635.62 152.129C628.464 162.384 624.529 176.418 624.782 190.935L640.48 1090.05Z" fill="white"/>
</mask>
<g mask="url(#mask1_360_1368)">
<path d="M1039.74 659.471C1039.74 659.471 1246.07 840.458 1276.88 786.426C1307.31 733.057 1099.02 542.158 1099.02 542.158L1039.74 659.471Z" fill="url(#paint21_linear_360_1368)"/>
<path d="M1270.8 548.586C1270.8 548.586 1233.91 687.077 1222.15 725.359C1210.4 763.64 1239.65 817.378 1280.37 792.109C1321.09 766.84 1316.4 564.656 1316.4 564.656L1270.8 548.586Z" fill="url(#paint22_linear_360_1368)"/>
<path d="M712.517 782.649C731.972 748.645 737.013 718.143 731.262 678.707C721.77 613.609 729.166 541.11 768.706 487.539C806.215 436.719 873.73 432.181 914.929 386.837C915.213 386.523 916.165 385.045 917.544 382.765C927.954 365.562 933.665 345.994 934.307 325.627C938.332 198.035 1026.8 199.524 1068.77 223.732C1135.22 262.058 1120.64 333.579 1120.64 333.579C1102.09 354.378 1035.87 310.048 1035.87 310.048L1008.35 356.407C1016.15 359.966 1024.53 363.988 1033.65 368.68C1096.02 400.763 1102.7 651.418 1067.58 691.509C1032.45 731.6 1026.27 769.869 1061.7 835.469C1097.14 901.069 1076.65 986.726 888.127 1057.8C857.594 1069.31 811.625 1070.55 781.465 1057.71C715.312 1029.56 678.926 947.022 677.136 875.906C676.227 839.812 695.659 812.116 712.517 782.649Z" fill="url(#paint23_linear_360_1368)"/>
<path d="M761.384 700.247C761.189 700.247 761.024 700.09 761.006 699.882C753.263 609.362 779.645 549.764 803.14 515.708C828.838 478.458 862.471 455.596 882.846 450.117C917.829 440.709 934.131 397.553 934.291 397.118C934.368 396.911 934.587 396.809 934.784 396.89C934.98 396.971 935.076 397.204 935 397.41C934.838 397.849 918.39 441.388 883.034 450.896C862.787 456.341 829.342 479.094 803.755 516.182C780.337 550.127 754.041 609.54 761.763 699.81C761.782 700.031 761.628 700.226 761.419 700.246C761.407 700.246 761.396 700.247 761.384 700.247Z" fill="white"/>
<path d="M792.154 1018.59C792.108 1018.59 792.062 1018.58 792.017 1018.56C791.828 1018.49 772.968 1010.69 754.525 992.272C737.496 975.271 717.339 945.491 718.014 900.159C718.017 899.937 718.185 899.741 718.4 899.763C718.61 899.767 718.777 899.949 718.774 900.172C718.104 945.197 738.117 974.779 755.025 991.666C773.362 1009.98 792.103 1017.74 792.291 1017.81C792.487 1017.89 792.584 1018.13 792.509 1018.33C792.45 1018.49 792.306 1018.59 792.154 1018.59Z" fill="white"/>
<path d="M932.636 988.579C911.088 1005.68 865.76 1020 849.66 1161.4L1128.31 1160.09C1116.82 1105.46 1103.8 1024.69 1084.96 1002.98L932.636 988.579Z" fill="url(#paint24_linear_360_1368)"/>
<path d="M1089.57 531.846C1063.81 523.055 988.64 506.209 915.458 574.65C903.046 586.257 897.712 604.196 901.718 621.194C919.507 696.668 970.482 902.804 923.966 997.744C923.966 997.744 972.523 1047.32 1091.16 1016.07C1091.16 1016.07 1125.47 859.453 1177.42 782.746C1213.28 729.787 1125.95 579.739 1103.82 543.466C1100.47 537.974 1095.45 533.854 1089.57 531.846Z" fill="url(#paint25_linear_360_1368)"/>
<path d="M1020.96 381.161C1020.96 381.161 980.349 494.942 976.458 545.448C976.458 545.448 1018.42 566.757 1059.03 533.268C1059.03 533.268 1065.5 418.862 1071.96 398.494L1020.96 381.161Z" fill="url(#paint26_linear_360_1368)"/>
<path d="M904.889 589.396C904.889 589.396 780.282 694.268 746.965 840.616C713.648 986.964 922.685 1007.24 922.685 1007.24C922.685 1007.24 951.772 974.326 985.275 987.041C1018.78 999.756 989.052 928.546 949.571 927.854C910.091 927.161 927.722 960.567 872.408 932.584C818.526 905.324 786.504 824.009 927.733 704.968C935.919 698.068 942.518 689.185 946.588 678.986C974.982 607.827 954.53 560.315 904.889 589.396Z" fill="url(#paint27_linear_360_1368)"/>
<path d="M1099.61 312.577C1099.61 312.577 1152.06 450.785 1094.17 471.912C1036.28 493.039 998.907 394.795 998.907 394.795C998.907 394.795 996.157 325.899 1021.68 309.407C1047.2 292.915 1099.61 312.577 1099.61 312.577Z" fill="url(#paint28_linear_360_1368)"/>
<path d="M1101.98 270.006C1101.98 270.006 1128.07 302.069 1122.69 322.956C1117.31 343.843 1059.66 324.724 1045.6 315.572L995.27 378.943C995.27 378.943 999.844 288.074 1034.07 258.679C1068.31 229.283 1101.98 270.006 1101.98 270.006Z" fill="url(#paint29_linear_360_1368)"/>
<path d="M1017.06 390.351C1017.06 390.351 994.644 344.396 975.625 365.608C956.605 386.82 993.483 416.049 1010.96 407.751L1017.06 390.351Z" fill="url(#paint30_linear_360_1368)"/>
<path d="M1189.75 459.223C1189.75 459.223 1241.21 602.714 1257.47 632.563C1276.35 667.214 1331.47 645.134 1328.73 616.135C1325.98 587.137 1261.58 467.277 1261.58 467.277L1189.75 459.223Z" fill="url(#paint31_linear_360_1368)"/>
<path d="M1259.28 354.698L1579.16 237.452L1575.8 554.739L1250.54 478.017L1259.28 354.698Z" fill="url(#paint32_linear_360_1368)"/>
<path d="M1579.46 560.073C1596.82 560.073 1610.89 487.07 1610.89 397.016C1610.89 306.963 1596.82 233.96 1579.46 233.96C1562.11 233.96 1548.04 306.963 1548.04 397.016C1548.04 487.07 1562.11 560.073 1579.46 560.073Z" fill="url(#paint33_linear_360_1368)"/>
<path d="M1581.85 548.922C1579.01 545.868 1572.82 534.087 1567.52 503.622C1562.39 474.181 1559.57 435.994 1559.57 396.096C1559.57 356.197 1562.39 318.01 1567.52 288.569C1572.82 258.104 1579.01 246.323 1581.85 243.269C1584.69 246.323 1590.88 258.104 1596.18 288.569C1601.31 318.01 1604.13 356.197 1604.13 396.096C1604.13 435.994 1601.31 474.181 1596.18 503.622C1590.88 534.087 1584.69 545.868 1581.85 548.922Z" fill="url(#paint34_linear_360_1368)"/>
<mask id="mask2_360_1368" style="mask-type:luminance" maskUnits="userSpaceOnUse" x="1559" y="243" width="83" height="306">
<path d="M1581.85 548.922C1579.01 545.868 1572.82 534.087 1567.52 503.622C1562.39 474.181 1559.57 435.994 1559.57 396.096C1559.57 356.197 1562.39 318.01 1567.52 288.569C1572.82 258.104 1579.01 246.323 1581.85 243.269C1584.69 246.323 1590.88 258.104 1596.18 288.569C1601.31 318.01 1641.77 356.197 1641.77 396.096C1641.77 435.994 1601.31 474.181 1596.18 503.622C1590.88 534.087 1584.69 545.868 1581.85 548.922Z" fill="white"/>
</mask>
<g mask="url(#mask2_360_1368)">
<path d="M1622.13 394.881C1622.13 422.586 1608.01 445.046 1580.07 445.046C1552.13 445.046 1529.48 422.586 1529.48 394.881C1529.48 367.176 1552.13 344.717 1580.07 344.717C1608.01 344.717 1622.13 367.176 1622.13 394.881Z" fill="url(#paint35_linear_360_1368)"/>
</g>
<path d="M1207.69 347.878C1222.74 346.031 1244.32 345.366 1267.65 351.014C1259.96 393.462 1261.12 437.705 1270.01 483.517H1204.21C1193.72 483.517 1184.77 475.461 1183.14 464.505C1179.86 442.546 1175.85 405.637 1180.12 375.994C1182.27 361.117 1193.55 349.614 1207.69 347.878Z" fill="url(#paint36_linear_360_1368)"/>
<path d="M1247.19 380.387H1195.92C1194.18 380.387 1192.64 379.423 1191.81 377.807C1190.98 376.191 1191.05 374.304 1191.99 372.759C1192.39 372.113 1193.2 371.931 1193.81 372.346C1194.43 372.764 1194.6 373.627 1194.2 374.274C1193.79 374.947 1193.76 375.769 1194.13 376.474C1194.49 377.178 1195.16 377.599 1195.92 377.599H1247.19C1248.31 377.599 1249.23 376.633 1249.23 375.444V371.587C1249.23 370.398 1248.31 369.432 1247.19 369.432H1195.54C1194.81 369.432 1194.22 368.808 1194.22 368.038C1194.22 367.269 1194.81 366.645 1195.54 366.645H1247.19C1249.76 366.645 1251.86 368.862 1251.86 371.587V375.444C1251.86 378.17 1249.76 380.387 1247.19 380.387Z" fill="white"/>
<path d="M1242.61 404.391H1191.34C1189.6 404.391 1188.07 403.427 1187.24 401.811C1186.41 400.195 1186.47 398.308 1187.42 396.763C1187.81 396.118 1188.63 395.936 1189.24 396.35C1189.85 396.769 1190.03 397.632 1189.63 398.278C1189.22 398.952 1189.19 399.774 1189.55 400.479C1189.92 401.183 1190.58 401.604 1191.34 401.604H1242.61C1243.74 401.604 1244.65 400.638 1244.65 399.449V395.593C1244.65 394.404 1243.74 393.437 1242.61 393.437H1190.96C1190.24 393.437 1189.65 392.812 1189.65 392.043C1189.65 391.274 1190.24 390.649 1190.96 390.649H1242.61C1245.19 390.649 1247.29 392.867 1247.29 395.592V399.448C1247.29 402.174 1245.19 404.391 1242.61 404.391Z" fill="white"/>
<path d="M1305.77 346.11C1305.21 346.11 1304.69 345.731 1304.51 345.139C1304.29 344.405 1304.67 343.622 1305.37 343.388L1547.64 261.886C1548.33 261.653 1549.07 262.058 1549.29 262.791C1549.51 263.525 1549.13 264.309 1548.44 264.543L1306.17 346.045C1306.03 346.089 1305.9 346.11 1305.77 346.11Z" fill="white"/>
<path d="M1273 360.269C1272.48 360.269 1271.99 359.942 1271.78 359.402C1271.51 358.69 1271.83 357.876 1272.5 357.585L1284.97 352.197C1285.65 351.904 1286.42 352.248 1286.69 352.96C1286.97 353.672 1286.64 354.486 1285.97 354.778L1273.5 360.166C1273.34 360.236 1273.17 360.269 1273 360.269Z" fill="white"/>
<path d="M1247.19 432.504H1195.92C1194.18 432.504 1192.64 431.539 1191.81 429.923C1190.98 428.307 1191.05 426.42 1191.99 424.876C1192.39 424.229 1193.2 424.046 1193.81 424.462C1194.43 424.88 1194.6 425.743 1194.2 426.389C1193.79 427.063 1193.76 427.886 1194.13 428.591C1194.49 429.295 1195.16 429.716 1195.92 429.716H1247.19C1248.31 429.716 1249.23 428.749 1249.23 427.56V423.704C1249.23 422.515 1248.31 421.549 1247.19 421.549H1195.54C1194.81 421.549 1194.22 420.925 1194.22 420.155C1194.22 419.386 1194.81 418.761 1195.54 418.761H1247.19C1249.76 418.761 1251.86 420.979 1251.86 423.704V427.56C1251.86 430.286 1249.76 432.504 1247.19 432.504Z" fill="white"/>
<path d="M1251.99 463.708H1200.72C1198.98 463.708 1197.44 462.744 1196.61 461.127C1195.78 459.511 1195.85 457.624 1196.79 456.08C1197.19 455.433 1198 455.25 1198.61 455.666C1199.23 456.084 1199.4 456.947 1199.01 457.593C1198.59 458.267 1198.56 459.09 1198.93 459.795C1199.29 460.499 1199.96 460.92 1200.72 460.92H1251.99C1253.11 460.92 1254.03 459.954 1254.03 458.765V454.908C1254.03 453.72 1253.11 452.753 1251.99 452.753H1200.34C1199.61 452.753 1199.02 452.129 1199.02 451.359C1199.02 450.589 1199.61 449.965 1200.34 449.965H1251.99C1254.57 449.965 1256.66 452.183 1256.66 454.907V458.765C1256.66 461.49 1254.56 463.708 1251.99 463.708Z" fill="white"/>
<path d="M1297.78 633.364C1295.41 633.364 1293.03 633.094 1290.64 632.545C1280.22 630.144 1271.73 622.878 1267.36 612.61L1226.4 516.409C1226.1 515.707 1226.4 514.883 1227.06 514.566C1227.73 514.249 1228.51 514.564 1228.8 515.265L1269.77 611.467C1273.79 620.921 1281.61 627.612 1291.21 629.822C1300.64 631.997 1310.18 629.415 1317.4 622.743C1317.78 622.385 1318.17 622.018 1318.56 621.641C1319.1 621.122 1319.93 621.161 1320.42 621.73C1320.92 622.298 1320.88 623.18 1320.34 623.699C1319.94 624.09 1319.53 624.47 1319.13 624.84C1313.11 630.413 1305.59 633.364 1297.78 633.364Z" fill="white"/>
<path d="M1221.55 503.006C1221.04 503.006 1220.56 502.7 1220.34 502.185L1215.77 491.453C1215.48 490.751 1215.77 489.927 1216.44 489.61C1217.1 489.294 1217.88 489.608 1218.18 490.309L1222.75 501.04C1223.05 501.742 1222.75 502.567 1222.09 502.884C1221.91 502.967 1221.73 503.006 1221.55 503.006Z" fill="white"/>
<path d="M1614.64 393.437C1613.95 393.437 1613.38 392.876 1613.33 392.142C1612.42 378.567 1607.97 368.446 1600.1 362.061C1586.49 351.019 1567.08 354.814 1566.89 354.855C1566.17 354.999 1565.48 354.507 1565.34 353.751C1565.21 352.995 1565.67 352.264 1566.39 352.119C1567.23 351.947 1587.17 348.055 1601.7 359.85C1610.19 366.742 1614.99 377.54 1615.96 391.944C1616.01 392.712 1615.46 393.379 1614.73 393.433C1614.7 393.436 1614.67 393.437 1614.64 393.437Z" fill="white"/>
<path d="M1246.89 527.44C1246.89 527.44 1265.87 499.982 1289.37 516.647C1312.87 533.311 1325.05 569.719 1321.67 572.507C1318.29 575.294 1196.19 574.324 1246.89 527.44Z" fill="url(#paint37_linear_360_1368)"/>
</g>
<defs>
<linearGradient id="paint0_linear_360_1368" x1="1933.09" y1="1722.84" x2="741.612" y2="323.108" gradientUnits="userSpaceOnUse">
<stop stop-color="#B37CFF"/>
<stop offset="1" stop-color="#F895E7"/>
</linearGradient>
<linearGradient id="paint1_linear_360_1368" x1="1139.25" y1="298.359" x2="1142.7" y2="1087.84" gradientUnits="userSpaceOnUse">
<stop stop-color="#2B3582"/>
<stop offset="1" stop-color="#150E42"/>
</linearGradient>
<linearGradient id="paint2_linear_360_1368" x1="1135.93" y1="482.107" x2="1135.93" y2="1586.99" gradientUnits="userSpaceOnUse">
<stop stop-color="#53D8FF"/>
<stop offset="1" stop-color="#3840F7"/>
</linearGradient>
<linearGradient id="paint3_linear_360_1368" x1="1137.73" y1="1139.45" x2="1212.71" y2="430.146" gradientUnits="userSpaceOnUse">
<stop stop-color="#2B3582"/>
<stop offset="1" stop-color="#150E42"/>
</linearGradient>
<linearGradient id="paint4_linear_360_1368" x1="1412.12" y1="1.68782" x2="1260.34" y2="556.812" gradientUnits="userSpaceOnUse">
<stop stop-color="#53D8FF"/>
<stop offset="1" stop-color="#3840F7"/>
</linearGradient>
<linearGradient id="paint5_linear_360_1368" x1="-534.43" y1="-2285.16" x2="4219.11" y2="2492.85" gradientUnits="userSpaceOnUse">
<stop stop-color="#A737D5"/>
<stop offset="1" stop-color="#EF497A"/>
</linearGradient>
<linearGradient id="paint6_linear_360_1368" x1="1738.96" y1="137.984" x2="1640.64" y2="409.967" gradientUnits="userSpaceOnUse">
<stop stop-color="#FDF53F"/>
<stop offset="1" stop-color="#D93C65"/>
</linearGradient>
<linearGradient id="paint7_linear_360_1368" x1="775.572" y1="-78.0209" x2="786.787" y2="268.501" gradientUnits="userSpaceOnUse">
<stop stop-color="#A737D5"/>
<stop offset="1" stop-color="#EF497A"/>
</linearGradient>
<linearGradient id="paint8_linear_360_1368" x1="710.009" y1="62.4704" x2="648.942" y2="462.106" gradientUnits="userSpaceOnUse">
<stop stop-color="#FDF53F"/>
<stop offset="1" stop-color="#D93C65"/>
</linearGradient>
<linearGradient id="paint9_linear_360_1368" x1="786.413" y1="74.146" x2="725.347" y2="473.782" gradientUnits="userSpaceOnUse">
<stop stop-color="#FDF53F"/>
<stop offset="1" stop-color="#D93C65"/>
</linearGradient>
<linearGradient id="paint10_linear_360_1368" x1="859.722" y1="85.3474" x2="798.656" y2="484.983" gradientUnits="userSpaceOnUse">
<stop stop-color="#FDF53F"/>
<stop offset="1" stop-color="#D93C65"/>
</linearGradient>
<linearGradient id="paint11_linear_360_1368" x1="930.12" y1="96.1049" x2="869.054" y2="495.741" gradientUnits="userSpaceOnUse">
<stop stop-color="#FDF53F"/>
<stop offset="1" stop-color="#D93C65"/>
</linearGradient>
<linearGradient id="paint12_linear_360_1368" x1="997.776" y1="106.443" x2="936.71" y2="506.079" gradientUnits="userSpaceOnUse">
<stop stop-color="#FDF53F"/>
<stop offset="1" stop-color="#D93C65"/>
</linearGradient>
<linearGradient id="paint13_linear_360_1368" x1="782.48" y1="353.874" x2="804.96" y2="-67.8675" gradientUnits="userSpaceOnUse">
<stop stop-color="#B37CFF"/>
<stop offset="1" stop-color="#F895E7"/>
</linearGradient>
<linearGradient id="paint14_linear_360_1368" x1="628.183" y1="-38.3725" x2="552.573" y2="228.956" gradientUnits="userSpaceOnUse">
<stop stop-color="#A737D5"/>
<stop offset="1" stop-color="#EF497A"/>
</linearGradient>
<linearGradient id="paint15_linear_360_1368" x1="1493.93" y1="1609.11" x2="1398" y2="629.768" gradientUnits="userSpaceOnUse">
<stop stop-color="#B37CFF"/>
<stop offset="1" stop-color="#F895E7"/>
</linearGradient>
<linearGradient id="paint16_linear_360_1368" x1="1230.26" y1="815.605" x2="1464" y2="1244.21" gradientUnits="userSpaceOnUse">
<stop stop-color="#A737D5"/>
<stop offset="1" stop-color="#EF497A"/>
</linearGradient>
<linearGradient id="paint17_linear_360_1368" x1="1499.76" y1="826.075" x2="1669.18" y2="826.075" gradientUnits="userSpaceOnUse">
<stop stop-color="#2B3582"/>
<stop offset="1" stop-color="#150E42"/>
</linearGradient>
<linearGradient id="paint18_linear_360_1368" x1="1646.56" y1="921.692" x2="1284.32" y2="1647.47" gradientUnits="userSpaceOnUse">
<stop stop-color="#FDF53F"/>
<stop offset="1" stop-color="#D93C65"/>
</linearGradient>
<linearGradient id="paint19_linear_360_1368" x1="1891.47" y1="831.65" x2="1520.85" y2="1312.84" gradientUnits="userSpaceOnUse">
<stop stop-color="#FDF53F"/>
<stop offset="1" stop-color="#D93C65"/>
</linearGradient>
<linearGradient id="paint20_linear_360_1368" x1="1450.28" y1="825.07" x2="1619.69" y2="825.07" gradientUnits="userSpaceOnUse">
<stop stop-color="#2B3582"/>
<stop offset="1" stop-color="#150E42"/>
</linearGradient>
<linearGradient id="paint21_linear_360_1368" x1="5305.33" y1="-1364.46" x2="5708.05" y2="-1542.17" gradientUnits="userSpaceOnUse">
<stop stop-color="#F9B776"/>
<stop offset="1" stop-color="#F47960"/>
</linearGradient>
<linearGradient id="paint22_linear_360_1368" x1="7007.92" y1="26.088" x2="7408.71" y2="-14.3551" gradientUnits="userSpaceOnUse">
<stop stop-color="#F9B776"/>
<stop offset="1" stop-color="#F47960"/>
</linearGradient>
<linearGradient id="paint23_linear_360_1368" x1="1181.23" y1="5.79285" x2="1042.12" y2="333.41" gradientUnits="userSpaceOnUse">
<stop stop-color="#2B3582"/>
<stop offset="1" stop-color="#150E42"/>
</linearGradient>
<linearGradient id="paint24_linear_360_1368" x1="981.701" y1="909.212" x2="992.682" y2="1248.53" gradientUnits="userSpaceOnUse">
<stop stop-color="#CB236D"/>
<stop offset="1" stop-color="#4C246D"/>
</linearGradient>
<linearGradient id="paint25_linear_360_1368" x1="1094.84" y1="644.616" x2="321.525" y2="1772.16" gradientUnits="userSpaceOnUse">
<stop stop-color="#FDF53F"/>
<stop offset="1" stop-color="#D93C65"/>
</linearGradient>
<linearGradient id="paint26_linear_360_1368" x1="1077.53" y1="604.543" x2="1013.61" y2="462.344" gradientUnits="userSpaceOnUse">
<stop stop-color="#F9B776"/>
<stop offset="1" stop-color="#F47960"/>
</linearGradient>
<linearGradient id="paint27_linear_360_1368" x1="841.255" y1="490.164" x2="882.007" y2="1015.38" gradientUnits="userSpaceOnUse">
<stop stop-color="#F9B776"/>
<stop offset="1" stop-color="#F47960"/>
</linearGradient>
<linearGradient id="paint28_linear_360_1368" x1="1102.54" y1="338.393" x2="941.24" y2="533.325" gradientUnits="userSpaceOnUse">
<stop stop-color="#F9B776"/>
<stop offset="1" stop-color="#F47960"/>
</linearGradient>
<linearGradient id="paint29_linear_360_1368" x1="1192.28" y1="-33.641" x2="1036.23" y2="318.038" gradientUnits="userSpaceOnUse">
<stop stop-color="#2B3582"/>
<stop offset="1" stop-color="#150E42"/>
</linearGradient>
<linearGradient id="paint30_linear_360_1368" x1="1060.39" y1="303.518" x2="899.097" y2="498.448" gradientUnits="userSpaceOnUse">
<stop stop-color="#F9B776"/>
<stop offset="1" stop-color="#F47960"/>
</linearGradient>
<linearGradient id="paint31_linear_360_1368" x1="1179.12" y1="656.16" x2="1299.74" y2="503.107" gradientUnits="userSpaceOnUse">
<stop stop-color="#2B3582"/>
<stop offset="1" stop-color="#150E42"/>
</linearGradient>
<linearGradient id="paint32_linear_360_1368" x1="1368.51" y1="270.482" x2="1591.01" y2="645.331" gradientUnits="userSpaceOnUse">
<stop stop-color="#CB236D"/>
<stop offset="1" stop-color="#4C246D"/>
</linearGradient>
<linearGradient id="paint33_linear_360_1368" x1="1754.77" y1="319.795" x2="1543.01" y2="403.26" gradientUnits="userSpaceOnUse">
<stop stop-color="#A737D5"/>
<stop offset="1" stop-color="#EF497A"/>
</linearGradient>
<linearGradient id="paint34_linear_360_1368" x1="1544.72" y1="399.663" x2="1627.52" y2="392.544" gradientUnits="userSpaceOnUse">
<stop stop-color="#A737D5"/>
<stop offset="1" stop-color="#EF497A"/>
</linearGradient>
<linearGradient id="paint35_linear_360_1368" x1="1649.09" y1="390.694" x2="1425.91" y2="402.807" gradientUnits="userSpaceOnUse">
<stop stop-color="#2B3582"/>
<stop offset="1" stop-color="#150E42"/>
</linearGradient>
<linearGradient id="paint36_linear_360_1368" x1="1226.48" y1="474.49" x2="1217.28" y2="255.604" gradientUnits="userSpaceOnUse">
<stop stop-color="#2B3582"/>
<stop offset="1" stop-color="#150E42"/>
</linearGradient>
<linearGradient id="paint37_linear_360_1368" x1="1236.41" y1="557.149" x2="1315.51" y2="539.165" gradientUnits="userSpaceOnUse">
<stop stop-color="#F9B776"/>
<stop offset="1" stop-color="#F47960"/>
</linearGradient>
</defs>
</svg>
